<?xml version="1.0" encoding="UTF-8"?>
<svg id="Layer_1" data-name="Layer 1" xmlns="http://www.w3.org/2000/svg" xmlns:xlink="http://www.w3.org/1999/xlink" viewBox="0 0 1113.053 210.738">
  <defs>
    <clipPath id="clippath">
      <rect x="625.381" y="18.907" width="417.003" height="173.55" fill="none"/>
    </clipPath>
  </defs>
  <rect y="0" width="1113.053" height="210.738" rx="49.899" ry="49.899" fill="#000052"/>
  <g>
    <path d="m111.088,130.801v-1.112c-1.511,1.73-3.002,3.139-4.471,4.224-1.47,1.085-3.063,1.91-4.78,2.473-1.717.562-3.592.845-5.625.845-2.693,0-5.186-.57-7.479-1.71-2.294-1.14-4.279-2.768-5.955-4.883-1.676-2.115-2.946-4.601-3.812-7.458-.865-2.857-1.298-5.948-1.298-9.272,0-7.032,1.716-12.513,5.151-16.442,3.434-3.928,7.953-5.893,13.557-5.893,3.241,0,5.975.556,8.201,1.669,2.225,1.112,4.395,2.823,6.511,5.13v-16.607c0-2.308.459-4.052,1.38-5.233.92-1.181,2.231-1.772,3.936-1.772s3.014.543,3.935,1.628c.92,1.085,1.38,2.686,1.38,4.801v49.614c0,2.143-.494,3.75-1.483,4.821-.989,1.072-2.267,1.607-3.832,1.607-1.539,0-2.81-.556-3.812-1.669-1.003-1.113-1.504-2.699-1.504-4.76Zm-22.129-16.524c0,3.049.474,5.646,1.422,7.788.948,2.143,2.246,3.757,3.894,4.842,1.648,1.086,3.447,1.628,5.398,1.628,1.978,0,3.784-.515,5.419-1.545,1.634-1.03,2.939-2.609,3.915-4.739.975-2.129,1.463-4.787,1.463-7.974,0-2.994-.488-5.57-1.463-7.727-.976-2.156-2.294-3.805-3.956-4.945-1.663-1.14-3.482-1.71-5.46-1.71-2.061,0-3.901.584-5.522,1.751-1.621,1.168-2.878,2.843-3.771,5.027-.893,2.184-1.339,4.718-1.339,7.603Z" fill="#fff"/>
    <path d="m175.125,114.359c0,3.352-.522,6.443-1.566,9.272-1.044,2.83-2.555,5.261-4.533,7.294-1.978,2.033-4.341,3.592-7.087,4.677-2.748,1.085-5.838,1.628-9.272,1.628-3.407,0-6.47-.55-9.189-1.648s-5.075-2.671-7.067-4.718c-1.992-2.046-3.503-4.464-4.533-7.252-1.03-2.788-1.545-5.872-1.545-9.251,0-3.406.521-6.524,1.566-9.354,1.043-2.829,2.541-5.247,4.492-7.252,1.95-2.005,4.312-3.55,7.087-4.636,2.774-1.085,5.837-1.628,9.189-1.628,3.406,0,6.497.55,9.272,1.648,2.774,1.099,5.151,2.665,7.129,4.698,1.978,2.033,3.482,4.45,4.512,7.252s1.545,5.893,1.545,9.271Zm-11.291,0c0-4.587-1.01-8.159-3.029-10.714-2.019-2.555-4.732-3.832-8.139-3.832-2.198,0-4.135.57-5.81,1.71-1.676,1.14-2.967,2.823-3.874,5.048-.907,2.225-1.36,4.821-1.36,7.788,0,2.94.446,5.509,1.339,7.706.893,2.198,2.17,3.881,3.833,5.048,1.662,1.168,3.619,1.751,5.872,1.751,3.406,0,6.12-1.284,8.139-3.853,2.019-2.568,3.029-6.119,3.029-10.652Z" fill="#fff"/>
    <path d="m194.204,97.711v1.36c1.978-2.61,4.142-4.526,6.49-5.749,2.349-1.222,5.048-1.834,8.097-1.834,2.967,0,5.618.646,7.953,1.937,2.335,1.292,4.08,3.118,5.233,5.48.742,1.374,1.222,2.857,1.442,4.45.22,1.594.33,3.626.33,6.099v20.934c0,2.252-.515,3.956-1.545,5.109-1.03,1.154-2.369,1.731-4.018,1.731-1.676,0-3.036-.591-4.08-1.772-1.044-1.181-1.566-2.871-1.566-5.068v-18.75c0-3.709-.515-6.545-1.545-8.51-1.03-1.964-3.084-2.946-6.16-2.946-2.006,0-3.833.598-5.481,1.792-1.648,1.195-2.857,2.837-3.626,4.924-.55,1.676-.824,4.808-.824,9.396v14.093c0,2.28-.529,3.991-1.586,5.13-1.058,1.14-2.425,1.71-4.101,1.71-1.621,0-2.953-.591-3.997-1.772-1.044-1.181-1.566-2.871-1.566-5.068v-32.513c0-2.143.467-3.743,1.401-4.801.934-1.057,2.211-1.586,3.832-1.586.989,0,1.881.234,2.679.701.796.467,1.435,1.168,1.916,2.102.48.934.721,2.075.721,3.42Z" fill="#fff"/>
    <path d="m263.392,130.883c-2.72,2.116-5.351,3.702-7.891,4.76-2.542,1.057-5.392,1.586-8.551,1.586-2.885,0-5.419-.57-7.603-1.71-2.184-1.14-3.867-2.685-5.048-4.636-1.182-1.95-1.772-4.065-1.772-6.346,0-3.077.975-5.7,2.926-7.871,1.95-2.17,4.629-3.626,8.036-4.368.714-.165,2.486-.536,5.316-1.113,2.829-.577,5.254-1.105,7.273-1.586,2.019-.48,4.209-1.064,6.573-1.751-.138-2.967-.735-5.144-1.792-6.531-1.058-1.387-3.249-2.081-6.573-2.081-2.857,0-5.007.398-6.449,1.195-1.442.797-2.678,1.992-3.708,3.585s-1.758,2.644-2.184,3.152c-.426.509-1.339.762-2.74.762-1.264,0-2.356-.405-3.276-1.215-.921-.81-1.38-1.848-1.38-3.111,0-1.978.7-3.901,2.102-5.769,1.401-1.868,3.585-3.406,6.552-4.615,2.967-1.208,6.662-1.813,11.085-1.813,4.945,0,8.832.584,11.662,1.751,2.829,1.168,4.828,3.015,5.996,5.542,1.167,2.528,1.751,5.879,1.751,10.055,0,2.637-.007,4.876-.021,6.717-.014,1.841-.035,3.888-.062,6.14,0,2.116.35,4.32,1.051,6.614.7,2.294,1.051,3.771,1.051,4.43,0,1.154-.543,2.205-1.628,3.152-1.085.948-2.315,1.422-3.688,1.422-1.154,0-2.294-.543-3.42-1.628-1.126-1.085-2.322-2.658-3.585-4.718Zm-.742-16.277c-1.648.604-4.045,1.243-7.191,1.916-3.146.673-5.323,1.168-6.531,1.483-1.209.316-2.363.935-3.461,1.854-1.099.921-1.648,2.205-1.648,3.853,0,1.704.645,3.152,1.937,4.347,1.291,1.195,2.98,1.792,5.068,1.792,2.225,0,4.278-.487,6.161-1.463,1.881-.975,3.262-2.231,4.141-3.771,1.016-1.703,1.525-4.505,1.525-8.406v-1.607Z" fill="#fff"/>
    <path d="m283.625,92.478h1.236v-6.758c0-1.813.048-3.235.145-4.265.096-1.03.364-1.916.803-2.658.439-.769,1.071-1.394,1.896-1.875.824-.48,1.745-.721,2.761-.721,1.428,0,2.72.536,3.874,1.607.769.714,1.257,1.586,1.463,2.617.206,1.03.309,2.493.309,4.388v7.665h4.121c1.593,0,2.809.378,3.647,1.133.837.756,1.257,1.725,1.257,2.905,0,1.511-.598,2.569-1.792,3.173-1.195.605-2.905.907-5.13.907h-2.102v20.687c0,1.758.062,3.111.185,4.059.124.948.454,1.717.989,2.308.536.591,1.407.886,2.617.886.659,0,1.552-.117,2.678-.351,1.126-.233,2.005-.35,2.638-.35.906,0,1.724.364,2.452,1.092.728.728,1.092,1.627,1.092,2.699,0,1.813-.989,3.201-2.967,4.162s-4.821,1.442-8.53,1.442c-3.517,0-6.181-.591-7.995-1.772-1.813-1.181-3.001-2.816-3.564-4.904-.563-2.087-.845-4.876-.845-8.365v-21.593h-1.483c-1.621,0-2.857-.384-3.708-1.154-.852-.769-1.278-1.744-1.278-2.926s.446-2.149,1.339-2.905c.893-.755,2.19-1.133,3.894-1.133Z" fill="#fff"/>
    <path d="m344.283,117.12h-22.005c.027,2.555.542,4.808,1.545,6.758,1.002,1.951,2.334,3.42,3.997,4.409,1.662.989,3.496,1.484,5.501,1.484,1.346,0,2.575-.158,3.688-.474,1.112-.315,2.19-.81,3.235-1.483,1.043-.673,2.005-1.394,2.884-2.164.879-.769,2.02-1.813,3.42-3.132.577-.494,1.401-.742,2.473-.742,1.154,0,2.087.316,2.802.948.714.632,1.071,1.525,1.071,2.679,0,1.017-.398,2.205-1.195,3.564-.797,1.36-1.999,2.665-3.605,3.915-1.607,1.25-3.626,2.287-6.058,3.111s-5.227,1.236-8.386,1.236c-7.226,0-12.843-2.061-16.854-6.181-4.011-4.121-6.017-9.711-6.017-16.771,0-3.324.495-6.408,1.484-9.251.989-2.843,2.431-5.281,4.327-7.314,1.896-2.033,4.23-3.592,7.005-4.677,2.774-1.085,5.852-1.628,9.23-1.628,4.395,0,8.166.927,11.312,2.782,3.145,1.854,5.501,4.251,7.067,7.191s2.349,5.934,2.349,8.983c0,2.83-.811,4.664-2.431,5.501-1.622.838-3.901,1.257-6.841,1.257Zm-22.005-6.387h20.398c-.275-3.846-1.312-6.723-3.111-8.633-1.799-1.909-4.169-2.864-7.108-2.864-2.802,0-5.103.968-6.902,2.905-1.799,1.937-2.892,4.801-3.276,8.592Z" fill="#fff"/>
    <path d="m391.136,98.494l7.335,25.137,6.676-23.365c.714-2.445,1.243-4.114,1.586-5.007.343-.893.989-1.744,1.937-2.555.948-.81,2.246-1.216,3.894-1.216,1.675,0,2.987.406,3.936,1.216.948.811,1.613,1.689,1.999,2.637.384.948.92,2.59,1.607,4.924l6.676,23.365,7.417-25.137c.495-1.813.893-3.125,1.195-3.936.302-.81.81-1.524,1.524-2.143s1.745-.927,3.091-.927,2.514.467,3.502,1.401c.989.934,1.484,2.033,1.484,3.296,0,1.154-.426,2.899-1.278,5.233l-9.189,26.95c-.797,2.281-1.416,3.929-1.854,4.945-.44,1.017-1.133,1.923-2.081,2.72-.948.797-2.246,1.195-3.894,1.195-1.704,0-3.043-.426-4.018-1.277-.976-.852-1.697-1.896-2.164-3.132-.467-1.236-.976-2.843-1.525-4.821l-6.428-21.923-6.222,21.923c-.824,3.049-1.717,5.351-2.679,6.902-.962,1.552-2.651,2.328-5.068,2.328-1.236,0-2.287-.241-3.153-.721-.865-.48-1.586-1.167-2.163-2.061-.577-.892-1.085-1.95-1.525-3.173-.439-1.222-.783-2.19-1.03-2.905l-9.107-26.95c-.906-2.527-1.36-4.271-1.36-5.233,0-1.208.48-2.293,1.442-3.255s2.143-1.442,3.544-1.442c1.868,0,3.132.529,3.791,1.586.66,1.058,1.36,2.864,2.102,5.419Z" fill="#fff"/>
    <path d="m458.429,86.255c-1.566,0-2.905-.48-4.018-1.442-1.112-.961-1.669-2.321-1.669-4.08,0-1.593.57-2.905,1.71-3.935,1.14-1.03,2.465-1.545,3.977-1.545,1.456,0,2.747.467,3.874,1.401,1.126.934,1.689,2.294,1.689,4.079,0,1.731-.55,3.084-1.648,4.059-1.099.976-2.404,1.463-3.915,1.463Zm5.563,11.621v32.513c0,2.252-.536,3.956-1.607,5.109-1.072,1.154-2.432,1.731-4.08,1.731s-2.988-.591-4.018-1.772-1.545-2.871-1.545-5.068v-32.184c0-2.225.515-3.9,1.545-5.027,1.03-1.126,2.37-1.689,4.018-1.689s3.008.563,4.08,1.689c1.071,1.127,1.607,2.693,1.607,4.698Z" fill="#fff"/>
    <path d="m476.23,92.478h1.236v-6.758c0-1.813.048-3.235.145-4.265.096-1.03.364-1.916.803-2.658.439-.769,1.071-1.394,1.896-1.875.824-.48,1.745-.721,2.761-.721,1.428,0,2.72.536,3.874,1.607.769.714,1.257,1.586,1.463,2.617.206,1.03.309,2.493.309,4.388v7.665h4.121c1.593,0,2.809.378,3.647,1.133.837.756,1.257,1.725,1.257,2.905,0,1.511-.598,2.569-1.792,3.173-1.195.605-2.905.907-5.13.907h-2.102v20.687c0,1.758.062,3.111.185,4.059.124.948.454,1.717.989,2.308.536.591,1.407.886,2.617.886.659,0,1.552-.117,2.678-.351,1.126-.233,2.005-.35,2.638-.35.906,0,1.724.364,2.452,1.092.728.728,1.092,1.627,1.092,2.699,0,1.813-.989,3.201-2.967,4.162s-4.821,1.442-8.53,1.442c-3.517,0-6.181-.591-7.995-1.772-1.813-1.181-3.001-2.816-3.564-4.904-.563-2.087-.845-4.876-.845-8.365v-21.593h-1.483c-1.621,0-2.857-.384-3.708-1.154-.852-.769-1.278-1.744-1.278-2.926s.446-2.149,1.339-2.905c.893-.755,2.19-1.133,3.894-1.133Z" fill="#fff"/>
    <path d="m516.49,81.599v16.689c1.428-1.648,2.822-2.953,4.182-3.915,1.36-.961,2.864-1.683,4.513-2.164,1.648-.48,3.42-.721,5.315-.721,2.857,0,5.391.604,7.603,1.813,2.211,1.209,3.949,2.967,5.213,5.275.796,1.346,1.332,2.85,1.607,4.512.274,1.663.412,3.579.412,5.749v21.552c0,2.252-.515,3.956-1.545,5.109s-2.397,1.731-4.1,1.731c-3.708,0-5.563-2.28-5.563-6.84v-18.997c0-3.599-.536-6.367-1.607-8.303-1.072-1.937-3.105-2.905-6.099-2.905-2.005,0-3.812.57-5.418,1.71-1.607,1.141-2.81,2.699-3.606,4.677-.604,1.676-.906,4.657-.906,8.942v14.876c0,2.225-.502,3.921-1.504,5.089-1.003,1.167-2.397,1.751-4.183,1.751-3.708,0-5.563-2.28-5.563-6.84v-48.79c0-2.28.487-3.99,1.463-5.13.975-1.14,2.342-1.71,4.1-1.71,1.786,0,3.18.577,4.183,1.731,1.002,1.154,1.504,2.857,1.504,5.11Z" fill="#fff"/>
  </g>
  <g clip-path="url(#clippath)">
    <image width="519" height="216" transform="translate(625.381 18.907) scale(.803)" xlink:href="UPI button1.png"/>
  </g>
</svg>