<?xml version="1.0" encoding="utf-8"?>
<!-- Generator: Adobe Illustrator 27.1.1, SVG Export Plug-In . SVG Version: 6.00 Build 0)  -->
<svg version="1.1" id="Layer_1" xmlns="http://www.w3.org/2000/svg" xmlns:xlink="http://www.w3.org/1999/xlink" x="0px" y="0px"
	 viewBox="0 0 1076 237.5169" style="enable-background:new 0 0 1076 237.5169;" xml:space="preserve">
<style type="text/css">
	.st0{fill:#00434D;}
	.st1{fill:none;}
	.st2{fill:#FFFFFF;}
	.st3{fill:#FF7423;}
	.st4{fill:#299142;}
	.st5{fill:#636F72;}
</style>
<g>
	<path class="st0" d="M1037.5548,237.5169H38.4452C17.2125,237.5169,0,220.3044,0,199.0717V38.4452C0,17.2125,17.2125,0,38.4452,0
		h999.1096C1058.7875,0,1076,17.2125,1076,38.4452v160.6265C1076,220.3044,1058.7875,237.5169,1037.5548,237.5169z"/>
	<g>
		<rect x="20.2655" y="49.7696" class="st1" width="517.252" height="137.9777"/>
		<path class="st2" d="M94.5947,141.9215v-1.0176c-1.3823,1.583-2.7456,2.8711-4.0898,3.8643
			c-1.3447,0.9932-2.8022,1.7471-4.3726,2.2617c-1.5713,0.5146-3.2861,0.7725-5.1455,0.7725c-2.4634,0-4.7441-0.5215-6.8423-1.5645
			c-2.0986-1.042-3.9146-2.5312-5.4468-4.4668c-1.5332-1.9346-2.6953-4.209-3.4868-6.8232
			c-0.792-2.6133-1.1875-5.4404-1.1875-8.4814c0-6.4336,1.5703-11.4468,4.7119-15.041c3.1411-3.5933,7.2754-5.3906,12.4019-5.3906
			c2.9653,0,5.4663,0.5093,7.502,1.5269c2.0352,1.0181,4.0205,2.582,5.9556,4.6934V97.0631c0-2.1108,0.4209-3.7065,1.2632-4.7871
			c0.8413-1.0806,2.0415-1.6211,3.5996-1.6211s2.7578,0.4966,3.6001,1.4893c0.8418,0.9927,1.2627,2.4565,1.2627,4.3916v45.3857
			c0,1.9609-0.4521,3.4307-1.3569,4.4111c-0.9048,0.9795-2.0732,1.4697-3.5059,1.4697c-1.4077,0-2.5698-0.5088-3.4868-1.5264
			C95.0532,145.2575,94.5947,143.8063,94.5947,141.9215z M74.3521,126.8053c0,2.79,0.4336,5.165,1.3003,7.125
			c0.8672,1.96,2.0547,3.4365,3.5625,4.4287c1.5078,0.9932,3.1533,1.4893,4.9385,1.4893c1.8091,0,3.4614-0.4707,4.957-1.4131
			c1.4946-0.9424,2.6885-2.3877,3.5811-4.335c0.8916-1.9473,1.3379-4.3789,1.3379-7.2949c0-2.7383-0.4463-5.0947-1.3379-7.0679
			c-0.8926-1.9727-2.0986-3.4805-3.6191-4.5234c-1.5205-1.0425-3.1851-1.5645-4.9946-1.5645c-1.8848,0-3.5688,0.5342-5.0513,1.6021
			c-1.4829,1.0684-2.6328,2.6011-3.4492,4.5986C74.7603,121.8483,74.3521,124.1667,74.3521,126.8053z"/>
		<path class="st2" d="M153.1748,126.8815c0,3.0654-0.478,5.8936-1.4326,8.4814c-0.9556,2.5889-2.3369,4.8125-4.1465,6.6719
			c-1.8096,1.8604-3.9712,3.2861-6.4839,4.2783c-2.5132,0.9932-5.3403,1.4893-8.4814,1.4893c-3.1167,0-5.9185-0.5029-8.4062-1.5078
			c-2.4883-1.0049-4.6431-2.4434-6.4648-4.3164c-1.8228-1.8721-3.2046-4.083-4.147-6.6348
			c-0.9424-2.5498-1.4136-5.3711-1.4136-8.4619c0-3.1162,0.4771-5.9688,1.4326-8.5576c0.9546-2.5879,2.3242-4.7998,4.1089-6.6343
			c1.7842-1.8345,3.9453-3.248,6.4839-4.2407c2.5381-0.9927,5.3398-1.4893,8.4062-1.4893c3.1157,0,5.9429,0.5029,8.4814,1.5078
			c2.5381,1.0054,4.7119,2.438,6.5215,4.2974c1.8096,1.8604,3.1855,4.0713,4.1279,6.6348
			C152.7036,120.9626,153.1748,123.7897,153.1748,126.8815z M142.8457,126.8815c0-4.1973-0.9233-7.4644-2.7705-9.8013
			c-1.8472-2.3374-4.3291-3.5059-7.4448-3.5059c-2.0112,0-3.7827,0.522-5.3154,1.5645c-1.5332,1.043-2.7139,2.582-3.5435,4.6177
			c-0.8291,2.0352-1.2437,4.4102-1.2437,7.125c0,2.6885,0.4082,5.0381,1.2251,7.0488c0.8164,2.0107,1.9849,3.5498,3.5054,4.6182
			s3.311,1.6016,5.3721,1.6016c3.1157,0,5.5977-1.1748,7.4448-3.5244S142.8457,131.028,142.8457,126.8815z"/>
		<path class="st2" d="M170.6284,111.652v1.2437c1.8091-2.3872,3.7881-4.1401,5.937-5.2583
			c2.1484-1.1182,4.6177-1.6777,7.4072-1.6777c2.7139,0,5.1392,0.5908,7.2754,1.772c2.1357,1.1812,3.7319,2.8525,4.7876,5.0132
			c0.6782,1.2573,1.1177,2.6143,1.3193,4.0713c0.2007,1.458,0.3013,3.3174,0.3013,5.5791v19.1494
			c0,2.0615-0.4712,3.6191-1.4136,4.6748s-2.1675,1.583-3.6753,1.583c-1.5332,0-2.7773-0.541-3.7319-1.6211
			c-0.9556-1.0801-1.4326-2.626-1.4326-4.6367v-17.1514c0-3.3926-0.4712-5.9873-1.4136-7.7842s-2.8213-2.6953-5.6353-2.6953
			c-1.835,0-3.5059,0.5464-5.0137,1.6396s-2.6143,2.5952-3.3174,4.5049c-0.5029,1.5332-0.7539,4.3975-0.7539,8.5947v12.8916
			c0,2.0869-0.4844,3.6514-1.4512,4.6934c-0.9678,1.043-2.2183,1.5645-3.751,1.5645c-1.4829,0-2.7017-0.541-3.6562-1.6211
			c-0.9556-1.0801-1.4326-2.626-1.4326-4.6367v-29.7422c0-1.96,0.4268-3.4238,1.2817-4.3916
			c0.854-0.9668,2.0225-1.4512,3.5054-1.4512c0.9048,0,1.7212,0.2139,2.4507,0.6406c0.7285,0.4277,1.3125,1.0688,1.7524,1.9229
			C170.4077,109.3776,170.6284,110.4206,170.6284,111.652z"/>
		<path class="st2" d="M233.9204,141.9967c-2.4883,1.9355-4.8945,3.3877-7.2188,4.3545c-2.3252,0.9668-4.9326,1.4512-7.8223,1.4512
			c-2.6387,0-4.957-0.5215-6.9551-1.5645c-1.9976-1.042-3.5371-2.4561-4.6177-4.2412c-1.0806-1.7832-1.6206-3.7188-1.6206-5.8047
			c0-2.8145,0.8916-5.2148,2.6763-7.2002c1.7842-1.9844,4.2344-3.3174,7.3506-3.9961c0.6533-0.1504,2.2744-0.4893,4.8628-1.0176
			c2.5884-0.5273,4.8062-1.0107,6.6533-1.4512c1.8472-0.4395,3.8511-0.9736,6.0127-1.6016
			c-0.126-2.7144-0.6729-4.7061-1.6396-5.9751c-0.9678-1.269-2.9722-1.9038-6.0127-1.9038c-2.6138,0-4.5801,0.3647-5.8994,1.0933
			c-1.3193,0.729-2.4502,1.8223-3.3926,3.2793c-0.9424,1.458-1.6084,2.4194-1.998,2.8843s-1.2251,0.6973-2.5068,0.6973
			c-1.1562,0-2.1553-0.3711-2.9966-1.1123c-0.8423-0.7407-1.2632-1.6899-1.2632-2.8462c0-1.8091,0.6411-3.5679,1.9229-5.2773
			c1.2817-1.7085,3.2793-3.1157,5.9937-4.2217c2.7139-1.106,6.0938-1.6587,10.1401-1.6587c4.5234,0,8.0796,0.5342,10.668,1.6021
			c2.5884,1.0684,4.4165,2.7583,5.4849,5.0698c1.0679,2.3125,1.6021,5.3784,1.6021,9.1982c0,2.4121-0.0063,4.4609-0.0186,6.1445
			c-0.0132,1.6836-0.0322,3.5566-0.0566,5.6162c0,1.9355,0.3203,3.9521,0.9609,6.0508c0.6411,2.0986,0.9614,3.4492,0.9614,4.0518
			c0,1.0557-0.4966,2.0166-1.4888,2.8838c-0.9932,0.8672-2.1177,1.3008-3.374,1.3008c-1.0557,0-2.0986-0.4961-3.1289-1.4893
			C236.1689,145.321,235.0757,143.8825,233.9204,141.9967z M233.2417,127.1071c-1.5078,0.5527-3.7007,1.1377-6.5781,1.7529
			c-2.8779,0.6162-4.8691,1.0684-5.9746,1.3574c-1.1064,0.2891-2.1616,0.8545-3.1665,1.6963
			c-1.0054,0.8418-1.5078,2.0166-1.5078,3.5244c0,1.5586,0.5903,2.8838,1.7715,3.9766c1.1812,1.0938,2.7266,1.6396,4.6367,1.6396
			c2.0356,0,3.9141-0.4453,5.6357-1.3379c1.7212-0.8916,2.9839-2.041,3.7886-3.4492c0.9292-1.5576,1.3945-4.1211,1.3945-7.6895
			V127.1071z"/>
		<path class="st2" d="M252.4292,106.8644h1.1313v-6.1821c0-1.6587,0.0435-2.9595,0.1318-3.9019
			c0.0874-0.9424,0.3325-1.7524,0.7349-2.4312c0.4019-0.7031,0.98-1.2754,1.7339-1.7153c0.7539-0.4395,1.5957-0.6597,2.5259-0.6597
			c1.3066,0,2.4878,0.4902,3.5435,1.4702c0.7031,0.6538,1.1499,1.4512,1.3384,2.3936s0.2827,2.2808,0.2827,4.0146v7.0117h3.7695
			c1.457,0,2.5693,0.3457,3.3359,1.0366c0.7666,0.6914,1.1499,1.5771,1.1499,2.6577c0,1.3823-0.5469,2.3501-1.6396,2.9023
			c-1.0933,0.5532-2.6577,0.8296-4.6934,0.8296h-1.9224v18.9229c0,1.6094,0.0562,2.8467,0.1694,3.7139
			c0.1133,0.8662,0.4146,1.5703,0.9048,2.1104c0.4902,0.541,1.2876,0.8105,2.3936,0.8105c0.603,0,1.4194-0.1064,2.4502-0.3203
			c1.0303-0.2129,1.8345-0.3203,2.4126-0.3203c0.8296,0,1.5767,0.333,2.2432,0.999c0.6655,0.666,0.999,1.4893,0.999,2.4688
			c0,1.6592-0.9048,2.9287-2.7144,3.8076s-4.4106,1.3193-7.8032,1.3193c-3.2168,0-5.6543-0.541-7.313-1.6211
			s-2.7461-2.5752-3.2607-4.4854c-0.5151-1.9102-0.7725-4.4609-0.7725-7.6523v-19.7529h-1.3574
			c-1.4829,0-2.6138-0.3516-3.3926-1.0557c-0.7793-0.7031-1.1685-1.5957-1.1685-2.6763s0.4082-1.9663,1.2251-2.6577
			C249.6836,107.2101,250.8711,106.8644,252.4292,106.8644z"/>
		<path class="st2" d="M307.918,129.4069h-20.1299c0.0249,2.3369,0.4961,4.3975,1.4141,6.1816
			c0.917,1.7852,2.1353,3.1289,3.6562,4.0342c1.5205,0.9043,3.1978,1.3564,5.0327,1.3564c1.231,0,2.356-0.1445,3.3735-0.4336
			c1.0181-0.2881,2.0039-0.7402,2.959-1.3564s1.8345-1.2754,2.6392-1.9795c0.8037-0.7031,1.8467-1.6582,3.1284-2.8643
			c0.5278-0.4531,1.2817-0.6787,2.2617-0.6787c1.0557,0,1.9097,0.2891,2.5635,0.8672c0.6533,0.5781,0.98,1.3945,0.98,2.4502
			c0,0.9297-0.3643,2.0166-1.0928,3.2607c-0.7295,1.2432-1.8286,2.4375-3.2988,3.5811c-1.4697,1.1436-3.3169,2.0918-5.541,2.8457
			s-4.7817,1.1309-7.6714,1.1309c-6.6099,0-11.7485-1.8848-15.4175-5.6543c-3.6694-3.7695-5.5039-8.8838-5.5039-15.3428
			c0-3.04,0.4526-5.8613,1.3569-8.4624c0.9048-2.6011,2.2241-4.8311,3.9585-6.6909c1.7339-1.8599,3.8696-3.2856,6.4082-4.2788
			c2.5381-0.9922,5.353-1.4888,8.4438-1.4888c4.0205,0,7.4697,0.8481,10.3477,2.5444c2.8774,1.6963,5.0322,3.8892,6.4648,6.5776
			c1.4326,2.6895,2.1489,5.4287,2.1489,8.2178c0,2.5889-0.7417,4.2666-2.2241,5.0322
			C312.6924,129.0241,310.6069,129.4069,307.918,129.4069z M287.7881,123.5641h18.6597c-0.2515-3.5186-1.2002-6.1509-2.8457-7.8975
			c-1.6465-1.7466-3.814-2.6201-6.5029-2.6201c-2.563,0-4.6685,0.8857-6.314,2.6577
			C289.1387,117.4757,288.1401,120.0954,287.7881,123.5641z"/>
		<path class="st2" d="M350.7788,112.3678l6.71,22.9951l6.1064-21.374c0.6533-2.2363,1.1367-3.7632,1.4517-4.5801
			c0.314-0.8164,0.9043-1.5957,1.7715-2.3369s2.0547-1.1123,3.5625-1.1123c1.5322,0,2.7329,0.3711,3.5996,1.1123
			c0.8672,0.7412,1.4761,1.5454,1.8286,2.4121c0.3516,0.8672,0.8418,2.3691,1.4702,4.5049l6.1064,21.374l6.7856-22.9951
			c0.4521-1.6587,0.8164-2.8584,1.0928-3.5996s0.7412-1.395,1.395-1.9604c0.6533-0.5654,1.5957-0.8481,2.8271-0.8481
			c1.231,0,2.2993,0.4277,3.2041,1.2817c0.9048,0.8545,1.3574,1.8599,1.3574,3.0156c0,1.0557-0.3901,2.6519-1.1689,4.7876
			l-8.4062,24.6533c-0.729,2.0859-1.2944,3.5938-1.6963,4.5234c-0.4023,0.9297-1.0366,1.7598-1.9038,2.4883
			c-0.8667,0.7285-2.0542,1.0928-3.562,1.0928c-1.5586,0-2.7837-0.3896-3.6753-1.1689c-0.8926-0.7783-1.5522-1.7334-1.979-2.8643
			c-0.4277-1.1309-0.8926-2.6016-1.395-4.4111l-5.8804-20.0542l-5.6924,20.0542c-0.7539,2.79-1.5708,4.8955-2.4502,6.3145
			c-0.8799,1.4199-2.4253,2.1299-4.6367,2.1299c-1.1309,0-2.0918-0.2207-2.8838-0.6592c-0.7915-0.4395-1.4512-1.0684-1.979-1.8857
			c-0.5278-0.8154-0.9932-1.7832-1.3945-2.9023c-0.4023-1.1182-0.7163-2.0039-0.9424-2.6572l-8.3311-24.6533
			c-0.8291-2.312-1.2441-3.9077-1.2441-4.7876c0-1.1055,0.4395-2.0981,1.3198-2.978c0.8794-0.8794,1.96-1.3193,3.2417-1.3193
			c1.7085,0,2.8647,0.4844,3.4678,1.4512C349.4595,108.3786,350.1001,110.0309,350.7788,112.3678z"/>
		<path class="st2" d="M412.3364,101.172c-1.4321,0-2.6572-0.439-3.6753-1.3193c-1.0176-0.8794-1.5269-2.123-1.5269-3.7319
			c0-1.457,0.5215-2.6572,1.5645-3.5996c1.0425-0.9424,2.2554-1.4136,3.6377-1.4136c1.332,0,2.5127,0.4272,3.5435,1.2812
			c1.0303,0.855,1.5459,2.0986,1.5459,3.7319c0,1.5835-0.5034,2.8213-1.5083,3.7134
			C414.9121,100.7262,413.7183,101.172,412.3364,101.172z M417.4258,111.8024v29.7422c0,2.0615-0.4902,3.6191-1.4702,4.6748
			c-0.9805,1.0557-2.2241,1.583-3.7319,1.583s-2.7329-0.541-3.6753-1.6211c-0.9429-1.0801-1.4141-2.626-1.4141-4.6367v-29.4404
			c0-2.0356,0.4712-3.5684,1.4141-4.5991c0.9424-1.0298,2.1675-1.5454,3.6753-1.5454s2.7515,0.5156,3.7319,1.5454
			C416.9355,108.5358,417.4258,109.9684,417.4258,111.8024z"/>
		<path class="st2" d="M428.6211,106.8644h1.1313v-6.1821c0-1.6587,0.0435-2.9595,0.1318-3.9019
			c0.0874-0.9424,0.3325-1.7524,0.7349-2.4312c0.4019-0.7031,0.98-1.2754,1.7339-1.7153c0.7539-0.4395,1.5957-0.6597,2.5259-0.6597
			c1.3066,0,2.4878,0.4902,3.5435,1.4702c0.7031,0.6538,1.1499,1.4512,1.3384,2.3936s0.2827,2.2808,0.2827,4.0146v7.0117h3.7695
			c1.457,0,2.5693,0.3457,3.3359,1.0366c0.7666,0.6914,1.1499,1.5771,1.1499,2.6577c0,1.3823-0.5469,2.3501-1.6396,2.9023
			c-1.0933,0.5532-2.6577,0.8296-4.6934,0.8296h-1.9224v18.9229c0,1.6094,0.0562,2.8467,0.1694,3.7139
			c0.1133,0.8662,0.4146,1.5703,0.9048,2.1104c0.4902,0.541,1.2876,0.8105,2.3936,0.8105c0.603,0,1.4194-0.1064,2.4502-0.3203
			c1.0303-0.2129,1.8345-0.3203,2.4126-0.3203c0.8296,0,1.5767,0.333,2.2432,0.999c0.6655,0.666,0.999,1.4893,0.999,2.4688
			c0,1.6592-0.9048,2.9287-2.7144,3.8076s-4.4106,1.3193-7.8032,1.3193c-3.2168,0-5.6543-0.541-7.313-1.6211
			s-2.7461-2.5752-3.2607-4.4854c-0.5151-1.9102-0.7725-4.4609-0.7725-7.6523v-19.7529h-1.3574
			c-1.4829,0-2.6138-0.3516-3.3926-1.0557c-0.7793-0.7031-1.1685-1.5957-1.1685-2.6763s0.4082-1.9663,1.2251-2.6577
			C425.8755,107.2101,427.063,106.8644,428.6211,106.8644z"/>
		<path class="st2" d="M465.4502,96.9128v15.2666c1.3066-1.5078,2.5825-2.7012,3.8262-3.5811
			c1.2441-0.8794,2.6201-1.5391,4.1279-1.979c1.5078-0.4395,3.1289-0.6597,4.8628-0.6597c2.6133,0,4.9316,0.5532,6.9551,1.6587
			c2.0225,1.106,3.6123,2.7139,4.7686,4.8252c0.7285,1.2314,1.2183,2.6074,1.4702,4.1274c0.2505,1.521,0.377,3.2734,0.377,5.2588
			v19.7148c0,2.0615-0.4712,3.6191-1.4136,4.6748c-0.9429,1.0557-2.1929,1.583-3.751,1.583c-3.3926,0-5.0889-2.0859-5.0889-6.2578
			v-17.3779c0-3.292-0.4902-5.8237-1.4702-7.5957c-0.98-1.7715-2.8403-2.6572-5.5791-2.6572c-1.835,0-3.4868,0.5215-4.957,1.5645
			s-2.5698,2.4688-3.2983,4.2783c-0.5532,1.5332-0.8296,4.2598-0.8296,8.1797v13.6084c0,2.0361-0.4585,3.5879-1.376,4.6553
			c-0.9175,1.0684-2.1929,1.6025-3.8262,1.6025c-3.3926,0-5.0889-2.0859-5.0889-6.2578V96.9128
			c0-2.0859,0.4458-3.6504,1.3384-4.6934c0.8916-1.0425,2.1421-1.5645,3.7505-1.5645c1.6333,0,2.9087,0.5278,3.8262,1.5835
			C464.9917,93.2936,465.4502,94.8522,465.4502,96.9128z"/>
	</g>
	<g>
		<path class="st2" d="M866.3902,66.2873c-0.8095,3.053-1.5925,6.1132-2.4349,9.1571c-1.2044,4.3524-2.4688,8.6882-3.6763,13.0397
			c-1.0695,3.8544-2.0096,7.747-3.1755,11.5714c-0.6709,2.2006-1.0082,4.5411-2.4537,6.4776
			c-2.4142,3.2343-5.3862,5.4727-9.5778,5.6789c-0.595,0.0293-1.192,0.0224-1.788,0.0224
			c-22.9355,0.001-45.871-0.0013-68.8064,0.0029c-3.9215,0.0007-7.843,0.0398-11.7645,0.0326
			c-0.6628-0.0012-0.938,0.1723-1.1232,0.8803c-0.7674,2.9355-1.6591,5.8382-2.4747,8.7615
			c-0.6487,2.3254-1.2372,4.6677-1.8812,6.9945c-0.8307,3.0018-1.6985,5.9933-2.5352,8.9935
			c-0.9979,3.5777-1.9936,7.1561-2.9553,10.7435c-0.1661,0.6196-0.5905,0.4573-0.9579,0.458
			c-5.0515,0.0097-10.1029,0.0066-15.1544,0.0066c-0.5648,0-1.1306-0.022-1.694,0.0051c-0.6352,0.0305-0.7278-0.1992-0.5532-0.7881
			c0.88-2.9678,1.7684-5.9346,2.5604-8.9265c0.9185-3.47,1.8784-6.9262,2.8917-10.3699c0.9082-3.0867,1.6815-6.2129,2.524-9.319
			c0.8727-3.2173,1.7251-6.4406,2.6438-9.6448c1.4214-4.9576,2.8382-9.9161,4.1389-14.9071
			c0.1844-0.7076,0.5586-1.0066,1.3854-1.0055c29.8376,0.039,59.6754,0.0408,89.5131,0.0776
			c0.9599,0.0012,1.3408-0.2109,1.6163-1.2138c0.9898-3.6023,1.8768-7.2381,2.9945-10.7986
			c0.6892-2.1953,1.0046-4.4921,1.9026-6.6209c0.2133-0.5058,0.0223-0.6928-0.495-0.6527c-0.2495,0.0193-0.5018,0.003-0.7527,0.003
			c-29.7126,0.0026-59.4251,0.0052-89.1377,0.0078c-0.251,0-0.5027-0.0122-0.7529,0.0019c-0.5663,0.032-0.6544-0.1132-0.4821-0.7061
			c0.9904-3.4093,1.7924-6.8781,2.9034-10.2459c0.6999-2.1217,0.9269-4.3652,1.8295-6.4253
			c0.1832-0.4182,0.3528-0.6204,0.7958-0.5918c0.2499,0.0161,0.5018,0.0023,0.7528,0.0023c32.9442,0,65.8885,0.0013,98.8327-0.005
			c1.2881-0.0002,2.5613,0.0347,3.793,0.4691c1.5131,0.5335,2.6483,1.4967,3.3408,2.9474c0.0923,0.1936,0.1241,0.4107,0.3083,0.5503
			c-0.0472,0.521-0.0015,1.016,0.3951,1.4128c-0.0025,0.7249-0.005,1.4498-0.0074,2.1747
			c-0.3357,0.2124-0.3314,0.4881-0.1484,0.7971c-0.0187,0.1081-0.0374,0.2162-0.0559,0.3244
			C866.4204,65.7971,866.317,66.0022,866.3902,66.2873z"/>
		<path class="st2" d="M612.7601,143.6413c0.0011-0.6904,0.0021-1.3808,0.0032-2.0712c0.1766-0.1216,0.1665-0.2473,0.0083-0.3763
			c0.3923-2.0311,0.9754-4.0154,1.5966-5.9819c0.3934-1.2455,0.6412-2.522,1.0116-3.7707
			c1.0788-3.6364,2.1174-7.2851,3.1406-10.9377c0.9885-3.5292,1.9361-7.0699,2.9056-10.6045
			c0.8109-2.9562,1.6198-5.9129,2.4435-8.8654c0.8013-2.8722,1.6311-5.7366,2.4281-8.61c0.6202-2.2359,1.1009-4.517,1.8425-6.7109
			c0.7548-2.233,1.2183-4.5381,1.9229-6.7831c0.9458-3.0142,1.6429-6.1057,2.4852-9.1534c0.5986-2.1663,1.2713-4.3121,1.8908-6.4728
			c0.5294-1.8464,1.0434-3.6976,1.5356-5.5542c0.1484-0.5596,0.387-0.8016,1.0223-0.8002
			c5.5848,0.0127,11.1698-0.0054,16.7545-0.0404c0.7245-0.0045,0.8303,0.1632,0.588,0.8545
			c-0.4575,1.3051-0.6938,2.6903-1.1248,3.9953c-0.8098,2.4521-1.2863,4.9889-2.1102,7.4396
			c-0.8762,2.6064-1.4385,5.3173-2.1661,7.9748c-0.589,2.1512-1.2355,4.2866-1.8284,6.4368
			c-0.8536,3.0954-1.6667,6.202-2.5259,9.2958c-0.5698,2.0518-1.2033,4.0859-1.7825,6.1352
			c-0.3444,1.2182-0.6188,2.456-0.9595,3.6753c-0.7922,2.835-1.6809,5.6454-2.3875,8.5011
			c-0.6321,2.5551-1.3685,5.0848-2.1092,7.6012c-1.1246,3.8206-2.0168,7.705-3.2358,11.4973
			c-0.1555,0.4836-0.1157,0.891,0.5702,0.8347c0.187-0.0154,0.3763-0.0019,0.5646-0.0019c23.6906,0,47.3812-0.0049,71.0718,0.0208
			c0.8251,0.0009,1.1759-0.1985,1.3865-1.0238c0.6893-2.7016,1.4676-5.3807,2.2275-8.064
			c0.9838-3.4741,2.0441-6.9279,2.9561-10.4205c0.7259-2.7801,1.4606-5.5569,2.3049-8.3017
			c0.7903-2.5691,1.3861-5.1896,2.1395-7.7697c0.8143-2.7889,1.5356-5.615,2.2963-8.4213c0.7261-2.6784,1.5007-5.354,2.2905-8.0199
			c1.2367-4.1744,2.2709-8.4083,3.4524-12.5997c0.8324-2.9529,1.8007-5.8678,2.4553-8.8698
			c0.106-0.4862,0.3398-0.7257,0.8954-0.7239c5.6794,0.018,11.3589,0.014,17.0383,0.0054c0.5361-0.0008,0.7134,0.1033,0.5374,0.7049
			c-0.6831,2.3347-1.373,4.6668-1.962,7.0303c-0.6185,2.4816-1.4802,4.9031-2.0853,7.3874
			c-0.6226,2.5564-1.4271,5.0593-2.0956,7.6019c-0.8933,3.3976-1.8522,6.7824-2.8282,10.1581
			c-1.0152,3.5116-1.923,7.0512-2.9327,10.5627c-1.0334,3.5941-2.0541,7.1902-3.0146,10.805
			c-0.8475,3.1896-1.8473,6.3366-2.6521,9.5414c-0.866,3.4484-1.8379,6.8723-2.8487,10.2816
			c-1.0023,3.3806-1.9064,6.7875-2.877,10.175c-0.3575,1.248-0.6497,2.5451-1.3497,3.7209
			c-1.4731,2.4742-3.6036,3.8159-6.4117,4.1609c-0.5269,0.0647-1.0652,0.05-1.5983,0.05
			c-31.1273,0.0021-62.2545,0.0007-93.3817,0.0052c-1.5461,0.0002-3.0811-0.0755-4.4464-0.8843
			c-1.5369-0.9104-2.5358-2.2474-2.9037-4.0208C612.9758,144.0118,612.9647,143.8026,612.7601,143.6413z"/>
		<path class="st2" d="M866.0617,148.7197c-2.7292,0-5.4587-0.0205-8.1876,0.0136c-0.7347,0.0092-0.9579-0.0948-0.7407-0.9137
			c0.9854-3.7145,2.0425-7.4079,3.0957-11.1033c0.8478-2.9748,1.562-5.9875,2.3934-8.9672c0.954-3.419,1.9999-6.8123,2.9537-10.2313
			c0.8668-3.1072,1.6333-6.2424,2.4988-9.3499c1.0845-3.8934,2.3176-7.7478,3.3108-11.6636
			c0.7458-2.9406,1.5599-5.8633,2.381-8.7794c1.0632-3.7766,2.0704-7.5687,3.1423-11.3428c0.9105-3.2065,1.6976-6.4497,2.672-9.6361
			c0.9227-3.0176,1.6807-6.0775,2.5002-9.1207c0.2264-0.8406,0.6036-0.9775,1.3538-0.9735
			c4.8623,0.0257,9.7248,0.0132,14.5872,0.0132c0.4078,0,0.8157,0,1.2234,0c1.6772,0.0001,1.6581-0.0005,1.1667,1.585
			c-1.1805,3.8095-2.1583,7.6766-3.2405,11.5134c-0.9398,3.3323-1.8155,6.6828-2.7886,10.0062
			c-0.9278,3.1684-1.8181,6.3481-2.6979,9.5303c-0.5852,2.1165-1.1025,4.2518-1.6872,6.3685
			c-0.8399,3.041-1.7167,6.0719-2.5718,9.1087c-0.9636,3.4222-2.0023,6.826-2.8588,10.275
			c-0.9679,3.8975-2.1816,7.7243-3.2089,11.6047c-0.7254,2.7399-1.4653,5.4852-2.2636,8.2108
			c-0.6581,2.2471-1.332,4.4944-1.8855,6.7773c-0.524,2.1618-1.2733,4.2716-1.7302,6.4553
			c-0.1212,0.579-0.4617,0.6295-0.9479,0.6269C871.7084,148.712,868.8851,148.7196,866.0617,148.7197z"/>
		<path class="st3" d="M912.5167,128.578c-0.8267,0.411-1.3821,1.1451-2.0317,1.7559
			c-6.1646,5.7975-12.3077,11.6176-18.4573,17.4309c-0.1367,0.1292-0.2628,0.2771-0.4194,0.3758
			c-0.2775,0.175-0.4655,0.7003-0.8145,0.4971c-0.363-0.2113-0.0422-0.6477,0.0702-0.9261
			c0.7642-1.8924,1.0825-3.9086,1.6595-5.8526c0.9062-3.0538,1.6685-6.1499,2.5327-9.2166
			c1.1289-4.0063,2.3149-7.9966,3.4435-12.003c0.8569-3.0417,1.6503-6.1011,2.4943-9.1465
			c0.9634-3.4763,1.9479-6.946,2.8663-10.4354c0.8247-3.1332,1.7659-6.2367,2.6347-9.3596c0.944-3.393,1.8658-6.7923,2.8215-10.1816
			c0.9822-3.4836,1.8824-6.9921,2.924-10.4548c0.7252-2.4108,1.3118-4.8586,2.0476-7.2668
			c0.5312-1.7387,0.9794-3.5163,1.4544-5.2789c0.1152-0.4277,0.1975-0.9151,0.6516-1.2788
			c0.9235,1.8649,1.8192,3.7188,2.7542,5.5526c2.0983,4.1155,4.2118,8.2232,6.3296,12.3286
			c0.4007,0.7767,0.4996,1.7261,1.2864,2.2861c0.5469,1.7274,1.4629,3.2884,2.2568,4.9001
			c1.6937,3.4381,3.4692,6.8359,5.1976,10.257c1.6191,3.2049,3.1904,6.4345,4.8544,9.6158c0.3532,0.6753,0.266,1.0143-0.2612,1.4819
			c-1.3358,1.1848-2.6291,2.4178-3.928,3.6436c-6.0548,5.7138-12.114,11.4231-18.152,17.1547
			C915.3073,125.81,913.7678,127.0476,912.5167,128.578z"/>
		<path class="st4" d="M912.5167,128.578c1.2511-1.5305,2.7906-2.7681,4.2151-4.1203c6.038-5.7316,12.0972-11.4408,18.152-17.1547
			c1.299-1.2258,2.5923-2.4587,3.928-3.6436c0.5272-0.4676,0.6144-0.8066,0.2612-1.4819c-1.6639-3.1813-3.2352-6.4109-4.8544-9.6158
			c-1.7284-3.4212-3.5038-6.8189-5.1976-10.257c-0.7939-1.6117-1.71-3.1727-2.2568-4.9001c0.926-3.2612,1.8463-6.5234,2.699-9.8057
			c0.8719-3.3562,1.8611-6.682,2.7986-10.0212c0.0314-0.1118-0.0049-0.2745,0.1543-0.2995c0.2218-0.0349,0.335,0.1314,0.421,0.2981
			c0.5089,0.9866,1.012,1.9763,1.5177,2.9646c1.3176,2.5744,2.6478,5.1425,3.95,7.7248c1.2684,2.5155,2.5049,5.047,3.7613,7.5685
			c1.9472,3.9083,3.8408,7.8449,5.8661,11.7124c1.9357,3.6964,3.7935,7.4297,5.6358,11.1721
			c0.6113,1.2418,1.2736,2.4587,1.9277,3.6789c0.2853,0.5323,0.0355,0.8615-0.3405,1.2146
			c-3.1049,2.9164-6.1982,5.8451-9.2968,8.7683c-5.6745,5.3536-11.351,10.7051-17.0248,16.0593
			c-6.7662,6.3849-13.5289,12.7736-20.3,19.1532c-0.3979,0.3748-0.7464,0.85-1.5093,0.9539
			C908.868,141.844,910.6924,135.211,912.5167,128.578z"/>
		<path class="st2" d="M755.519,176.5874c-0.0047,0.9933-0.0114,1.9866-0.0129,2.9798c-0.0004,0.2923-0.0108,0.5689-0.3934,0.611
			c-0.6457-0.4216-1.3726-0.0763-2.048-0.2167c0-3.1434,0-6.2867,0-9.422c-0.7146,0.486-0.9859,1.4345-1.5258,2.1652
			c-1.8767,2.5399-3.677,5.1362-5.5093,7.709c-0.0862,0.1209-0.1558,0.2907-0.347,0.2707
			c-0.2257-0.0236-0.1555-0.2263-0.1989-0.3608c-0.1581-0.4901-0.3545-0.9732-0.2588-1.5067
			c0.1693-0.239,0.1189-0.4271-0.132-0.5687c-0.0309-0.1208-0.0618-0.2417-0.0926-0.3626c0.1991-0.2417,0.1623-0.4348-0.119-0.5776
			c-0.025-0.1203-0.05-0.2407-0.0751-0.361c0.1933-0.1822,0.1031-0.2996-0.0901-0.3933c-0.3585-1.1049-0.7082-2.2122-0.9061-3.3604
			c0.2439-0.2662,0.0398-0.4365-0.1313-0.614c0.0007-0.1081,0.0015-0.2162,0.0022-0.3243c0.1093-0.2565,0.0458-0.4665-0.171-0.6353
			c-0.0163-0.1023-0.0326-0.2047-0.049-0.307c0.1188-0.2445,0.0793-0.4592-0.1212-0.6435
			c-0.0192-0.0997-0.0383-0.1994-0.0576-0.2991c0.1374-0.1904,0.0704-0.3226-0.1196-0.4197
			c-0.0444,0.1313-0.0889,0.2626-0.1334,0.394c-1.2773,2.8453-2.5558,5.6902-3.8309,8.5366
			c-0.1627,0.3631-0.3081,0.7338-0.4615,1.1011c-0.4347,0.0966-0.9514-0.2468-1.3125,0.2446
			c-0.3212-0.0043-0.6423-0.0086-0.9634-0.0129c-0.0444-0.0946-0.0887-0.1892-0.1331-0.2838
			c0.6119-1.3825,1.2123-2.7701,1.8384-4.1461c0.8666-1.9043,1.7512-3.8005,2.6304-5.699c1.0353-2.2353,2.0717-4.47,3.1135-6.7022
			c0.0602-0.1291,0.1735-0.2335,0.3794-0.5029c0.3605,1.6914,0.6892,3.2299,1.0162,4.7688c0.4162,1.959,0.8307,3.9183,1.2481,5.877
			c0.0128,0.0598,0.0668,0.1124,0.0736,0.1716c0.0605,0.5297-0.1594,1.3331,0.4115,1.4545
			c0.3577,0.0761,0.6093-0.8047,0.9198-1.2467c1.1295-1.6076,2.2134-3.2471,3.3312-4.8631
			c1.3115-1.8961,2.6403-3.7801,3.9616-5.6694c0.1443,0.0093,0.2886,0.0186,0.4329,0.0278
			c-0.0359,3.5078-0.0717,7.0156-0.1075,10.5233C755.1148,174.802,755.2172,175.6925,755.519,176.5874z"/>
		<path class="st2" d="M687.9294,163.9478c2.2421,0.2029,3.5622,2.9659,3.5558,4.8834c-0.012,3.604-1.2447,6.6848-3.9224,9.083
			c-1.6174,1.4486-3.5458,2.2986-5.816,2.2446c-2.0935-0.0498-4.19,0.0237-6.2852,0.0428c-0.031-0.1522-0.0621-0.3044-0.0931-0.4567
			c1.1844-5.0014,2.3688-10.0028,3.5532-15.0043c0.242-0.0472,0.3732-0.1431,0.1697-0.386
			c0.0281-0.1191,0.0562-0.2382,0.0844-0.3572c0.2669-0.0976,0.2529-0.3292,0.2624-0.5497
			c2.1852-0.0923,4.3699-0.0865,6.5535,0.0464c0.2637,0.4303,0.6041,0.3212,0.9554,0.136c0.1823,0.0271,0.3645,0.0542,0.5468,0.0813
			C687.5684,163.9202,687.7327,163.9639,687.9294,163.9478z M685.4601,165.9991c-0.3339-0.5267-0.7339-0.3854-1.1469-0.1136
			c-0.7516-0.0158-1.5041-0.0166-2.2548-0.0521c-0.6085-0.0288-0.9746,0.0566-0.993,0.839
			c-0.0084,0.3582-0.077,0.7881-0.1744,1.1758c-0.7826,3.1122-1.5519,6.2277-2.3519,9.3354
			c-0.1183,0.4595,0.0281,0.5528,0.4322,0.5483c1.1917-0.0133,2.3984,0.1058,3.5719-0.043c2.1444-0.272,3.8267-1.4177,4.8522-3.311
			c0.878-1.621,1.2072-3.4065,1.0934-5.2809C688.3819,167.3385,687.2563,166.1208,685.4601,165.9991z"/>
		<path class="st2" d="M624.5877,168.7774c-0.6723,1.7375-0.8541,3.4787-1.2849,5.1569c-0.4868,1.8966-1.0556,3.7724-1.3277,5.7204
			c-0.0776,0.5556-0.5331,0.5664-1.0019,0.5659c-1.7273-0.0018-1.7305-0.0096-1.3162-1.7105
			c1.1031-4.5292,2.1878-9.0628,3.2908-13.592c0.1456-0.598,0.355-1.1805,0.5876-1.9435c1.308,1.1398,2.1483,2.5604,3.1469,3.8422
			c1.0228,1.3128,2.0128,2.6522,3.0651,3.9408c1.0543,1.2909,2.055,2.6182,3.0492,4.2256c0.5097-2.1837,0.9293-4.1747,1.447-6.1399
			c0.4305-1.6338,0.8218-3.2733,1.1214-4.9346c0.0645-0.3574,0.2851-0.4385,0.5847-0.4848c1.9309-0.298,2.1398-0.0559,1.6689,1.8565
			c-1.1273,4.5778-2.2399,9.1593-3.3619,13.7384c-0.1351,0.5513-0.2917,1.0973-0.4672,1.7537
			C630.7204,176.7475,627.5454,172.9353,624.5877,168.7774z"/>
		<path class="st2" d="M772.3625,180.0098c-0.6706,0.4052-1.4161,0.2339-2.1003,0.1555c-0.5974-0.0684-0.2842-0.6847-0.2266-1.0055
			c0.1785-0.9944,0.4641-1.9692,0.6971-2.9542c0.6088-2.5721,1.1368-5.1665,1.8442-7.7111
			c0.4454-1.6019,0.7526-3.2292,1.1502-4.8382c0.0621-0.2512,0.0772-0.5271,0.344-0.5978c0.3011-0.0797,0.4211,0.2252,0.5659,0.4123
			c2.0824,2.693,4.1589,5.3906,6.2346,8.0887c0.8187,1.0641,1.7076,2.0761,2.4135,3.3885c0.6675-2.8163,1.3096-5.4859,1.9288-8.1608
			c0.1887-0.8151,0.6213-1.5679,0.6151-2.4313c0.2073-0.0571,0.4194-0.1119,0.1813-0.3809
			c0.0125-0.2498,0.0169-0.5298,0.3558-0.5343c0.6712-0.009,1.3433,0.002,2.0138,0.0313c0.1202,0.0052,0.1481,0.171,0.1177,0.3007
			c-0.2117,0.0828-0.262,0.2048-0.0926,0.3803c-0.0263,0.119-0.0526,0.2381-0.0789,0.3571
			c-0.3143,0.108-0.2589,0.3703-0.2552,0.6111c-0.4185,2.8878-1.3398,5.6604-1.9716,8.5004
			c-0.5217,2.3448-1.1295,4.6756-1.7209,7.2437c-3.1086-4.0786-6.2654-7.9094-9.2853-12.0669
			c-0.3467,1.2098-0.702,2.2875-0.9603,3.3878c-0.4202,1.7897-0.7448,3.6021-1.1769,5.3887
			c-0.1629,0.6734-0.5339,1.2961-0.5133,2.0199C772.1814,179.6879,772.2746,179.8494,772.3625,180.0098z"/>
		<path class="st2" d="M829.577,166.0069c0.0466-0.9074,0.4245-1.7362,0.6187-2.6085c0.1141-0.5126,0.2758-0.4924,0.576-0.1015
			c1.3909,1.8113,2.8195,3.594,4.195,5.4167c1.5164,2.0095,3.2136,3.8849,4.5607,6.2083c0.702-1.9809,0.9644-3.9328,1.4242-5.8338
			c0.39-1.6121,0.8026-3.2191,1.1678-4.8368c0.1496-0.6624,0.5099-0.8645,1.1621-0.8602c1.525,0.01,1.5742-0.0051,1.2322,1.4291
			c-0.8048,3.3752-1.6677,6.7365-2.4936,10.1067c-0.4654,1.8991-0.9041,3.8047-1.3999,5.8981
			c-3.1671-4.1088-6.324-7.9848-9.2491-12.087c-0.4701,0.6697-0.4401,1.524-0.6368,2.3066
			c-0.4723,1.879-0.9326,3.7611-1.3856,5.6449c-0.0497,0.2064-0.0203,0.4318-0.0276,0.6484
			c-0.2479,0.4144-0.3549,0.8639-0.3359,1.345c-0.0228,0.1155-0.0457,0.231-0.0685,0.3465
			c-0.1387,0.1047-0.1824,0.239-0.1262,0.4045c-0.2104,0.8011-0.7008,0.9632-2.0899,0.782
			c-0.8234-0.1074-0.2522-0.6606-0.3656-0.9919c0.0406-0.0685,0.0812-0.137,0.1218-0.2055
			c0.0432-1.5304,0.7206-2.9163,1.0048-4.3963c0.4073-2.121,0.9609-4.214,1.452-6.3189
			C829.4724,167.6352,829.4457,166.7982,829.577,166.0069z"/>
		<path class="st2" d="M879.4716,179.4265c0.0967,0.2541,0.4416,0.6717-0.0665,0.6995c-0.8893,0.0487-1.8169,0.3432-2.6862-0.1376
			c-0.0048-0.257,0.0283-0.5354-0.3328-0.5925c-0.9587-1.962-1.9233-3.9212-2.869-5.8895
			c-0.1239-0.2579-0.2199-0.6377-0.4772-0.6359c-0.3315,0.0023-0.3959,0.3846-0.4654,0.6921
			c-0.4664,2.0655-0.9449,4.1282-1.4195,6.1918c-0.8011,0.4158-1.6571,0.1711-2.4898,0.2063
			c0.0155-0.1159,0.031-0.2318,0.0464-0.3477c0.2515-0.075,0.3318-0.1953,0.105-0.3969c0.3373-1.6165,0.6168-3.2406,1.0964-4.8316
			c0.4874-1.6169,0.7516-3.2995,1.1741-4.9378c0.4315-1.6734,0.8525-3.3478,1.1294-5.0536c0.1138-0.701,0.3521-1.0851,1.1807-1.0153
			c1.6459,0.1387,3.3177-0.182,4.952,0.2268c2.2667,0.5669,2.9913,1.7328,2.5776,4.1028c-0.3384,0.1825-0.2291,0.5015-0.2391,0.7841
			c-0.569,2.0536-1.8321,3.4355-3.9266,3.9598c-0.6271,0.157-0.7122,0.3393-0.3988,0.9283
			c0.8563,1.6092,1.6323,3.2612,2.4401,4.8962C878.9134,178.7246,879.0182,179.1768,879.4716,179.4265z M875.5145,165.9214
			c-0.1675,0.1515-0.9157-0.4319-0.9816,0.2421c-0.1184,1.2111-0.633,2.3005-0.8864,3.4667
			c-0.2351,1.0824,0.2966,0.9465,0.9116,0.9229c2.2705-0.0872,2.9857-0.6069,3.4281-2.1114
			c0.3282-1.1163,0.0599-2.2261-0.6274-2.3684C876.8251,165.9627,876.2964,165.7125,875.5145,165.9214z"/>
		<path class="st2" d="M608.4069,180.6476c-0.6931-0.1632-1.4058-0.1395-2.1124-0.2777c-1.5781-0.3088-2.9097-2.0139-2.9337-3.6982
			c-0.0316-2.2144,0.6536-4.2979,1.1405-6.4167c0.459-1.9974,0.9858-3.9796,1.4244-5.9812
			c0.1508-0.6883,0.4623-0.9376,1.1452-0.8602c0.4638,0.0525,0.9382,0.0091,1.4077,0.0158c0.4351,0.0062,0.3125,0.272,0.2317,0.515
			c-0.185,0.0691-0.2961,0.1872-0.2653,0.3995c-0.3362,2.0215-0.8344,4.0051-1.348,5.9877
			c-0.4092,1.5797-0.8618,3.1614-0.892,4.8113c-0.0317,1.7273,0.3887,2.304,2.0241,2.8902
			c0.1492,0.2817,0.3434,0.3173,0.5828,0.1069c0.4462-0.0029,0.8924-0.0059,1.3386-0.0088
			c0.2474,0.2187,0.4409,0.1799,0.5795-0.1213c2.5531-0.584,3.4253-2.6255,3.9041-4.8095c0.6656-3.0368,1.6669-5.9941,2.1212-9.0785
			c0.0776-0.5268,0.3567-0.7247,0.9395-0.717c1.9809,0.0262,1.9608-0.0085,1.4953,1.947c-0.5971,2.5086-1.0898,5.044-1.7555,7.5336
			c-0.4963,1.8559-1.0196,3.7489-2.3225,5.2485c-0.7712,0.8876-1.7074,1.5289-2.8954,1.8895
			c-1.0475,0.318-2.0793,0.571-3.1641,0.6384C608.8394,180.5661,608.6245,180.5479,608.4069,180.6476z"/>
		<path class="st2" d="M918.6882,165.5039c-3.5754,0.4234-5.8392,2.4836-6.9723,5.79c-0.5382,1.5704-0.6725,3.2331,0.2764,4.7587
			c1.3292,2.1369,3.3503,2.294,5.4109,1.9144c1.4625-0.2694,2.7525-1.0331,4.1453-1.8475c-0.1164,1.0681-0.4856,1.9485-0.73,2.8575
			c-0.0621,0.2306-0.2308,0.3372-0.4484,0.428c-1.6819,0.7015-3.3653,1.4253-5.2394,1.3212
			c-3.7478-0.2082-6.593-2.6065-6.6317-6.6424c-0.0436-4.5387,3.7216-9.1421,7.6054-10.4118
			c1.9666-0.6429,3.945-0.9407,5.9797-0.2644c0.7012,0.2331,1.3401,0.5654,1.9714,0.9318c0.4614,0.2678,0.3879,0.7147,0.2952,1.0851
			c-0.1626,0.6502-0.3614,1.3029-0.7726,1.8882c-0.8274-0.7201-1.7127-1.2874-2.7701-1.5388
			c-0.0424-0.2518-0.1475-0.3627-0.3867-0.1718c-0.2457-0.0265-0.4913-0.0531-0.7369-0.0796
			C919.3589,165.1744,919.0266,165.1802,918.6882,165.5039z"/>
		<path class="st2" d="M937.1512,163.5964c-0.411,2.1014-0.411,2.0996-2.4634,2.1021c-1.2847,0.0015-2.5695,0.0209-3.8539,0.0085
			c-0.4698-0.0045-0.7305,0.1039-0.8372,0.6371c-0.193,0.965-0.481,1.912-0.751,2.8603c-0.1556,0.5465-0.035,0.757,0.5856,0.743
			c1.6912-0.0383,3.3848,0.0205,5.0754-0.0291c0.6843-0.0201,0.676,0.2556,0.5305,0.7504
			c-0.4806,1.6341-0.4756,1.6356-2.2355,1.6356c-1.0967,0-2.1934,0-3.2901,0c-1.4777,0.0001-1.4777,0.0001-1.6711,1.434
			c-0.321,0.1189-0.3705,0.3116-0.1563,0.5758c-0.0304,0.1189-0.0608,0.2379-0.0911,0.3568
			c-0.1975,0.0872-0.3102,0.1974-0.1073,0.3937c-0.0283,0.12-0.0565,0.24-0.0848,0.36c-0.29,0.1633-0.2631,0.4093-0.1754,0.6712
			c-0.1175,0.5069-0.235,1.0137-0.3807,1.6423c1.8334,0,3.6328,0.0358,5.4297-0.0152c0.894-0.0254,1.1442,0.239,0.7624,1.0651
			c-0.1016,0.2199-0.1671,0.4792-0.1654,0.7199c0.0045,0.6682-0.3889,0.7166-0.9208,0.7127
			c-2.476-0.0184-4.9525-0.0276-7.4282,0.0042c-0.6813,0.0088-0.8778-0.1757-0.7165-0.8578
			c0.8206-3.4696,1.5579-6.9598,2.4349-10.4147c0.4068-1.6025,0.7985-3.2047,1.1403-4.8214
			c0.0869-0.4111,0.1928-0.7694,0.8265-0.7563c2.7881,0.0577,5.5778,0.0386,8.3669,0.0473
			C937.0336,163.48,937.0924,163.5382,937.1512,163.5964z"/>
		<path class="st2" d="M766.5924,180.1546c-2.7729,0.0188-5.546,0.0314-8.3188,0.06c-0.9011,0.0093-0.4179-0.6062-0.4715-0.9823
			c0.2428-0.0629,0.405-0.1531,0.1327-0.3908c0.1571-1.3415,0.6005-2.615,0.9181-3.9189c0.7816-3.2093,1.5236-6.4283,2.2704-9.6459
			c0.1115-0.4805,0.3901-0.9103,0.3902-1.4247c0.0001-0.3737,0.2817-0.452,0.5852-0.4524c2.723-0.0033,5.446-0.002,8.1689-0.0035
			c0.3903-0.0002,0.5342,0.0638,0.4025,0.5484c-0.4742,1.7456-0.4453,1.7481-2.2707,1.7552
			c-1.47,0.0057-2.9398,0.0264-4.4097,0.0405c-0.28-0.0812-0.4293-0.003-0.3829,0.3139c-0.2143,1.0236-0.348,2.0733-0.6681,3.0627
			c-0.2598,0.803,0.0778,0.8312,0.6859,0.8241c1.5979-0.0187,3.1971,0.0253,4.7938-0.0218
			c0.6286-0.0186,0.7286,0.1945,0.6262,0.7443c-0.3052,1.6389-0.2929,1.6404-1.9667,1.6414
			c-1.4101,0.0008-2.821,0.0326-4.2299-0.0089c-0.5578-0.0164-0.8051,0.2033-0.8857,0.7039
			c-0.2536,1.5746-0.7487,3.0907-1.1721,4.7386c1.7982,0,3.5466-0.0001,5.295,0c1.3092,0.0001,1.3092,0.0002,0.9917,1.2699
			c-0.2307,0.0715-0.3494,0.1784-0.124,0.3936c-0.0207,0.1199-0.0414,0.2398-0.0621,0.3597
			C766.6812,179.8088,766.5955,179.9504,766.5924,180.1546z"/>
		<path class="st2" d="M860.3409,163.5756c0.2161-0.2645,0.5183-0.1759,0.7888-0.1766c2.5081-0.0061,5.0161,0.0044,7.5242-0.0092
			c0.6126-0.0033,0.9263,0.0015,0.6285,0.8174c-0.5344,1.4641-0.462,1.4905-1.9899,1.4905c-1.3794,0-2.759,0.0135-4.1382-0.0065
			c-0.5605-0.0081-0.851,0.1784-0.9484,0.7701c-0.1555,0.9446-0.3535,1.8875-0.6163,2.8074
			c-0.1808,0.6331,0.0936,0.6761,0.5892,0.6713c1.6301-0.0159,3.2605,0.0006,4.8906-0.0094
			c0.5777-0.0035,1.0712,0.0128,0.6403,0.8042c-0.0542,0.0995-0.0119,0.2476-0.0317,0.3703
			c-0.1396,0.8681-0.5223,1.3003-1.5296,1.2271c-1.4969-0.1088-3.0082-0.0052-4.5122-0.0396
			c-0.5862-0.0134-0.9306,0.1163-1.0353,0.7575c-0.2122,1.2999-0.4991,2.5822-0.9579,3.827
			c-0.1931,0.524-0.1237,0.9191,0.6824,0.8834c1.6896-0.0748,3.3849-0.0176,5.0778-0.0259c0.4469-0.0022,0.65-0.0103,0.4905,0.612
			c-0.4752,1.8529-0.4254,1.866-2.3574,1.8656c-2.3199-0.0005-4.64-0.0016-6.9599-0.0025
			c-0.0526-0.1434-0.1052-0.2868-0.1578-0.4303c1.1278-4.8913,2.1896-9.7985,3.5223-14.6407
			c0.1214-0.4413,0.1783-0.9003,0.2653-1.3512C860.2511,163.7171,860.296,163.6464,860.3409,163.5756z"/>
		<path class="st2" d="M672.6174,178.2699c-0.0229,0.1197-0.0458,0.2394-0.0687,0.3591c-0.1999,0.07-0.3126,0.1949-0.2648,0.4207
			c0.061,0.849-0.2471,1.2094-1.1812,1.1844c-2.4141-0.0646-4.8313-0.0423-7.2466-0.009c-0.6988,0.0096-0.8163-0.1624-0.6658-0.8539
			c0.7764-3.569,1.6287-7.1177,2.5721-10.6464c0.3968-1.4841,0.7214-2.9906,1.0031-4.501c0.1271-0.6818,0.4548-0.8447,1.085-0.8385
			c2.5096,0.0246,5.02,0.0307,7.5295-0.0035c0.6598-0.009,0.8008,0.192,0.6686,0.8084c-0.3225,1.5034-0.303,1.5069-1.8318,1.5078
			c-1.4432,0.0009-2.8865-0.0052-4.3295,0.0125c-0.3152,0.0039-0.7413-0.1167-0.8254,0.3902
			c-0.1709,1.0307-0.6302,1.9849-0.7639,3.0304c-0.0798,0.6238,0.0717,0.8274,0.7197,0.8109
			c1.5676-0.0401,3.137-0.0094,4.7057-0.0078c0.519,0.0005,0.964-0.1394,0.6738,0.777c-0.4942,1.5605-0.3915,1.593-1.9541,1.593
			c-1.3804,0-2.7612,0.0151-4.1412-0.0084c-0.4647-0.0079-0.7067,0.1066-0.8909,0.5887c-0.5499,1.4387-0.6573,2.981-1.1206,4.4384
			c-0.1671,0.5253,0.3288,0.4062,0.6003,0.4091c1.8504,0.0199,3.701,0.0243,5.5515,0.0337
			C672.4604,177.9477,672.4406,178.143,672.6174,178.2699z"/>
		<path class="st2" d="M720.6893,165.2836c0.0212,0.1148,0.0425,0.2296,0.0637,0.3443c-0.0753,0.3189-0.0631,0.6183,0.1924,0.8636
			c0.0209,0.1001,0.0418,0.2003,0.0627,0.3004c-0.1278,0.1363-0.0629,0.2579,0.0286,0.3776
			c0.6526,3.0652,1.3055,6.1303,1.9575,9.1956c0.1079,0.5075,0.2112,1.0159,0.3167,1.5239c-0.0781,0.242-0.0056,0.4306,0.2028,0.571
			c0.0195,0.1151,0.0391,0.2302,0.0587,0.3453c-0.0659,0.1671-0.041,0.3077,0.1193,0.4088c0.2287,0.744,0.013,1.0925-0.8198,1.0086
			c-0.5479-0.0552-1.1055-0.0124-1.6588-0.0135c-0.0757-0.0777-0.1515-0.1553-0.2272-0.233c-0.293-1.1647-0.587-2.3322-0.684-3.531
			c-0.0376-0.465-0.2371-0.5818-0.6469-0.5791c-1.8174,0.0122-3.6349,0.0133-5.4525,0.0156
			c-0.4052,0.0005-0.6623,0.1543-0.8978,0.5247c-0.6268,0.9859-1.4238,1.8736-1.9691,2.8982
			c-0.4346,0.8164-1.0034,0.9888-1.8032,0.9121c-0.373-0.0357-0.7501-0.0274-1.1254-0.039
			c-0.0131-0.1538-0.0264-0.3076-0.0396-0.4615c1.8436-2.989,3.9796-5.7776,5.952-8.6782c1.6237-2.3877,3.2538-4.7711,4.8817-7.1561
			c0.0352-0.0515,0.0734-0.1018,0.1157-0.1476c0.2045-0.222,0.3035-0.6909,0.6225-0.6163c0.3128,0.0732,0.3708,0.4974,0.3635,0.8397
			c-0.0543,0.1903,0.0887,0.2792,0.1981,0.3853c0.0129,0.1166,0.0257,0.2332,0.0385,0.3499
			C720.4727,164.9194,720.4924,165.124,720.6893,165.2836z M719.5524,172.2952c0.1243-0.2003,0.0596-0.3617-0.1036-0.5029
			c-0.0389-0.2233-0.0778-0.4467-0.1168-0.67c0.1576-0.1977,0.0528-0.3265-0.1153-0.4386c-0.0864-0.5784-0.1719-1.157-0.2599-1.7351
			c-0.03-0.1976,0.1127-0.4966-0.157-0.5618c-0.3139-0.0759-0.3546,0.2477-0.4755,0.46c-0.4404,0.7733-0.8938,1.5328-1.434,2.2517
			c-0.5593,0.7443-1.1749,1.4853-1.5018,2.4582c0.2756,0.0175,0.4857,0.0416,0.6958,0.0423
			c1.0621,0.0034,2.1245-0.0101,3.1863,0.0052c0.4441,0.0064,0.5381-0.1963,0.4434-0.5787
			C719.6541,172.7835,719.6058,172.5387,719.5524,172.2952z"/>
		<path class="st2" d="M902.6755,163.0406c0.8928,4.3887,1.7631,8.7822,2.6939,13.1628c0.2422,1.1397,0.5783,2.261,0.824,3.4044
			c0.1129,0.525-0.0479,0.6166-0.479,0.6039c-0.0313-0.0009-0.0627-0.001-0.0941,0.0005c-2.2438,0.1075-2.4183-0.083-2.7099-2.9594
			c-0.1404-1.3851-0.1404-1.3852-1.5369-1.3853c-1.2545-0.0001-2.5172,0.0884-3.7611-0.0266
			c-1.0929-0.101-1.7445,0.3406-2.2819,1.2038c-0.5521,0.8869-1.1566,1.7422-1.7585,2.5969
			c-0.3289,0.467-2.2945,0.8473-2.7297,0.5228c-0.3656-0.2727,0.0046-0.4976,0.1332-0.6931
			c0.9016-1.371,1.8062-2.7405,2.7407-4.0891c1.4177-2.0459,2.8672-4.0697,4.2905-6.1118c1.3456-1.9307,2.6744-3.8731,4.0115-5.8098
			c0.1227-0.1777,0.2514-0.3515,0.3773-0.5271C902.4888,162.9693,902.5822,163.005,902.6755,163.0406z M901.8065,170.7393
			c0.244-0.2869,0.0023-0.321-0.1965-0.3774c-0.0982-0.6844-0.1964-1.3688-0.2946-2.0532c-1.0806,1.8085-2.319,3.4305-3.5356,5.0672
			c-0.1813,0.1161-0.1418,0.1719,0.0508,0.1859c0.8065,0.0131,1.6134,0.0471,2.4194,0.0325
			c0.6462-0.0117,1.4812,0.2814,1.887-0.1338c0.3899-0.399-0.1905-1.1566-0.153-1.7781c0.2323-0.2065,0.1028-0.3123-0.11-0.3948
			C901.8514,171.1048,901.8289,170.922,901.8065,170.7393z"/>
		<path class="st2" d="M802.4689,168.2666c0.0201-0.1779,0.0403-0.3559,0.0604-0.5339c0.1612-0.1155,0.1406-0.242,0.0229-0.3745
			c1.0909-3.165,3.9503-4.5107,6.2255-4.3313c1.3794,0.1088,2.8087,0.2338,3.558,1.7194c0.3127,0.6199,0.3237,1.1199-0.4118,1.4253
			c-0.3099,0.1287-0.6135,0.2726-0.9207,0.408c-0.4201,0.1851-0.7087,0.2518-1.0207-0.293
			c-0.605-1.0567-2.9798-1.2332-4.0635,0.1902c-0.832,1.0927-0.73,2.0507,0.3096,2.9832c0.9067,0.8133,2.044,1.251,3.0134,1.9662
			c1.4629,1.0793,1.9346,2.1491,1.5717,3.9155c-0.6216,3.0247-2.7986,4.9479-6.0129,5.2369
			c-1.5431,0.1387-2.8616,0.0128-4.0025-1.1071c-0.4162-0.4086-0.6591-0.8946-0.8192-1.4215
			c-0.1235-0.4062-0.2672-0.9808,0.0839-1.223c0.5737-0.3959,1.2405-0.7168,1.9631-0.7932
			c0.1781-0.0188,0.2634,0.2083,0.3264,0.4002c0.5149,1.568,2.1229,2.1357,3.982,1.4173c1.2345-0.477,2.0172-2.2866,1.4792-3.5051
			c-0.2926-0.6628-0.9322-0.972-1.5303-1.3106c-1.3831-0.783-2.758-1.5788-3.5868-3.0209c0.0369-0.1682-0.0181-0.2995-0.1595-0.3959
			c-0.023-0.1777-0.046-0.3554-0.069-0.533C802.5458,168.8128,802.5511,168.5397,802.4689,168.2666z"/>
		<path class="st2" d="M699.4348,179.1757c0.6588-3.1538,1.4344-6.2787,2.262-9.3927c0.505-1.9004,0.7164-3.8712,1.3873-5.7386
			c0.1663-0.4628,0.3136-0.6796,0.8173-0.6551c1.8999,0.0926,3.8066-0.1403,5.7049,0.2076
			c1.3613,0.2494,2.2568,1.0588,2.3809,2.4408c0.2632,2.9291-1.2873,5.602-4.3345,6.5361c-0.6621,0.203-1.4295,0.0579-2.148,0.0833
			c-0.6235,0.0221-1.2465,0.0587-1.8696,0.089c-0.2552,0.0725-0.279,0.2571-0.2308,0.4766
			c-0.0206,0.116-0.0411,0.2319-0.0617,0.3479c-0.1257,0.098-0.2297,0.206-0.1769,0.3859
			c-0.4228,1.7124-0.8328,3.4282-1.2787,5.1346c-0.0951,0.364,0.1522,0.9642-0.3669,1.0539
			c-0.6622,0.1145-1.3636,0.0601-2.0411-0.0002c-0.2823-0.0251-0.1503-0.3513-0.1439-0.5561
			C699.4971,179.4822,699.5134,179.3404,699.4348,179.1757z M705.7921,170.3756c0.7438,0.1201,1.5495-0.1686,2.3082-0.5989
			c0.792-0.4492,1.3338-1.9747,1.0221-2.8898c-0.324-0.9513-1.1476-1.0399-1.9802-1.0475c-1.8702-0.0171-1.868-0.0093-2.3054,1.8519
			c-0.1048,0.4461-0.2455,0.8841-0.3418,1.3319C704.1968,170.4096,704.202,170.4107,705.7921,170.3756z"/>
		<path class="st2" d="M885.8023,172.8332c-0.3508,1.4379-0.7086,2.8741-1.0497,4.3143c-0.1773,0.7483-0.3965,1.4972-0.4651,2.2577
			c-0.0605,0.6694-0.3494,0.8142-0.9577,0.8231c-1.7774,0.026-1.7906,0.0472-1.5317-1.6454c0.3259-2.1305,1.0203-4.1748,1.4993-6.27
			c0.6278-2.7459,1.283-5.4857,1.882-8.2377c0.1001-0.4601,0.2752-0.6746,0.7142-0.6754c2.7269-0.0047,5.4537,0.0002,8.1806-0.007
			c0.4122-0.0011,0.5223,0.1214,0.4547,0.5603c-0.2685,1.7418-0.2498,1.7447-2.0273,1.7447c-1.3791,0-2.7585,0.0161-4.1371-0.0084
			c-0.4996-0.0089-0.7703,0.1094-0.9577,0.6382c-0.3704,1.0448-0.3867,2.1666-0.8047,3.2025
			c-0.1728,0.4284,0.3276,0.3415,0.5646,0.3444c1.6296,0.0197,3.2623,0.0787,4.8882,0.0029c0.97-0.0452,0.9347,0.311,0.8145,1.0855
			c-0.1665,1.0725-0.6023,1.435-1.7113,1.3632c-1.6531-0.107-3.3195-0.0116-4.9801-0.0022
			C885.8322,172.3312,885.699,172.4951,885.8023,172.8332z"/>
		<path class="st2" d="M653.0515,163.3958c1.285,0,2.5701,0.0107,3.8548-0.0057c0.4663-0.006,0.6273,0.0519,0.5331,0.6215
			c-0.0867,0.5237-0.4464,0.9266-0.4588,1.4817c-0.007,0.3113-0.4694,0.1972-0.7322,0.1989
			c-1.6296,0.0107-3.2604,0.0394-4.8885-0.0116c-0.6276-0.0196-0.9202,0.2256-1.053,0.7778
			c-0.2143,0.8913-0.4186,1.7851-0.6395,2.6747c-0.1389,0.5594,0.0582,0.7643,0.6359,0.7577
			c1.6294-0.0186,3.2592,0.0044,4.8888,0.0084c0.5352,0.0013,0.8944-0.052,0.5621,0.7641
			c-0.6518,1.6007-0.5735,1.6325-2.2686,1.6326c-1.285,0.0001-2.5701,0.0136-3.8547-0.007
			c-0.4304-0.0069-0.629,0.1027-0.7954,0.5552c-0.6939,1.8872-0.9813,3.8672-1.3955,5.8154
			c-0.2771,1.3033-1.4658,2.0079-2.7176,1.4688c-0.27-0.1163-0.3575-0.318-0.2875-0.6024
			c1.2436-5.0568,2.5096-10.1084,3.7029-15.177c0.1856-0.7883,0.5111-0.9939,1.2476-0.9661
			C650.6057,163.429,651.8293,163.3954,653.0515,163.3958z"/>
		<path class="st2" d="M731.4099,170.2234c1.7175-1.9634,3.416-3.879,5.0833-5.8213c0.9255-1.0781,1.6402-1.2967,3.239-0.8209
			c-1.3571,1.8784-2.937,3.5362-4.4012,5.2869c-0.949,1.1345-1.9794,2.2009-2.9337,3.3312
			c-0.2465,0.2919-0.3668,0.6892-0.4586,1.0918c-0.4718,2.0699-1.0054,4.1258-1.4629,6.1987
			c-0.1163,0.5271-0.2975,0.7245-0.8493,0.7354c-1.9854,0.039-2.0695-0.0404-1.5511-2.0572
			c0.4277-1.664,0.9265-3.3088,1.2587-4.9988c0.0855-0.4349,0.092-0.812-0.0568-1.2135c-0.8871-2.3951-1.7714-4.7912-2.6539-7.188
			c-0.0855-0.2323-0.1509-0.472-0.2276-0.7075c-0.1487-0.4562-0.0646-0.7365,0.4957-0.6652
			c0.0617,0.0079,0.1253,0.0016,0.188,0.0004c1.8202-0.0334,1.7092,0.0169,2.4745,1.7035
			C730.3095,166.7633,730.6744,168.5573,731.4099,170.2234z"/>
		<path class="st2" d="M790.3223,164.9131c0.0363-0.18,0.0726-0.36,0.1089-0.54c0.2136-0.0841,0.3247-0.1959,0.1066-0.3961
			c-0.0325-0.4584,0.2083-0.5869,0.6324-0.5858c3.4188,0.009,6.8375,0.0094,10.2563-0.0002
			c0.4803-0.0014,0.634,0.1689,0.4525,0.6188c-0.0117,0.0289-0.0159,0.0607-0.0252,0.0906
			c-0.4977,1.5976-0.4981,1.5757-2.2781,1.6072c-0.8379,0.0148-1.8445-0.3457-2.4692,0.1814
			c-0.5588,0.4716-0.4305,1.4785-0.6144,2.2473c-0.7145,2.986-1.5306,5.9478-2.0914,8.9704
			c-0.0881,0.4749-0.3641,0.9125-0.4792,1.3853c-0.4581,1.8826-0.4569,1.8826-2.3269,1.7278
			c-0.3851-0.0319-0.5211-0.1185-0.5342-0.5492c-0.0196-0.6448,0.2577-1.1967,0.3973-1.7884
			c0.8587-3.6383,1.7188-7.2764,2.6185-10.9046c0.3203-1.2915,0.3714-1.2789-0.9579-1.2796
			c-0.7527-0.0004-1.506,0.0145-2.2581-0.0087c-0.2661-0.0082-0.693,0.1575-0.6547-0.3939
			C790.4384,165.2271,790.5131,165.1106,790.3223,164.9131z"/>
		<path class="st2" d="M850.6382,166.2448c0.0508-0.5941-0.3701-0.5086-0.7435-0.5386c-1.146-0.0918-2.3057,0.1604-3.4424-0.141
			c-0.0001,0.0002,0.0071-0.0079,0.0071-0.0079c0.0045-0.1479,0.0089-0.2959,0.0134-0.4438
			c0.2231-0.0673,0.4089-0.1478,0.1375-0.3896c0.0056-0.1867,0.0111-0.3733,0.0167-0.56c0.4402-0.0866,0.3472-0.4384,0.3655-0.7348
			c3.5422-0.0111,7.0845-0.0202,10.6268-0.0361c0.4429-0.002,0.6527-0.0018,0.4961,0.6127c-0.428,1.6792-0.3775,1.692-2.1255,1.692
			c-0.1882,0-0.3763,0-0.5644,0c-2.0695,0-2.0912-0.0052-2.5507,1.9364c-0.5506,2.3267-0.9686,4.6888-1.6157,6.9874
			c-0.4821,1.7124-0.8195,3.4507-1.2305,5.175c-0.0758,0.3179-0.2242,0.4131-0.5078,0.4127
			c-0.5016-0.0006-1.005-0.0238-1.5046,0.0091c-0.6484,0.0426-0.774-0.2438-0.5661-0.7911
			c0.2281-0.0727,0.3475-0.1794,0.1229-0.3936c0.0058-0.1233,0.0117-0.2467,0.0175-0.37c0.246-0.0737,0.4203-0.1672,0.1091-0.3949
			c0.5475-2.3864,1.0805-4.7763,1.6486-7.1578c0.2689-1.1273,0.605-2.2386,0.9106-3.3571c0.3262-0.1216,0.3736-0.3144,0.1474-0.577
			c0.028-0.1189,0.056-0.2378,0.0839-0.3568C850.7777,166.6896,850.8204,166.4961,850.6382,166.2448z"/>
		<path class="st2" d="M640.4725,180.1715c-0.4374,0.0137-0.8748,0.0377-1.3122,0.0391c-1.341,0.0044-1.3609-0.0039-1.0318-1.3734
			c0.8577-3.5692,1.7462-7.131,2.5975-10.7017c0.3266-1.3697,0.5405-2.7627,0.9974-4.1058c0.1671-0.491,0.377-0.6453,0.8525-0.6121
			c0.6218,0.0435,1.4245-0.1755,1.8144,0.1366c0.3232,0.2587-0.2554,1.0171-0.3631,1.5761
			c-0.3015,1.5661-0.5421,3.1537-0.9858,4.6808c-0.9125,3.1396-1.475,6.363-2.3726,9.504
			c-0.0416,0.1455-0.0112,0.3115-0.0143,0.4679C640.4777,179.8581,640.4747,180.0146,640.4725,180.1715z"/>
		<path class="st2" d="M660.433,163.9748c-0.0027-0.3176,0.0811-0.554,0.467-0.5493c0.6568,0.0079,1.4701-0.2349,1.9329,0.0657
			c0.6469,0.4201-0.0704,1.118-0.1764,1.6934c-0.5166,2.8053-1.3931,5.5307-1.9529,8.3203
			c-0.4121,2.0537-1.0986,4.0328-1.4502,6.0943c-0.1509,0.1125-0.172,0.2614-0.1202,0.4305
			c-0.7318,0.3755-1.5209,0.2132-2.2605,0.1289c-0.5552-0.0633-0.108-0.6114-0.184-0.9293c0.2195-0.07,0.4149-0.1483,0.134-0.3901
			c-0.0178-0.5669,0.207-1.0778,0.3391-1.6147c1.0536-4.2838,2.0656-8.5778,3.0903-12.8687
			C660.4599,164.2988,660.6711,164.2434,660.433,163.9748z"/>
		<path class="st2" d="M823.8439,163.4642c0.1555-0.0136,0.3107-0.0369,0.4663-0.0392c2.0912-0.0311,2.0421-0.0428,1.5157,2.0324
			c-0.9188,3.6222-1.85,7.2416-2.6006,10.906c-0.2325,1.1347-0.5803,2.2532-0.8185,3.3932
			c-0.8881,0.3399-1.7806,0.3467-2.6772,0.035c0.6817-2.9093,1.3598-5.8194,2.0463-8.7275
			c0.4987-2.1124,1.0087-4.2222,1.5136-6.3331c0.1952-0.0569,0.4419-0.0863,0.2009-0.3761
			c0.0301-0.1192,0.0602-0.2383,0.0903-0.3574C823.8282,163.8986,823.8318,163.6793,823.8439,163.4642z"/>
		<path class="st2" d="M819.7294,179.7915c0.8966,0.3117,1.7891,0.3049,2.6772-0.035c0.0206,0.3945-0.2321,0.5722-0.5621,0.588
			c-0.6208,0.0297-1.2466,0.0358-1.8657-0.01C819.7028,180.3141,819.3132,180.1997,819.7294,179.7915z"/>
		<path class="st5" d="M957.5696,60.9223c0-0.8847,0-1.7694,0-2.6542c0.0549,0.001,0.1097,0.002,0.1646,0.003
			c0,0.8847,0,1.7694,0,2.6542C957.6793,60.9243,957.6245,60.9233,957.5696,60.9223z"/>
		<path class="st2" d="M868.6653,179.9608c0.8327-0.0352,1.6887,0.2095,2.4898-0.2063c-0.0295,0.6405-0.5122,0.6753-0.9329,0.5836
			C869.7028,180.2248,869.0049,180.7902,868.6653,179.9608z"/>
		<path class="st2" d="M755.519,176.5874c-0.3019-0.8949-0.4042-1.7854,0.0579-2.6636
			C755.6639,174.814,755.7067,175.7032,755.519,176.5874z"/>
		<path class="st2" d="M753.0648,179.9615c0.6755,0.1404,1.4023-0.2049,2.048,0.2167c-0.6385,0.3672-1.3132,0.1466-1.9741,0.1052
			C753.1074,180.2815,753.0891,180.0735,753.0648,179.9615z"/>
		<path class="st2" d="M879.4716,179.4265c-0.4534-0.2497-0.5582-0.7019-0.6691-1.1507
			C879.1339,178.5964,879.3132,179.0054,879.4716,179.4265z"/>
		<path class="st5" d="M686.9471,163.6302c-0.3513,0.1852-0.6918,0.2943-0.9554-0.136
			C686.3267,163.4235,686.6506,163.4301,686.9471,163.6302z"/>
		<path class="st5" d="M918.6882,165.5039c0.3384-0.3237,0.6707-0.3296,0.9965,0.0187
			C919.3505,165.619,919.0182,165.6199,918.6882,165.5039z"/>
		<path class="st5" d="M880.6879,168.4915c0.01-0.2826-0.0993-0.6016,0.2391-0.7841
			C881.0081,168.0178,880.9542,168.287,880.6879,168.4915z"/>
		<path class="st2" d="M610.7301,178.0098c-0.1385,0.3012-0.3321,0.34-0.5795,0.1213
			C610.321,177.9817,610.5176,177.9576,610.7301,178.0098z"/>
		<path class="st2" d="M745.093,178.2482c0.2509,0.1416,0.3012,0.3297,0.132,0.5687
			C745.0536,178.657,745.007,178.468,745.093,178.2482z"/>
		<path class="st5" d="M823.8439,163.4642c-0.0121,0.2151-0.0156,0.4345-0.2634,0.5332
			C823.519,163.7459,823.4839,163.5075,823.8439,163.4642z"/>
		<path class="st5" d="M846.9926,163.4291c-0.0183,0.2964,0.0747,0.6482-0.3655,0.7348
			C846.6272,163.8585,846.6673,163.5729,846.9926,163.4291z"/>
		<path class="st5" d="M850.6382,166.2448c0.1822,0.2513,0.1395,0.4447-0.1479,0.5753
			C850.4276,166.5995,850.4717,166.4064,850.6382,166.2448z"/>
		<path class="st5" d="M850.4064,167.1768c0.2262,0.2626,0.1788,0.4554-0.1474,0.577
			C850.2128,167.5372,850.2464,167.3409,850.4064,167.1768z"/>
		<path class="st2" d="M928.084,174.3141c-0.2142-0.2642-0.1647-0.4569,0.1563-0.5758
			C928.2924,173.9584,928.2209,174.1452,928.084,174.3141z"/>
		<path class="st2" d="M927.6255,176.0959c-0.0878-0.2619-0.1146-0.508,0.1754-0.6712
			C927.8843,175.6854,927.8104,175.9051,927.6255,176.0959z"/>
		<path class="st2" d="M744.8814,177.3081c0.2813,0.1428,0.3181,0.3359,0.119,0.5776
			C744.8263,177.7208,744.8038,177.5247,744.8814,177.3081z"/>
		<path class="st2" d="M672.6174,178.2699c-0.1768-0.1269-0.157-0.3221-0.1754-0.5041
			C672.9803,177.767,672.7735,178.0272,672.6174,178.2699z"/>
		<path class="st2" d="M608.812,178.1399c-0.2394,0.2104-0.4337,0.1748-0.5828-0.1069
			C608.4404,177.9762,608.6362,178.0035,608.812,178.1399z"/>
		<path class="st2" d="M876.3862,179.3959c0.361,0.0571,0.3279,0.3355,0.3328,0.5925
			C876.459,179.8745,876.4194,179.637,876.3862,179.3959z"/>
		<path class="st5" d="M788.0709,165.1212c-0.0037-0.2408-0.0591-0.5031,0.2552-0.6111
			C788.3635,164.7649,788.3245,164.9879,788.0709,165.1212z"/>
		<path class="st5" d="M679.4381,163.4477c-0.0095,0.2205,0.0045,0.4521-0.2624,0.5497
			C679.1312,163.7512,679.1132,163.5176,679.4381,163.4477z"/>
		<path class="st5" d="M687.9294,163.9478c-0.1967,0.0162-0.361-0.0275-0.4355-0.2363
			C687.7334,163.6163,687.8573,163.7343,687.9294,163.9478z"/>
		<path class="st5" d="M920.4215,165.6022c0.2392-0.1909,0.3442-0.0801,0.3867,0.1718
			C920.6793,165.7167,920.5504,165.6595,920.4215,165.6022z"/>
		<path class="st5" d="M679.0914,164.3546c0.2034,0.2429,0.0723,0.3388-0.1697,0.386
			C678.9782,164.612,679.0348,164.4833,679.0914,164.3546z"/>
		<path class="st2" d="M927.8856,175.0646c-0.2029-0.1963-0.0902-0.3065,0.1073-0.3937
			C928.0626,174.8308,928.0148,174.9588,927.8856,175.0646z"/>
		<path class="st5" d="M790.5377,163.9769c0.2181,0.2003,0.107,0.312-0.1066,0.3961
			C790.3703,164.2151,790.4109,164.0844,790.5377,163.9769z"/>
		<path class="st2" d="M744.7162,176.5537c0.1932,0.0938,0.2834,0.2111,0.0901,0.3933
			C744.7042,176.8324,744.6542,176.7059,744.7162,176.5537z"/>
		<path class="st5" d="M786.0103,163.975c0.2381,0.2691,0.026,0.3239-0.1813,0.3809
			C785.7621,164.1683,785.9174,164.0865,786.0103,163.975z"/>
		<path class="st5" d="M790.3223,164.9131c0.1908,0.1975,0.1161,0.314-0.1167,0.3822
			C790.1436,165.1371,790.1927,165.0128,790.3223,164.9131z"/>
		<path class="st5" d="M846.6104,164.7239c0.2714,0.2418,0.0856,0.3223-0.1375,0.3896
			C846.3934,164.9394,846.3861,164.7908,846.6104,164.7239z"/>
		<path class="st2" d="M757.9348,178.8414c0.2723,0.2377,0.1101,0.3279-0.1327,0.3908
			C757.7299,179.0624,757.708,178.9097,757.9348,178.8414z"/>
		<path class="st2" d="M847.6998,178.2688c0.3112,0.2276,0.1368,0.3212-0.1091,0.3949
			C847.5307,178.5054,847.5031,178.3562,847.6998,178.2688z"/>
		<path class="st5" d="M660.433,163.9748c0.238,0.2686,0.0269,0.3239-0.1809,0.3809
			C660.1859,164.1687,660.3403,164.0864,660.433,163.9748z"/>
		<path class="st2" d="M672.2839,179.0497c-0.0477-0.2258,0.0649-0.3507,0.2648-0.4207
			C672.6555,178.8919,672.4326,178.9475,672.2839,179.0497z"/>
		<path class="st2" d="M656.8228,178.8392c0.2809,0.2418,0.0856,0.3201-0.134,0.3901
			C656.6168,179.0592,656.6032,178.9092,656.8228,178.8392z"/>
		<path class="st2" d="M766.9529,179.4016c-0.2254-0.2152-0.1067-0.322,0.124-0.3936
			C767.1207,179.166,767.0683,179.2937,766.9529,179.4016z"/>
		<path class="st2" d="M847.5732,179.0337c0.2246,0.2141,0.1052,0.3208-0.1229,0.3936
			C847.3957,179.2662,847.4429,179.137,847.5732,179.0337z"/>
		<path class="st5" d="M823.4902,164.3548c0.241,0.2898-0.0057,0.3192-0.2009,0.3761
			C823.2435,164.5453,823.3571,164.4448,823.4902,164.3548z"/>
		<path class="st2" d="M868.8168,179.2161c0.2268,0.2016,0.1465,0.3219-0.105,0.3969
			C868.6591,179.4575,868.717,179.3313,868.8168,179.2161z"/>
		<path class="st2" d="M659.1332,180.0297c-0.0518-0.1691-0.0306-0.3179,0.1202-0.4305
			C659.3726,179.7872,659.3503,179.9357,659.1332,180.0297z"/>
		<path class="st2" d="M766.5924,180.1546c0.0031-0.2041,0.0887-0.3458,0.2984-0.3933
			C766.93,179.9976,766.8818,180.1675,766.5924,180.1546z"/>
		<path class="st5" d="M608.4451,164.3438c-0.0308-0.2123,0.0803-0.3304,0.2653-0.3995
			C608.8087,164.2014,608.529,164.2076,608.4451,164.3438z"/>
		<path class="st5" d="M788.405,164.153c-0.1694-0.1755-0.1191-0.2976,0.0926-0.3803
			C788.5775,163.9264,788.5068,164.0434,788.405,164.153z"/>
		<path class="st5" d="M755.4706,163.0101c0.0961,0.007,0.1921,0.0139,0.2883,0.0209c-0.0247,0.1232-0.0496,0.2463-0.0745,0.3695
			c-0.1443-0.0093-0.2886-0.0186-0.4329-0.0278C755.3246,163.2518,755.3976,163.1309,755.4706,163.0101z"/>
		<path class="st2" d="M708.3674,179.7161c0.0132,0.1538,0.0264,0.3076,0.0396,0.4615
			C707.9426,180.0624,708.2054,179.885,708.3674,179.7161z"/>
		<path class="st5" d="M739.769,163.5809c-0.0214-0.012-0.0427-0.024-0.0641-0.036c0.0239-0.0311,0.0477-0.0621,0.0715-0.0932
			c0.0208,0.0228,0.0416,0.0456,0.0623,0.0684C739.8155,163.5404,739.7922,163.5606,739.769,163.5809z"/>
		<path class="st5" d="M937.1512,163.5964c-0.0588-0.0582-0.1177-0.1164-0.1765-0.1745
			C937.1211,163.3915,937.1788,163.4508,937.1512,163.5964z"/>
		<path class="st2" d="M826.4568,179.0183c-0.0406,0.0685-0.0812,0.137-0.1218,0.2055
			C826.264,179.0892,826.3466,179.0455,826.4568,179.0183z"/>
		<path class="st5" d="M860.3409,163.5756c-0.0449,0.0707-0.0898,0.1415-0.1347,0.2122
			C860.1595,163.659,860.2103,163.592,860.3409,163.5756z"/>
		<path class="st5" d="M846.4595,165.5574c0,0-0.0073,0.008-0.0071,0.0079c-0.0247,0.0157-0.0504,0.0453-0.074,0.0437
			c-0.0229-0.0016-0.0438-0.035-0.0656-0.0544C846.3618,165.5555,846.4106,165.5564,846.4595,165.5574z"/>
		<path class="st5" d="M685.4601,165.9991c-0.3893,0.0325-0.7927,0.2075-1.1469-0.1136
			C684.7263,165.6137,685.1263,165.4725,685.4601,165.9991z"/>
		<path class="st2" d="M901.9839,171.6823c-0.1397-0.1029-0.1725-0.2356-0.1101-0.3948
			C902.0867,171.3701,902.2162,171.4758,901.9839,171.6823z"/>
		<path class="st2" d="M901.8065,170.7393c-0.1176-0.0987-0.2446-0.1925-0.1965-0.3774
			C901.8087,170.4183,902.0504,170.4524,901.8065,170.7393z"/>
		<path class="st2" d="M897.7797,173.3758c0.0169,0.062,0.0339,0.124,0.0508,0.1859
			C897.6379,173.5477,897.5984,173.4919,897.7797,173.3758z"/>
	</g>
</g>
</svg>
