<?xml version="1.0" encoding="utf-8"?>
<!-- Generator: Adobe Illustrator 27.1.1, SVG Export Plug-In . SVG Version: 6.00 Build 0)  -->
<svg version="1.1" id="Layer_1" xmlns="http://www.w3.org/2000/svg" xmlns:xlink="http://www.w3.org/1999/xlink" x="0px" y="0px"
	 viewBox="0 0 2200 419.8473" style="enable-background:new 0 0 2200 419.8473;" xml:space="preserve">
<style type="text/css">
	.st0{fill:#00434D;}
	.st1{fill:none;}
	.st2{fill:#FFFFFF;}
	.st3{fill:#078142;}
	.st4{fill:#EA7726;}
</style>
<g>
	<path class="st0" d="M2126.9121,419.8473H73.088C32.7226,419.8473,0,387.1247,0,346.7593V73.088C0,32.7226,32.7226,0,73.088,0
		h2053.8242C2167.2773,0,2200,32.7226,2200,73.088v273.6713C2200,387.1247,2167.2773,419.8473,2126.9121,419.8473z"/>
	<g>
		<rect x="102.1867" y="68.8684" class="st1" width="1057.5785" height="282.1105"/>
		<path class="st2" d="M230.0798,260.3144v-2.2139c-3.0073,3.4443-5.9736,6.2461-8.8975,8.4053
			c-2.9248,2.1602-6.0962,3.7998-9.5122,4.9199c-3.417,1.1201-7.1479,1.6807-11.1929,1.6807
			c-5.3584,0-10.3193-1.1348-14.8833-3.4023c-4.5654-2.2686-8.5156-5.5078-11.8491-9.7178
			c-3.3354-4.209-5.8633-9.1562-7.5854-14.8418c-1.7217-5.6855-2.583-11.8359-2.583-18.4502
			c0-13.9941,3.416-24.9009,10.2505-32.7192c6.833-7.8169,15.8262-11.7261,26.9785-11.7261c6.4497,0,11.8901,1.1069,16.3179,3.3213
			c4.4282,2.2139,8.7461,5.6167,12.9565,10.209v-33.0464c0-4.5923,0.9146-8.063,2.7471-10.4146
			c1.8306-2.3496,4.4409-3.5259,7.8311-3.5259c3.3887,0,5.999,1.0801,7.8311,3.2393c1.8311,2.1602,2.7471,5.3442,2.7471,9.5532
			v98.7295c0,4.2637-0.9839,7.4619-2.9521,9.5938c-1.9678,2.1328-4.5098,3.1982-7.626,3.1982c-3.0625,0-5.5903-1.1064-7.585-3.3213
			C231.0764,267.5713,230.0798,264.414,230.0798,260.3144z M186.0451,227.4316c0,6.0684,0.9429,11.2344,2.8286,15.498
			c1.8862,4.2646,4.4692,7.4766,7.7495,9.6357c3.2798,2.1602,6.8599,3.2393,10.7422,3.2393c3.936,0,7.5298-1.0254,10.7832-3.0752
			c3.2515-2.0498,5.8486-5.1934,7.79-9.4307c1.9399-4.2354,2.9111-9.5244,2.9111-15.8672c0-5.958-0.9712-11.083-2.9111-15.375
			c-1.9414-4.291-4.5654-7.5713-7.8721-9.8403c-3.3086-2.2676-6.9292-3.4028-10.8652-3.4028c-4.1001,0-7.7632,1.1621-10.9883,3.4849
			c-3.2261,2.3242-5.7275,5.6582-7.5029,10.0044C186.9328,216.6484,186.0451,221.6914,186.0451,227.4316z"/>
		<path class="st2" d="M357.51,227.5957c0,6.6709-1.0391,12.8203-3.1162,18.4502c-2.0781,5.6318-5.084,10.4697-9.02,14.5146
			c-3.936,4.0459-8.6382,7.1484-14.104,9.3066c-5.4673,2.1592-11.6177,3.2393-18.4507,3.2393
			c-6.7793,0-12.874-1.0938-18.2861-3.2803c-5.4121-2.1855-10.1001-5.3154-14.0635-9.3887
			c-3.9639-4.0723-6.9697-8.8828-9.02-14.4326c-2.0498-5.5479-3.0752-11.6846-3.0752-18.4092
			c0-6.7773,1.0381-12.9834,3.1162-18.6143c2.0771-5.6299,5.0562-10.4409,8.938-14.4321c3.8813-3.9897,8.582-7.0649,14.1045-9.2251
			c5.521-2.1592,11.6157-3.2393,18.2861-3.2393c6.7778,0,12.9282,1.0942,18.4507,3.2803c5.521,2.187,10.25,5.3032,14.186,9.3481
			c3.936,4.0464,6.9292,8.856,8.979,14.4321C356.4851,214.7217,357.51,220.8721,357.51,227.5957z M335.0417,227.5957
			c0-9.1289-2.0093-16.2363-6.0273-21.3203s-9.4175-7.626-16.1953-7.626c-4.374,0-8.228,1.1353-11.562,3.4028
			c-3.3354,2.2695-5.9043,5.6172-7.708,10.0454c-1.8042,4.4277-2.7061,9.5938-2.7061,15.498c0,5.8506,0.8877,10.9619,2.665,15.334
			c1.7759,4.375,4.3179,7.7227,7.626,10.0459c3.3071,2.3242,7.2021,3.4844,11.6851,3.4844c6.7778,0,12.1772-2.5547,16.1953-7.667
			C333.0324,243.6826,335.0417,236.6162,335.0417,227.5957z"/>
		<path class="st2" d="M395.4763,194.4673v2.7061c3.936-5.1929,8.2412-9.0059,12.9155-11.439
			c4.6738-2.4321,10.0449-3.6494,16.1133-3.6494c5.9038,0,11.1787,1.2852,15.8262,3.854c4.646,2.5703,8.1182,6.2056,10.4141,10.9062
			c1.4761,2.7344,2.4321,5.6865,2.8701,8.8564c0.437,3.1709,0.6558,7.2163,0.6558,12.1362v41.6562
			c0,4.4834-1.0249,7.8721-3.0747,10.1689c-2.0503,2.2959-4.7153,3.4434-7.9951,3.4434c-3.3354,0-6.0415-1.1758-8.1182-3.5254
			c-2.0781-2.3506-3.1162-5.7119-3.1162-10.0869v-37.3105c0-7.3799-1.0249-13.0239-3.0752-16.9331
			c-2.0498-3.9077-6.1372-5.8633-12.2593-5.8633c-3.9907,0-7.626,1.189-10.9058,3.5674c-3.2803,2.3779-5.6865,5.645-7.2163,9.7993
			c-1.0942,3.335-1.6401,9.5674-1.6401,18.6963v28.0439c0,4.5381-1.0532,7.9414-3.1567,10.21
			c-2.1055,2.2676-4.8257,3.4023-8.1592,3.4023c-3.2266,0-5.8774-1.1758-7.9541-3.5254c-2.0786-2.3506-3.1162-5.7119-3.1162-10.0869
			v-64.6987c0-4.2642,0.9287-7.4482,2.7881-9.5532c1.8579-2.104,4.3999-3.1572,7.626-3.1572c1.9683,0,3.7441,0.4653,5.3301,1.394
			c1.585,0.9302,2.856,2.3242,3.813,4.1821C394.9973,189.5205,395.4763,191.7895,395.4763,194.4673z"/>
		<path class="st2" d="M533.1564,260.4785c-5.4121,4.21-10.6475,7.3672-15.7031,9.4707
			c-5.0571,2.1045-10.7295,3.1572-17.0151,3.1572c-5.7402,0-10.7832-1.1348-15.1294-3.4023
			c-4.3462-2.2686-7.6953-5.3438-10.0454-9.2256c-2.3511-3.8809-3.5259-8.0898-3.5259-12.6279
			c0-6.1221,1.9399-11.3438,5.8223-15.6631c3.8809-4.3174,9.2109-7.2158,15.9902-8.6914c1.4209-0.3281,4.9468-1.0664,10.5781-2.2139
			c5.6299-1.1484,10.455-2.2002,14.4731-3.1572c4.0181-0.9561,8.377-2.1182,13.0791-3.4854
			c-0.2739-5.9043-1.4629-10.2363-3.5669-12.9971c-2.105-2.7603-6.4653-4.1411-13.0791-4.1411
			c-5.6865,0-9.9633,0.793-12.8335,2.3779c-2.8701,1.5864-5.3301,3.9644-7.3799,7.1343c-2.0503,3.1709-3.499,5.2617-4.3462,6.2734
			c-0.8481,1.0117-2.665,1.5166-5.4531,1.5166c-2.5151,0-4.688-0.8057-6.519-2.4189c-1.832-1.6118-2.7471-3.6763-2.7471-6.1914
			c0-3.936,1.394-7.7617,4.1821-11.48c2.7881-3.7173,7.1343-6.7778,13.0381-9.1841c5.9043-2.4053,13.2563-3.6084,22.0586-3.6084
			c9.8398,0,17.5752,1.1621,23.2061,3.4854c5.6304,2.3242,9.6074,6,11.9316,11.0293c2.3228,5.0303,3.4849,11.6992,3.4849,20.0078
			c0,5.248-0.0142,9.7051-0.041,13.3662c-0.0283,3.6631-0.0693,7.7363-0.123,12.2188c0,4.21,0.6973,8.5967,2.0913,13.1611
			c1.394,4.5654,2.0908,7.5029,2.0908,8.8154c0,2.2959-1.0801,4.3867-3.2393,6.2725c-2.1602,1.8867-4.606,2.8291-7.3389,2.8291
			c-2.2959,0-4.5654-1.0801-6.8062-3.2393C538.0485,267.709,535.6706,264.5781,533.1564,260.4785z M531.6804,228.0879
			c-3.2798,1.2031-8.0503,2.4746-14.3091,3.8135c-6.2602,1.3398-10.5923,2.3242-12.997,2.9512
			c-2.4062,0.6299-4.7026,1.8594-6.8882,3.6904c-2.187,1.832-3.2803,4.3867-3.2803,7.667c0,3.3906,1.2842,6.2734,3.854,8.6514
			c2.5693,2.3779,5.9312,3.5674,10.0864,3.5674c4.4282,0,8.5141-0.9707,12.2592-2.9111c3.7437-1.9404,6.4907-4.4414,8.2412-7.5029
			c2.0215-3.3896,3.0337-8.9658,3.0337-16.7285V228.0879z"/>
		<path class="st2" d="M573.4191,184.0532h2.4604V170.605c0-3.6084,0.0947-6.437,0.2866-8.4873
			c0.1909-2.0498,0.7241-3.813,1.5991-5.2891c0.874-1.5298,2.1323-2.7739,3.772-3.731c1.6401-0.9561,3.4712-1.4351,5.4941-1.4351
			c2.8418,0,5.4121,1.0659,7.7085,3.1982c1.5298,1.4219,2.501,3.1567,2.9106,5.207c0.4102,2.0498,0.6152,4.9609,0.6152,8.7329
			v15.2524h8.2002c3.1699,0,5.5889,0.752,7.2568,2.2549c1.667,1.5044,2.5015,3.4312,2.5015,5.7812
			c0,3.0068-1.1895,5.1123-3.5674,6.314c-2.3779,1.2031-5.7808,1.8042-10.209,1.8042h-4.1821v41.1646
			c0,3.499,0.123,6.1914,0.3691,8.0771s0.9019,3.417,1.9678,4.5918c1.0659,1.1768,2.8008,1.7637,5.207,1.7637
			c1.312,0,3.0879-0.2324,5.3301-0.6973c2.2412-0.4639,3.9902-0.6973,5.248-0.6973c1.8042,0,3.4302,0.7256,4.8794,2.1728
			c1.4478,1.4492,2.1729,3.2393,2.1729,5.3711c0,3.6084-1.9678,6.3691-5.9038,8.2822s-9.5942,2.8701-16.9746,2.8701
			c-6.998,0-12.3003-1.1758-15.9082-3.5254c-3.6079-2.3506-5.9731-5.6035-7.0933-9.7588
			c-1.1211-4.1533-1.6807-9.7031-1.6807-16.6465v-42.9683h-2.9521c-3.2266,0-5.6865-0.7651-7.3804-2.2964
			c-1.6948-1.5298-2.542-3.4707-2.542-5.8218c0-2.3501,0.8882-4.2769,2.665-5.7812
			C567.446,184.8052,570.029,184.0532,573.4191,184.0532z"/>
		<path class="st2" d="M694.1257,233.0898h-43.7891c0.0542,5.084,1.0791,9.5674,3.0752,13.4482
			c1.9951,3.8828,4.646,6.8066,7.9541,8.7744c3.3071,1.9678,6.9561,2.9521,10.9473,2.9521c2.6777,0,5.125-0.3145,7.3394-0.9434
			c2.2139-0.6279,4.3589-1.6113,6.437-2.9521c2.0767-1.3389,3.9897-2.7734,5.7402-4.3047c1.7485-1.5303,4.0181-3.6084,6.8062-6.2324
			c1.1479-0.9844,2.7876-1.4756,4.9199-1.4756c2.2959,0,4.1538,0.6289,5.5762,1.8857c1.4209,1.2578,2.1318,3.0342,2.1318,5.3301
			c0,2.0234-0.793,4.3867-2.3779,7.0928c-1.5864,2.7061-3.9771,5.3037-7.1753,7.79c-3.1978,2.4883-7.2158,4.5518-12.0542,6.1914
			c-4.8379,1.6406-10.4014,2.46-16.687,2.46c-14.3784,0-25.5576-4.0996-33.5386-12.2998
			c-7.9824-8.2002-11.9722-19.3242-11.9722-33.375c0-6.6133,0.9839-12.751,2.9517-18.4092
			c1.9683-5.6582,4.8384-10.5088,8.6104-14.5552c3.772-4.0449,8.418-7.147,13.9404-9.3071
			c5.521-2.1592,11.644-3.2393,18.3682-3.2393c8.7461,0,16.249,1.8452,22.5093,5.5352c6.2593,3.6904,10.9473,8.4604,14.0635,14.3096
			c3.1157,5.8501,4.6738,11.8076,4.6738,17.876c0,5.6309-1.6133,9.2803-4.8379,10.9473
			C704.5114,232.2568,699.9748,233.0898,694.1257,233.0898z M650.3366,220.3799h40.5908
			c-0.5469-7.6533-2.6113-13.3794-6.1909-17.1792c-3.5811-3.7993-8.2964-5.6992-14.1455-5.6992
			c-5.5757,0-10.1553,1.9268-13.7349,5.7808C653.2746,207.1367,651.1017,212.8359,650.3366,220.3799z"/>
		<path class="st2" d="M787.3615,196.0254l14.5962,50.0205l13.2842-46.4946c1.4209-4.8647,2.4731-8.186,3.1572-9.9629
			c0.6831-1.7759,1.9678-3.4712,3.854-5.0845c1.8862-1.6118,4.4692-2.4189,7.749-2.4189c3.334,0,5.9453,0.8071,7.8311,2.4189
			c1.8862,1.6133,3.2109,3.3623,3.9771,5.2485c0.7651,1.8857,1.8311,5.1528,3.1982,9.7988l13.2842,46.4946l14.7603-50.0205
			c0.9839-3.6079,1.7759-6.2183,2.3779-7.8311c0.6011-1.6118,1.6118-3.0342,3.0342-4.2642c1.4209-1.23,3.4712-1.8452,6.1504-1.8452
			c2.6777,0,5.002,0.9302,6.9697,2.7881c1.9683,1.8594,2.9521,4.0464,2.9521,6.5601c0,2.2964-0.8481,5.7686-2.542,10.4146
			l-18.2861,53.6289c-1.5864,4.5381-2.8164,7.8183-3.6904,9.8398c-0.875,2.0234-2.2549,3.8271-4.1406,5.4121
			c-1.8862,1.585-4.4692,2.3779-7.7495,2.3779c-3.3901,0-6.0552-0.8477-7.9951-2.542c-1.9409-1.6934-3.376-3.7715-4.3052-6.2314
			c-0.9302-2.4609-1.9409-5.6582-3.0337-9.5947l-12.7925-43.624l-12.3823,43.624c-1.6396,6.0683-3.417,10.6474-5.3301,13.7353
			c-1.9141,3.0879-5.2759,4.6328-10.0859,4.6328c-2.46,0-4.5513-0.4785-6.2729-1.4346c-1.7222-0.9561-3.1572-2.3232-4.3052-4.1006
			c-1.1479-1.7754-2.1602-3.8809-3.0342-6.3135c-0.875-2.4326-1.5581-4.3594-2.0498-5.7812l-18.1226-53.6289
			c-1.8042-5.0293-2.7061-8.5-2.7061-10.4146c0-2.4048,0.9561-4.564,2.8701-6.478c1.9131-1.9131,4.2642-2.8701,7.0522-2.8701
			c3.7168,0,6.2319,1.0532,7.5439,3.1572C784.4914,187.3472,785.8854,190.9414,787.3615,196.0254z"/>
		<path class="st2" d="M921.2697,171.6709c-3.1162,0-5.7812-0.9561-7.9951-2.8701c-2.2139-1.9131-3.3213-4.6191-3.3213-8.1182
			c0-3.1699,1.1343-5.7812,3.4033-7.8311c2.2676-2.0498,4.9058-3.0752,7.9131-3.0752c2.897,0,5.4658,0.9302,7.708,2.7881
			c2.2412,1.8594,3.3623,4.5654,3.3623,8.1182c0,3.4443-1.0942,6.1372-3.2803,8.0771
			C926.8727,170.7012,924.2756,171.6709,921.2697,171.6709z M932.34,194.7954v64.6987c0,4.4834-1.0659,7.8721-3.1982,10.1689
			c-2.1318,2.2959-4.8379,3.4434-8.1182,3.4434c-3.2798,0-5.9448-1.1758-7.9951-3.5254c-2.0498-2.3506-3.0752-5.7119-3.0752-10.0869
			v-64.043c0-4.4277,1.0254-7.7617,3.0752-10.0039c2.0503-2.2412,4.7153-3.3623,7.9951-3.3623c3.2803,0,5.9863,1.1211,8.1182,3.3623
			C931.2741,187.6894,932.34,190.8056,932.34,194.7954z"/>
		<path class="st2" d="M956.694,184.0532h2.4604V170.605c0-3.6084,0.0947-6.437,0.2866-8.4873
			c0.1909-2.0498,0.7241-3.813,1.5991-5.2891c0.874-1.5298,2.1323-2.7739,3.772-3.731c1.6401-0.9561,3.4712-1.4351,5.4941-1.4351
			c2.8418,0,5.4121,1.0659,7.7085,3.1982c1.5298,1.4219,2.501,3.1567,2.9106,5.207c0.4102,2.0498,0.6152,4.9609,0.6152,8.7329
			v15.2524h8.2002c3.1699,0,5.5889,0.752,7.2568,2.2549c1.667,1.5044,2.5015,3.4312,2.5015,5.7812
			c0,3.0068-1.1895,5.1123-3.5674,6.314c-2.3779,1.2031-5.7808,1.8042-10.209,1.8042h-4.1821v41.1646
			c0,3.499,0.123,6.1914,0.3691,8.0771s0.9019,3.417,1.9678,4.5918c1.0659,1.1768,2.8008,1.7637,5.207,1.7637
			c1.312,0,3.0879-0.2324,5.3301-0.6973c2.2412-0.4639,3.9902-0.6973,5.248-0.6973c1.8042,0,3.4302,0.7256,4.8794,2.1728
			c1.4478,1.4492,2.1729,3.2393,2.1729,5.3711c0,3.6084-1.9678,6.3691-5.9038,8.2822s-9.5942,2.8701-16.9746,2.8701
			c-6.998,0-12.3003-1.1758-15.9082-3.5254c-3.6079-2.3506-5.9731-5.6035-7.0933-9.7588
			c-1.1211-4.1533-1.6807-9.7031-1.6807-16.6465v-42.9683h-2.9521c-3.2266,0-5.6865-0.7651-7.3804-2.2964
			c-1.6948-1.5298-2.542-3.4707-2.542-5.8218c0-2.3501,0.8882-4.2769,2.665-5.7812
			C950.7209,184.8052,953.3039,184.0532,956.694,184.0532z"/>
		<path class="st2" d="M1036.8098,162.4048v33.2104c2.8418-3.2798,5.6172-5.876,8.3232-7.79
			c2.7061-1.9131,5.6992-3.3481,8.979-4.3052c3.2803-0.9556,6.8062-1.4351,10.5781-1.4351c5.6851,0,10.728,1.2031,15.1294,3.6084
			c4.3999,2.4062,7.8579,5.9038,10.373,10.4961c1.585,2.6792,2.6509,5.6719,3.1982,8.979c0.5459,3.3081,0.8198,7.1216,0.8198,11.439
			v42.8867c0,4.4834-1.0249,7.8721-3.0747,10.1689c-2.0503,2.2959-4.7705,3.4434-8.1592,3.4434
			c-7.3804,0-11.0703-4.5371-11.0703-13.6123v-37.8027c0-7.1611-1.0659-12.6689-3.1982-16.5229
			c-2.1318-3.854-6.1782-5.7812-12.1362-5.7812c-3.9912,0-7.585,1.1353-10.7832,3.4033c-3.1978,2.269-5.5898,5.3711-7.1748,9.3071
			c-1.2031,3.335-1.8042,9.2656-1.8042,17.7939v29.6025c0,4.4287-0.998,7.8047-2.9932,10.1279
			c-1.9961,2.3223-4.77,3.4844-8.3228,3.4844c-7.3804,0-11.0704-4.5371-11.0704-13.6123v-97.0893
			c0-4.5371,0.9697-7.9399,2.9111-10.2095c1.9395-2.2676,4.6597-3.4028,8.1592-3.4028c3.5527,0,6.3267,1.1479,8.3228,3.4438
			C1035.8118,154.5327,1036.8098,157.9228,1036.8098,162.4048z"/>
	</g>
	<g>
		<path class="st2" d="M1352.7087,297.8967h5.2245l-4.8949,20.2033c-0.8065,2.2152-0.6605,4.6617,0.4038,6.7672
			c1.354,1.6378,3.4594,2.4737,5.5789,2.2148c2.415,0.0926,4.7808-0.6953,6.65-2.2148c1.9078-1.8206,3.1954-4.1862,3.6835-6.7672
			l4.9443-20.2034h5.2491l-4.9442,20.6856c-0.7379,3.9129-2.7953,7.4607-5.8344,10.0608
			c-3.1115,2.3629-6.9624,3.5637-10.8774,3.3918c-4.4911,0-7.5647-1.0788-9.2375-3.2692s-1.9778-5.6393-0.9476-10.0853
			L1352.7087,297.8967z"/>
		<path class="st2" d="M1378.8064,331.1276l8.3146-34.4651l15.7888,20.326c0.4203,0.5721,0.8241,1.1524,1.2443,1.8062
			c0.4203,0.6538,0.8241,1.4139,1.335,2.223l5.5624-22.9985h4.9443l-8.3477,34.4406l-16.1349-20.7019l-1.2361-1.7327
			c-0.4082-0.6015-0.7429-1.2489-0.9971-1.9288l-5.5789,23.1293h-4.8948V331.1276z"/>
		<path class="st2" d="M1415.5425,331.1276l7.985-33.231h5.3234l-7.9109,33.231H1415.5425z"/>
		<path class="st2" d="M1428.4224,331.1276l8.0674-33.231h18.2115l-1.1702,4.5523h-12.8799l-1.9448,8.2464h12.8882l-1.1537,4.7076
			h-12.9375l-3.7577,15.5694h-5.3234V331.1276z"/>
		<path class="st2" d="M1452.5835,331.1276l7.9685-33.231h5.3234l-7.9685,33.231H1452.5835z"/>
		<path class="st2" d="M1465.4304,331.1276l7.985-33.231h18.2115l-1.0878,4.5523h-12.8882l-1.9447,8.3282h12.8881l-1.1619,4.6994
			h-12.9458l-2.5875,10.7146h12.8882l-1.1702,4.9037L1465.4304,331.1276z"/>
		<path class="st2" d="M1489.781,331.1276l7.9851-33.231h7.1527c3.259-0.1316,6.5225,0.1152,9.7238,0.7355
			c1.6414,0.4209,3.151,1.2411,4.3922,2.3865c1.5286,1.5305,2.5443,3.4911,2.9089,5.6148c0.386,2.6135,0.2488,5.2769-0.4038,7.8378
			c-0.6989,2.7784-1.8542,5.4236-3.4198,7.8296c-1.4734,2.239-3.4016,4.1485-5.6613,5.6066
			c-1.6681,1.1266-3.5314,1.9383-5.4963,2.3947c-2.8368,0.5808-5.733,0.825-8.6278,0.7274h-8.5537V331.1276z M1496.2745,326.1748
			h4.4911c1.8918,0.0466,3.7828-0.1206,5.6365-0.4985c1.2798-0.325,2.489-0.8789,3.5681-1.6346
			c1.5221-1.0753,2.8018-2.4531,3.7577-4.0456c1.0592-1.7299,1.8143-3.6258,2.2332-5.6066c0.4957-1.795,0.6412-3.6675,0.4285-5.5167
			c-0.1975-1.497-0.8336-2.9036-1.8293-4.0456c-0.7844-0.8235-1.8011-1.3932-2.9171-1.6346
			c-1.9159-0.3904-3.8711-0.5577-5.826-0.4985h-3.8895L1496.2745,326.1748z"/>
		<path class="st2" d="M1545.8905,316.1712l-3.5763,14.94h-4.9443l7.9685-33.231h8.0675c1.7266-0.0482,3.4534,0.0888,5.1503,0.4087
			c0.9753,0.1785,1.8756,0.6392,2.5875,1.324c0.8783,0.8344,1.457,1.9308,1.6481,3.122c0.2164,1.4314,0.1549,2.8905-0.1813,4.299
			c-0.3782,1.5564-1.0371,3.0322-1.9447,4.3561c-0.834,1.2466-1.9097,2.3162-3.1644,3.1466
			c-1.005,0.6046-2.1012,1.0461-3.2467,1.3076c-1.7557,0.3172-3.5391,0.4596-5.3234,0.425h-3.0737L1545.8905,316.1712z
			 M1547.3491,311.7579h1.3267c2.103,0.1475,4.2114-0.1969,6.1556-1.0053c1.2365-0.7762,2.0836-2.0352,2.3322-3.4653
			c0.5117-1.2603,0.2489-2.6999-0.6758-3.7023c-1.6729-0.9059-3.5851-1.2824-5.48-1.0788h-1.3267L1547.3491,311.7579z"/>
		<path class="st2" d="M1580.6406,331.1276l-1.6481-8.5733h-12.9869l-5.8344,8.5733h-5.5706l24.1364-34.4651l7.4165,34.4651
			H1580.6406z M1569.1699,318.051h9.0645l-1.4996-7.6008c-0.0922-0.5403-0.1445-1.0867-0.1566-1.6346
			c-0.0825-0.6778-0.1155-1.3607-0.0989-2.0432c-0.3064,0.7046-0.6616,1.3873-1.063,2.0432
			c-0.2959,0.6034-0.6346,1.1851-1.0137,1.7408L1569.1699,318.051z"/>
		<path class="st2" d="M1593.9161,331.1276l3.6505-15.1689l-6.6418-17.9803h5.5706l4.1615,11.295
			c0.0885,0.3898,0.1986,0.7745,0.3296,1.1524c0.1566,0.4985,0.2555,0.9807,0.412,1.4875l0.9889-1.4875
			c0.3544-0.4985,0.684-0.9072,1.0135-1.3077l9.7156-11.1396h5.3234l-15.5498,17.8823l-3.6259,15.1689h-5.3234L1593.9161,331.1276z"
			/>
		<path class="st2" d="M1644.4468,314.7083c0.048-0.7177,0.1333-1.4324,0.2555-2.1413c0.0159-0.8009,0.0986-1.5991,0.2472-2.3865
			c-0.3296,0.7437-0.6593,1.4793-1.0878,2.3129c-0.4407,0.8054-0.9391,1.5784-1.4916,2.3129l-12.8138,17.7107l-4.1202-18.0457
			c-0.1801-0.7115-0.3231-1.4316-0.4286-2.1577c-0.0892-0.6778-0.1416-1.3599-0.1565-2.0432
			c-0.1731,0.6538-0.4286,1.3894-0.6758,2.223c-0.2739,0.8183-0.6072,1.6159-0.9971,2.3865l-7.4823,16.3458h-4.8949l16.1266-34.5468
			l4.59,20.9553c0.1057,0.5405,0.1827,1.0861,0.2307,1.6346c0.0864,0.9718,0.2295,1.9378,0.4286,2.8932
			c0.585-0.9807,1.3185-2.1413,2.332-3.6206c0.2052-0.2908,0.3923-0.5938,0.5603-0.9072l14.3879-20.9553l-0.511,34.6939h-4.8948
			L1644.4468,314.7083z"/>
		<path class="st2" d="M1653.2888,331.1276l7.9851-33.231h18.129l-1.03,4.6095h-12.9211l-1.9117,8.3282h12.8551l-1.1619,4.6994
			h-12.8882l-2.5875,10.7147h12.8882l-1.162,4.9037L1653.2888,331.1276z"/>
		<path class="st2" d="M1677.4829,331.1276l8.3971-34.4651l15.8052,20.326c0.4038,0.5721,0.8241,1.1524,1.2444,1.8062
			c0.4203,0.6538,0.8241,1.4139,1.335,2.223l5.5624-22.9985h4.8948l-8.3312,34.4406l-16.0936-20.7019l-1.2113-1.7327
			c-0.4182-0.5981-0.7588-1.2462-1.0137-1.9288l-5.5787,23.1293h-4.9938L1677.4829,331.1276z"/>
		<path class="st2" d="M1731.6888,302.4489l-6.8972,28.6051h-5.3234l6.8972-28.6051h-8.6525l1.0878-4.6095h22.6036l-1.063,4.6095
			H1731.6888z"/>
		<path class="st2" d="M1737.2677,324.4422l4.7218-1.9288c-0.0311,1.2735,0.484,2.5003,1.4174,3.3754
			c1.116,0.8329,2.4958,1.2417,3.8895,1.1524c1.47,0.0435,2.9083-0.4282,4.0625-1.3322c1.1573-0.8753,1.9587-2.1343,2.2579-3.547
			c0.5027-1.9206-0.6675-3.6941-3.5022-5.1816c-0.2882-0.1947-0.5945-0.3616-0.9147-0.4985
			c-2.3652-1.1114-4.4194-2.7811-5.9827-4.8629c-0.8406-1.6324-1.0146-3.5233-0.4862-5.2797
			c0.6161-2.6279,2.141-4.9588,4.3098-6.5873c2.2275-1.7001,4.9686-2.6044,7.7791-2.5663c2.0193-0.0938,4.0228,0.3945,5.7683,1.4057
			c1.3741,0.9216,2.2577,2.407,2.4062,4.0456l-4.6888,2.1413c-0.2903-0.9046-0.8367-1.7075-1.574-2.3129
			c-0.7234-0.5015-1.59-0.7593-2.4722-0.7356c-1.3146-0.0372-2.6027,0.3723-3.6505,1.1606
			c-1.0045,0.7441-1.6969,1.8296-1.9447,3.0485c-0.511,1.9206,0.9147,3.8494,4.1202,5.6066
			c0.1886,0.1199,0.3839,0.2291,0.5851,0.3269c2.2251,0.9602,4.1471,2.4992,5.5623,4.4543c0.8641,1.6807,1.0441,3.6264,0.5027,5.435
			c-0.6444,2.972-2.3217,5.6247-4.7383,7.4945c-2.4515,1.865-5.4642,2.8582-8.5536,2.8197
			c-2.3029,0.1558-4.5836-0.5304-6.4111-1.9288C1737.981,328.7881,1737.0516,326.6365,1737.2677,324.4422z"/>
		<path class="st2" d="M1776.4347,331.1276l7.9685-33.231h5.3235l-7.9851,33.231H1776.4347z"/>
		<path class="st2" d="M1789.3723,331.1276l8.3229-34.4651l15.8218,20.2034c0.4037,0.5803,0.824,1.1524,1.2443,1.8144
			c0.4203,0.662,0.8241,1.4057,1.3185,2.2148l5.5789-22.9985h4.8948l-8.2981,34.4651l-16.1102-20.7019l-1.2443-1.7326
			c-0.4182-0.5981-0.7588-1.2462-1.0135-1.9288l-5.5541,23.1293h-4.9443L1789.3723,331.1276z"/>
		<path class="st2" d="M1843.504,302.4489l-6.9055,28.6051h-5.3234l6.8973-28.6051h-8.6443l1.0878-4.6095h22.6036l-1.0713,4.6095
			H1843.504z"/>
		<path class="st2" d="M1849.2312,331.1276l7.9933-33.231h18.2856l-1.0878,4.6095h-12.8881l-1.9448,8.3282h12.8882l-1.1454,4.6994
			h-12.8882l-2.5793,10.7147h12.8634l-1.1619,4.9037L1849.2312,331.1276z"/>
		<path class="st2" d="M1882.0778,316.1712l-3.5763,14.8419h-4.9938l8.0427-33.2065h7.4164
			c1.6578-0.041,3.3153,0.0933,4.9443,0.4005c1.0355,0.187,1.991,0.6765,2.7441,1.4057c0.8397,0.8527,1.3899,1.9442,1.5739,3.122
			c0.2316,1.3993,0.1783,2.8304-0.1565,4.209c-0.4803,2.38-1.672,4.5615-3.4199,6.2604c-1.7452,1.5283-3.924,2.4846-6.238,2.7379
			l7.5813,15.0708h-5.9908l-7.2681-14.8419H1882.0778z M1883.4951,312.0848h0.9972c1.994,0.1603,3.9968-0.1769,5.8259-0.9807
			c1.2014-0.8305,2.0082-2.1119,2.2333-3.5471c0.4285-1.8144,0.2554-3.122-0.5769-3.8576c-1.566-0.9517-3.4077-1.3573-5.2327-1.1524
			h-0.9889L1883.4951,312.0848z"/>
		<path class="st2" d="M1899.0449,331.1276l7.9685-33.231h18.2115l-0.9147,4.5523h-12.8882l-1.9364,8.2464h12.8799l-1.1619,4.7076
			h-13.02l-3.7577,15.5694h-5.381L1899.0449,331.1276z"/>
		<path class="st2" d="M1943.0079,331.1276l-1.6481-8.5733h-12.9869l-5.826,8.5733h-5.5789l24.1199-34.4651l7.4824,34.5632
			L1943.0079,331.1276z M1931.4713,318.051h9.0646l-1.5081-7.6008c-0.1122-0.538-0.1729-1.0853-0.1813-1.6346
			c-0.0413-0.6805-0.0413-1.3628,0-2.0432c-0.3032,0.7106-0.6671,1.3941-1.0878,2.0432c-0.2874,0.6029-0.6178,1.1847-0.9889,1.7408
			L1931.4713,318.051z"/>
		<path class="st2" d="M1983.1638,305.9714c-1.1223-1.2732-2.5349-2.2623-4.1202-2.885c-1.5985-0.6852-3.3267-1.0224-5.0679-0.9889
			c-3.4908-0.0135-6.8718,1.2095-9.5342,3.449c-2.8098,2.3265-4.7629,5.511-5.5541,9.0555
			c-0.9459,2.995-0.5212,6.2507,1.1619,8.9084c1.6841,2.3702,4.5015,3.6866,7.4164,3.4653
			c1.9753,0.0169,3.9349-0.3496,5.7684-1.0788c2.0823-0.7653,4.0461-1.8161,5.8342-3.1221l-1.5657,6.1216
			c-1.6157,1.0355-3.3838,1.8157-5.241,2.3129c-1.8361,0.4987-3.7329,0.7435-5.6365,0.7274
			c-2.2844,0.0514-4.5547-0.3688-6.6666-1.2341c-1.8785-0.7945-3.5088-2.0728-4.7218-3.7023
			c-1.2662-1.6307-2.0737-3.5654-2.3403-5.6066c-0.3461-2.3109-0.2057-4.6679,0.4121-6.9224
			c0.5809-2.4256,1.5669-4.7378,2.9171-6.8407c1.3392-2.1532,3.0555-4.0518,5.0679-5.6066
			c1.9219-1.6162,4.1215-2.8759,6.4935-3.7187c2.2594-0.821,4.6476-1.2388,7.0538-1.2341c1.8083-0.0281,3.6083,0.2482,5.3234,0.8173
			c1.6139,0.5999,3.1028,1.4892,4.3922,2.6235L1983.1638,305.9714z"/>
		<path class="st2" d="M1983.6665,331.1276l7.9686-33.231h18.1949l-1.0959,4.6095h-12.8799l-1.9447,8.3282h12.8881l-1.17,4.6994
			h-12.9048l-2.5875,10.7147h12.913l-1.1619,4.9037L1983.6665,331.1276z"/>
		<path class="st2" d="M1886.8984,268.9646h-36.4393l50.646-181.6343h36.4971L1886.8984,268.9646z"/>
		<path class="st2" d="M1867.9536,93.0514c-2.4886-3.4926-6.3782-5.2388-11.6686-5.2388h-200.59l-9.8885,35.6174h182.3949
			l-10.6466,38.0121h-182.3785l-30.2592,108.4134h36.4972l20.2716-72.7387h164.0352c5.2725-0.0359,10.3734-1.8617,14.4539-5.1734
			c4.3193-3.1939,7.4491-7.7179,8.8997-12.8641l20.2716-72.7387C1870.9449,100.8401,1870.434,96.4676,1867.9536,93.0514z"/>
		<path class="st2" d="M1583.6073,257.5716c-2.022,7.1847-8.6057,12.1662-16.1267,12.2021h-188.0891
			c-4.4646,0.327-8.7891-1.6265-11.4708-5.1816c-2.58-3.7838-3.1715-8.5659-1.5905-12.856l45.8749-163.8501h36.5054
			l-40.9882,146.499h145.9802l40.9882-146.499h36.4972L1583.6073,257.5716z"/>
		<polygon class="st3" points="2000.6172,87.6572 2046.7557,178.6787 1949.7322,269.7002 		"/>
		<polygon class="st4" points="1968.1992,87.6572 2014.3376,178.6787 1917.24,269.7002 		"/>
	</g>
</g>
</svg>
