<?xml version="1.0" encoding="utf-8"?>
<!-- Generator: Adobe Illustrator 27.1.1, SVG Export Plug-In . SVG Version: 6.00 Build 0)  -->
<svg version="1.1" id="Layer_1" xmlns="http://www.w3.org/2000/svg" xmlns:xlink="http://www.w3.org/1999/xlink" x="0px" y="0px"
	 viewBox="0 0 1050 200.3816833" style="enable-background:new 0 0 1050 200.3816833;" xml:space="preserve">
<style type="text/css">
	.st0{fill:#00434D;}
	.st1{fill:#FFFFFF;}
	.st2{fill:#078142;}
	.st3{fill:#EA7726;}
</style>
<g>
	<path class="st0" d="M1015.1170654,200.3816833H34.8829117C15.6176109,200.3816833,0,184.7640686,0,165.498764V34.8829117
		C0,15.6176109,15.6176109,0,34.8829117,0h980.2341309C1034.3824463,0,1050,15.6176109,1050,34.8829117V165.498764
		C1050,184.7640686,1034.3824463,200.3816833,1015.1170654,200.3816833z"/>
	<g>
		<path class="st1" d="M643.6071777,142.177948h2.4934692l-2.3361816,9.6425171
			c-0.3848877,1.0572662-0.3152466,2.2249146,0.192749,3.2297668c0.6461792,0.7816772,1.651062,1.1806183,2.6625977,1.0570831
			c1.1526489,0.0441895,2.2817383-0.3318634,3.1738892-1.0570831c0.9105835-0.8689575,1.5251465-1.9979858,1.7580566-3.2297668
			l2.3597412-9.6425323h2.5053101l-2.3597412,9.8726654c-0.3521729,1.8675079-1.3341064,3.5607758-2.7845459,4.8017578
			c-1.4850464,1.1277313-3.322998,1.7008362-5.1915283,1.6187897c-2.1434326,0-3.6104736-0.5148926-4.4088745-1.5602875
			c-0.7983398-1.0453796-0.9439087-2.6914673-0.4522705-4.813446L643.6071777,142.177948z"/>
		<path class="st1" d="M656.0628662,158.0381775l3.9683228-16.449234l7.5355835,9.7010345
			c0.2005615,0.2730408,0.3933105,0.5499878,0.5938721,0.8620453c0.2005615,0.3120422,0.3933105,0.6748199,0.637146,1.0609894
			l2.6547241-10.9765625h2.3598022l-3.9841309,16.4375305l-7.7006836-9.8804474l-0.5899658-0.8269501
			c-0.1948242-0.2870789-0.3545532-0.5960999-0.4758911-0.9205627l-2.6625977,11.0389709h-2.3361816V158.0381775z"/>
		<path class="st1" d="M673.5960083,158.0381775l3.8110352-15.8602448h2.5407104l-3.7756958,15.8602448H673.5960083z"/>
		<path class="st1" d="M679.7432251,158.0381775l3.8503418-15.8602448h8.6918335l-0.5584717,2.172699h-6.1472168
			l-0.9281616,3.935791h6.151123l-0.5505981,2.2468109h-6.1747437l-1.793457,7.4308167h-2.5406494V158.0381775z"/>
		<path class="st1" d="M691.2746582,158.0381775l3.8031616-15.8602448h2.5407104l-3.8031616,15.8602448H691.2746582z"/>
		<path class="st1" d="M697.4061279,158.0381775l3.8110352-15.8602448h8.6918335l-0.519104,2.172699h-6.1511841
			l-0.9281616,3.9748077h6.151123l-0.5545044,2.2429047h-6.1787109l-1.2349243,5.1138h6.151123l-0.5584717,2.3404236
			L697.4061279,158.0381775z"/>
		<path class="st1" d="M709.0280151,158.0381775l3.8110352-15.8602448h3.4138184
			c1.555481-0.0628052,3.1130371,0.0550079,4.6409302,0.351059c0.7833862,0.2008667,1.5039062,0.5923615,2.0962524,1.1390076
			c0.7295532,0.7304688,1.2143555,1.666214,1.3883667,2.6797791c0.1842041,1.2473755,0.1187134,2.5185242-0.192749,3.7407684
			c-0.3334961,1.3260498-0.8849487,2.588562-1.6321411,3.7368622c-0.7032471,1.0686188-1.6234741,1.9799957-2.7019653,2.6758728
			c-0.7961426,0.537674-1.6854858,0.9251099-2.623291,1.1428986c-1.3538818,0.2772064-2.7362061,0.3937378-4.1177979,0.347168
			h-4.0824585V158.0381775z M712.1271973,155.6743469h2.1434937c0.9028931,0.0222473,1.8054199-0.0575714,2.6901245-0.2379303
			c0.6107788-0.1550903,1.1879272-0.4194641,1.7030029-0.7801361c0.7263794-0.5132294,1.3371582-1.1707916,1.793396-1.9308624
			c0.5055542-0.8256378,0.8659668-1.7304688,1.0658569-2.6758728c0.2365723-0.85672,0.3060303-1.7503967,0.2045288-2.6329651
			c-0.0942993-0.7144775-0.3978882-1.3858185-0.8731689-1.9308472c-0.3743896-0.3930206-0.8596191-0.664917-1.3922119-0.7801361
			c-0.9144287-0.1863556-1.8475952-0.2662048-2.7806396-0.2379456h-1.8563843L712.1271973,155.6743469z"/>
		<path class="st1" d="M735.8075562,150.8999023l-1.7069092,7.1304779h-2.3597412l3.8031616-15.8602448h3.8503418
			c0.8240967-0.0230103,1.6482544,0.0423889,2.4581299,0.1950378c0.4654541,0.0852051,0.8951416,0.3050537,1.2349243,0.6319122
			c0.4191895,0.3982086,0.6954346,0.9215393,0.7866211,1.4900665c0.1032715,0.6831512,0.0739136,1.3795776-0.0865479,2.0517731
			c-0.180481,0.7428436-0.4949341,1.4471893-0.9281616,2.079071c-0.3980103,0.5949707-0.911377,1.1054688-1.5102539,1.50177
			c-0.4797363,0.2885742-1.0028687,0.4992676-1.5496216,0.624115c-0.8379517,0.1513824-1.6890869,0.2193298-2.5406494,0.2028198
			h-1.46698L735.8075562,150.8999023z M736.5037231,148.7935333h0.6331787
			c1.0036621,0.0703735,2.0100098-0.0939636,2.9379272-0.4797974c0.5900879-0.3704376,0.9944458-0.9713287,1.1130371-1.6538849
			c0.2442627-0.6014862,0.1188354-1.2886047-0.3225098-1.7670135c-0.7984009-0.4323883-1.7110596-0.6120605-2.6154175-0.5149078
			h-0.6331787L736.5037231,148.7935333z"/>
		<path class="st1" d="M752.3928833,158.0381775l-0.7866211-4.0918274h-6.1983032l-2.7845459,4.0918274h-2.6586914
			l11.5196533-16.449234l3.5396729,16.449234H752.3928833z M746.9181519,151.7970581h4.3262939l-0.7158203-3.6276398
			c-0.0439453-0.2579041-0.0689087-0.518631-0.074707-0.7801514c-0.0393677-0.3235016-0.0551147-0.6493988-0.0471802-0.975174
			c-0.1462402,0.3362885-0.3157349,0.6621246-0.5073853,0.975174c-0.1411743,0.2879791-0.3028564,0.5656281-0.4837646,0.8308563
			L746.9181519,151.7970581z"/>
		<path class="st1" d="M758.7288818,158.0381775l1.7423096-7.2397003l-3.1699829-8.5815277h2.6586914l1.986145,5.3907623
			c0.0422363,0.1860504,0.0947876,0.3696594,0.1572876,0.5500031c0.0747681,0.2379303,0.1219482,0.4680786,0.1966553,0.7099304
			l0.4719849-0.7099304c0.1690674-0.2379456,0.326416-0.4329681,0.4837646-0.624115l4.6369629-5.3166504h2.5406494
			l-7.4215088,8.534729l-1.7304688,7.2396851h-2.5407104L758.7288818,158.0381775z"/>
		<path class="st1" d="M782.8457642,150.2016754c0.0229492-0.342514,0.0636597-0.6836243,0.1219482-1.0219879
			c0.0075684-0.3822479,0.0470581-0.7632141,0.117981-1.1390076c-0.1573486,0.3549652-0.3146362,0.7060242-0.519165,1.1038971
			c-0.2103271,0.3844147-0.4481812,0.7533112-0.711853,1.1038971l-6.1157227,8.4528198l-1.9664917-8.6127319
			c-0.0859375-0.3395691-0.1541748-0.6832733-0.2045288-1.0297852c-0.0426025-0.3234863-0.0675659-0.6490173-0.074707-0.975174
			c-0.0825806,0.3120422-0.2045288,0.6631165-0.3225098,1.0609894c-0.1307373,0.3905487-0.2897949,0.7712097-0.4758911,1.1390076
			l-3.571106,7.8013916h-2.3362427l7.6968384-16.4882507l2.1906738,10.0014038
			c0.0504761,0.2579498,0.0872192,0.5183563,0.1101074,0.7801361c0.0412598,0.4638214,0.1094971,0.9248657,0.2045288,1.3808441
			c0.2792358-0.4680786,0.6292725-1.0219727,1.1129761-1.7279968c0.0980225-0.1387787,0.1873169-0.283371,0.2674561-0.4329681
			l6.8669434-10.0013885l-0.2438354,16.5584717h-2.3361816L782.8457642,150.2016754z"/>
		<path class="st1" d="M787.0658569,158.0381775l3.8110352-15.8602448h8.6525269l-0.4916382,2.1999969h-6.1668701
			l-0.9124756,3.974823h6.135437l-0.5545654,2.2428894h-6.151123l-1.2349854,5.1138153h6.1511841l-0.5545654,2.3404236
			L787.0658569,158.0381775z"/>
		<path class="st1" d="M798.6130371,158.0381775l4.0076904-16.449234l7.543396,9.7010345
			c0.192749,0.2730408,0.3933105,0.5499878,0.5938721,0.8620453c0.2006226,0.3120422,0.3933105,0.6748199,0.637146,1.0609894
			l2.6547852-10.9765625h2.3361816l-3.9762573,16.4375305l-7.6810913-9.8804474l-0.578125-0.8269501
			c-0.199585-0.2854767-0.3621216-0.5947723-0.4837646-0.9205627l-2.6625977,11.0389709h-2.3833618L798.6130371,158.0381775z"/>
		<path class="st1" d="M824.4840698,144.3506317l-3.2919312,13.6524353h-2.5406494l3.2918701-13.6524353h-4.1296387
			l0.519165-2.1999969h10.788147l-0.5073853,2.1999969H824.4840698z"/>
		<path class="st1" d="M827.1466675,154.8474121l2.2536011-0.9205627c-0.0148926,0.6078033,0.2310181,1.1933136,0.6764526,1.6109924
			c0.5325928,0.3974915,1.1911621,0.5926056,1.8563843,0.5499878c0.7015381,0.0207367,1.3880615-0.2043762,1.9389038-0.6358032
			c0.5524292-0.4177704,0.9348755-1.0186462,1.0776367-1.6929016c0.2399292-0.9166718-0.3185425-1.7631226-1.6715088-2.473053
			c-0.1375122-0.0929108-0.2837524-0.1725769-0.4365234-0.2379303c-1.1288452-0.530426-2.1092529-1.3273468-2.8553467-2.3209229
			c-0.4011841-0.7790985-0.484314-1.6815491-0.2320557-2.5198364c0.2940063-1.2542419,1.0217896-2.366684,2.0569458-3.1439667
			c1.0631104-0.8114014,2.3713989-1.2429962,3.7127075-1.224823c0.9637451-0.0447693,1.9199829,0.1882629,2.7530518,0.6709137
			c0.6558838,0.4398346,1.0775146,1.1488037,1.1484375,1.9308472l-2.237854,1.0219727
			c-0.1385498-0.4317627-0.399292-0.8149261-0.7511597-1.1038971c-0.3452759-0.2393188-0.7588501-0.362381-1.1799316-0.351059
			c-0.6274414-0.0177612-1.2421875,0.1776886-1.7423096,0.5539093c-0.4793701,0.3551331-0.8098755,0.8731995-0.9281616,1.4549713
			c-0.2438354,0.9166565,0.4365845,1.8372192,1.9664917,2.6758728c0.0900269,0.0572205,0.1832275,0.109314,0.2792358,0.1560211
			c1.0620117,0.4582672,1.9793091,1.1928101,2.6547241,2.125885c0.4124146,0.8021545,0.4983521,1.7307892,0.2399292,2.5939636
			c-0.3075562,1.4184265-1.1080322,2.6845245-2.2614746,3.5769348c-1.1700439,0.8901215-2.6079102,1.3641205-4.0823975,1.3457489
			c-1.0991211,0.0743408-2.1876221-0.2531433-3.0598145-0.9205627
			C827.4871216,156.9216003,827.0435791,155.8946838,827.1466675,154.8474121z"/>
		<path class="st1" d="M845.8400269,158.0381775l3.8031616-15.8602448h2.5407104l-3.8110352,15.8602448H845.8400269z"/>
		<path class="st1" d="M852.0147705,158.0381775l3.97229-16.449234l7.5512695,9.6425171
			c0.192749,0.276947,0.3933105,0.5500031,0.5938721,0.8659515c0.2006226,0.3159637,0.3933105,0.670929,0.6292725,1.0570984
			l2.6626587-10.9765625h2.3361816l-3.9605103,16.449234l-7.6889648-9.8804626l-0.5938721-0.8269501
			c-0.199585-0.2854767-0.3621216-0.5947723-0.4837036-0.9205475l-2.6508179,11.0389557h-2.3598022H852.0147705z"/>
		<path class="st1" d="M877.8504028,144.3506317l-3.2958374,13.6524353h-2.5407104l3.2919312-13.6524353h-4.1256714
			l0.519104-2.1999969h10.788147l-0.5112915,2.1999969H877.8504028z"/>
		<path class="st1" d="M880.5838013,158.0381775l3.8150024-15.8602448h8.7272339l-0.519165,2.1999969h-6.151123l-0.9282227,3.974823
			h6.1511841l-0.5466919,2.2428894h-6.1511841l-1.2310181,5.1138153h6.1393433l-0.5545044,2.3404236L880.5838013,158.0381775z"/>
		<path class="st1" d="M896.2605591,150.8999023l-1.7069092,7.0836639h-2.3833618l3.838562-15.848526h3.5396729
			c0.7911987-0.0195618,1.5822754,0.0445099,2.3598022,0.1911316c0.4942017,0.0892181,0.9502563,0.3228455,1.3096924,0.6709137
			c0.4007568,0.4069519,0.6633911,0.927887,0.7511597,1.4900665c0.1104736,0.6678619,0.085083,1.3508911-0.074707,2.0088654
			c-0.229248,1.13591-0.7980347,2.177063-1.6322021,2.9879303c-0.8329468,0.7294312-1.8728027,1.1858063-2.9772339,1.3067322
			l3.6182861,7.1928864h-2.8592529l-3.4688721-7.0836639H896.2605591z M896.9370728,148.9495544h0.4758911
			c0.9517212,0.0764923,1.9075928-0.0844269,2.7805786-0.4680939c0.5733643-0.3963623,0.9584351-1.0079651,1.0658569-1.6929016
			c0.2045288-0.8659515,0.1218872-1.4900665-0.2753296-1.8411255c-0.7474365-0.4542389-1.6264038-0.6478119-2.4974365-0.5500031
			h-0.4719238L896.9370728,148.9495544z"/>
		<path class="st1" d="M904.3585205,158.0381775l3.8031616-15.8602448h8.6918335l-0.4365234,2.172699h-6.151123l-0.9242554,3.935791
			h6.1472168l-0.5545044,2.2468109h-6.2141113l-1.793396,7.4308167h-2.5682373L904.3585205,158.0381775z"/>
		<path class="st1" d="M925.3408813,158.0381775l-0.7865601-4.0918274h-6.1983643l-2.7805786,4.0918274h-2.6626587
			l11.5117798-16.449234l3.571167,16.496048L925.3408813,158.0381775z M919.8347778,151.7970581h4.3262329l-0.7197266-3.6276398
			c-0.0535278-0.2567749-0.0824585-0.5179901-0.0865479-0.7801514c-0.0196533-0.3247528-0.0196533-0.6504059,0-0.975174
			c-0.1446533,0.3391571-0.3183594,0.66539-0.519104,0.975174c-0.137146,0.2877655-0.2949219,0.5654297-0.4719849,0.8308563
			L919.8347778,151.7970581z"/>
		<path class="st1" d="M944.5062256,146.0318298c-0.5357056-0.607666-1.2098389-1.0797272-1.9664917-1.3769531
			c-0.7629395-0.3270264-1.5877686-0.4879608-2.4187622-0.4719696c-1.6660767-0.0064697-3.2797852,0.5772705-4.550415,1.6460876
			c-1.3410645,1.1103973-2.2732544,2.6302795-2.6508179,4.3219604c-0.451416,1.4294434-0.2487793,2.9833069,0.5545044,4.25177
			c0.803772,1.1312103,2.1484375,1.759491,3.5396729,1.6538849c0.9428101,0.0080719,1.8780518-0.1668396,2.7531128-0.5148926
			c0.9937744-0.3652344,1.9310913-0.8667908,2.7845459-1.4900665l-0.7473145,2.9216309
			c-0.7711182,0.4942169-1.6149902,0.8666229-2.5013428,1.1038971c-0.8763428,0.2380066-1.7816162,0.3548431-2.6901855,0.347168
			c-1.090271,0.0245514-2.1737671-0.1760406-3.1817627-0.5890045c-0.8965454-0.3792114-1.6746216-0.9892883-2.25354-1.7670135
			c-0.6043701-0.7783051-0.9898071-1.7016602-1.1170044-2.6758728c-0.1651611-1.102951-0.0982056-2.2278748,0.1966553-3.303894
			c0.2772827-1.1576843,0.7478638-2.2612152,1.3922729-3.2648773c0.6392212-1.0276642,1.458313-1.9338379,2.4187622-2.6758728
			c0.9172363-0.7713776,1.967041-1.3725891,3.0991821-1.7748108c1.0783691-0.391861,2.2181396-0.5912628,3.3666382-0.5890198
			c0.8630371-0.0134277,1.7221069,0.118454,2.5406494,0.3900757c0.7703247,0.2863159,1.480896,0.7107544,2.0963135,1.252121
			L944.5062256,146.0318298z"/>
		<path class="st1" d="M944.7460938,158.0381775l3.8032227-15.8602448h8.68396l-0.5230713,2.1999969h-6.1472168l-0.9281616,3.974823
			h6.151123l-0.5584717,2.2428894h-6.1590576l-1.2349243,5.1138153h6.1629639l-0.5545654,2.3404236L944.7460938,158.0381775z"/>
		<path class="st1" d="M898.5613403,128.3694763h-17.3915405l24.1719971-86.6890869h17.4190674L898.5613403,128.3694763z"/>
		<path class="st1" d="M889.5194702,44.4108734c-1.1877441-1.6669006-3.0440674-2.5003471-5.5690308-2.5003471h-95.736145
			l-4.7195435,16.9992371h87.052124l-5.0813599,18.1421394h-87.0443115l-14.4418335,51.7427444h17.4190674l9.6751099-34.7162018
			h78.2894897c2.5164185-0.0171509,4.9509888-0.8885498,6.8984375-2.4691391
			c2.0615234-1.5243607,3.5552979-3.6835632,4.2475586-6.1396942l9.6751099-34.7162056
			C890.9471436,48.1282349,890.7033081,46.0413628,889.5194702,44.4108734z"/>
		<path class="st1" d="M753.8087158,122.9319077c-0.9650269,3.4290848-4.1072388,5.8066177-7.6967773,5.8237381h-89.7698364
			c-2.1307983,0.1560822-4.1947632-0.7762527-5.4746704-2.4730377c-1.2313843-1.8058777-1.5137329-4.0882492-0.7590942-6.1357956
			l21.8948364-78.2011795h17.4229736l-19.562561,69.9199905h69.6724243l19.562561-69.9199905h17.4190674L753.8087158,122.9319077z"
			/>
		<polygon class="st2" points="952.8362427,41.8364105 974.8568726,85.2784729 928.5501709,128.7205353 		"/>
		<polygon class="st3" points="937.3639526,41.8364105 959.3846436,85.2784729 913.0425415,128.7205353 		"/>
	</g>
	<g id="donate">
		<g>
			<path class="st1" d="M73.299202,107.6550522c0-13.125,6.8129807-21.4408417,17.2328186-21.4408417
				c5.9112625,0,10.6202316,3.1059189,12.8244324,7.7146912h0.2003784V76.2953262
				c0-3.3062973,2.0038147-5.1097336,4.809166-5.1097336c2.8053436,0,4.9093475,1.8034439,4.9093475,5.1097336v47.9914169
				c0,3.1059113-2.0038147,4.9093475-4.8091583,4.9093475c-2.8053513,0-4.9093552-1.7032394-4.9093552-4.9093475v-3.2061157
				h-0.2003784c-2.0038147,4.809166-6.4122162,8.015274-12.9246216,8.015274
				C80.0119858,129.0959015,73.299202,120.880249,73.299202,107.6550522z M103.5568314,107.6550522
				c0-8.1154556-4.007637-13.4255753-10.2194672-13.4255753c-6.3120193,0-10.2194595,5.2099228-10.2194595,13.4255753
				s3.9074478,13.4255753,10.2194595,13.4255753C99.5491943,121.0806274,103.5568314,115.8707047,103.5568314,107.6550522z"/>
			<path class="st1" d="M205.7514801,128.7953186c-3.3062897,0-5.2099152-2.0038147-5.2099152-5.7108765v-19.737587
				c0-5.4103088-2.7051544-8.5162201-7.5143127-8.5162201c-5.4102936,0-8.7165985,3.9074402-8.7165985,10.4198456v17.8339615
				c0,3.6068802-1.9036255,5.7108765-5.2099152,5.7108765c-3.3063049,0-5.2099304-2.0038147-5.2099304-5.7108765V92.0252838
				c0-3.4064865,2.0038147-5.510498,5.1097412-5.510498s4.9093475,1.8034439,5.0095367,5.2099228v2.5047684h0.5009613
				c1.6030579-4.9093475,6.312027-8.0152664,12.3234711-8.0152664c8.816803,0,13.8263397,5.2099228,13.8263397,14.3272934
				v22.5429382C210.8612213,126.7915039,209.057785,128.7953186,205.7514801,128.7953186z"/>
			<path class="st1" d="M232.302063,128.995697c-8.1154633,0-13.6259613-5.1097336-13.6259613-12.6240463
				c0-7.7146912,5.7108765-12.4236603,15.1288147-12.4236603h9.8187103v-3.4064941
				c0-4.2080078-2.6049652-6.4122162-7.3139343-6.4122162c-3.1059265,0-5.4102936,1.2022934-7.7146912,3.2061081
				c-1.2022858,0.9017181-2.3043976,1.4026718-3.9074402,1.4026718c-2.3043823,0-3.7070618-1.502861-3.7070618-3.6068649
				c0-2.4045868,1.7032471-4.9093552,5.3101196-6.7127838c2.6049805-1.4026794,6.1116486-2.1040115,10.6202393-2.1040115
				c10.9207916,0,17.0324402,5.2099228,17.0324402,14.3272934v22.7433243c0,3.5066833-1.8034363,5.5105057-5.0095367,5.5105057
				c-2.7051544,0-4.5085907-1.5028687-4.8091583-4.2080154v-1.4026794h-0.5009613
				C241.4194336,126.8917007,237.3115997,128.995697,232.302063,128.995697z M235.7085419,121.5815811
				c4.5085907,0,7.9150696-3.005722,7.9150696-7.0133591v-4.3082047h-8.015274
				c-4.2080078,0-6.7127686,2.0038147-6.7127686,5.4103012C228.8955841,119.177002,231.7009125,121.5815811,235.7085419,121.5815811
				z"/>
			<path class="st1" d="M266.667511,95.3315887h-2.1040344c-2.8053284,0-4.4083862-1.5028687-4.4083862-4.007637
				s1.6030579-4.007637,4.4083862-4.007637h2.3043823v-5.4103012c0-3.6068726,1.8034363-5.510498,5.009552-5.510498
				s5.009552,2.0038147,5.009552,5.510498v5.4103012h4.1078186c2.8053284,0,4.4083862,1.5028687,4.4083862,4.007637
				s-1.6030579,4.007637-4.4083862,4.007637h-4.0076294v20.9398804c0,3.8072586,1.0018921,5.0095444,4.1078186,5.0095444
				c1.1021118,0,1.8034363-0.2003784,2.7051697-0.2003784c1.8034363,0,3.0057373,1.2022858,3.0057373,3.1059189
				c0,1.502861-0.701355,2.8053436-2.1040344,3.7070541c-1.4026489,0.9017105-3.6068726,1.4026718-6.4122009,1.4026718
				c-8.2156677,0-11.7223206-3.4064865-11.7223206-11.9227142V95.3315887H266.667511z"/>
			<path class="st1" d="M291.71521,105.0500946c0-11.3215714,7.5143127-19.0362625,18.635498-19.0362625
				c10.52005,0,18.0343628,7.5143127,18.0343628,17.7337799c0,4.6087723-1.3024597,6.2118301-5.2099304,6.2118301h-21.0400696
				v1.8034363c0,5.8110733,3.7070618,9.5181274,9.8186646,9.5181274c3.2061157,0,5.510498-0.8015289,7.3139343-2.30439
				c2.0038147-1.502861,2.7051697-2.1040039,4.308197-2.1040039c2.1040039,0,3.6068726,1.502861,3.6068726,3.807251
				c0,1.8034363-1.1021118,3.6068726-3.1059265,5.009552c-2.7051697,2.30439-7.5143127,3.7070541-12.8244019,3.7070541
				c-12.1231079,0-19.6374207-7.1135483-19.6374207-18.9360657v-5.4103088H291.71521z M318.5663757,103.4470444
				L318.5663757,103.4470444c0-5.7108765-3.1059265-9.4179459-8.0152588-9.4179459
				c-5.1097412,0-8.3158264,3.8072586-8.3158264,9.3177567v0.1001892H318.5663757z"/>
			<path class="st1" d="M360.0453796,94.1292877c-0.3005676-1.2022858-0.4007568-1.9036255-0.4007568-2.5047684
				c0-2.9055328,2.1040039-5.0095444,5.2099304-5.0095444c2.7051697,0,4.508606,1.8034439,5.009552,5.1097336l5.2099304,25.9494324
				h0.500946l6.211853-24.5467606c1.202301-4.8091583,2.9055176-6.6125946,6.3120117-6.6125946
				s5.2099304,1.8034439,6.4122009,6.6125946l6.3120117,24.5467606h0.500946l5.4103088-25.9494324
				c0.6011658-3.2061005,2.4045715-5.1097336,5.009552-5.1097336c3.1059265,0,5.0095215,2.0038223,5.0095215,4.7089691
				c0,0.6011429-0.2003784,1.502861-0.500946,2.7051468l-7.2137451,26.5505753
				c-1.7032471,6.2118378-3.7070618,8.2156525-7.3139343,8.2156525c-3.9074097,0-5.9112549-2.0038147-7.5143127-8.2156448
				l-6.0114441-21.8416061h-0.4007568l-5.8110352,21.8416061c-1.6030884,6.312027-3.4064941,8.2156448-7.3139343,8.2156448
				c-3.807251,0-5.9112549-2.1040115-7.5143127-8.2156448L360.0453796,94.1292877z"/>
			<path class="st1" d="M427.5740051,70.9852066c3.4064636,0,5.9112549,2.3043976,5.9112549,5.4103088
				s-2.5047913,5.4103088-5.9112549,5.4103088c-3.3063049,0-5.8110657-2.3043976-5.8110657-5.4103088
				S424.2677002,70.9852066,427.5740051,70.9852066z M427.5740051,128.7953186
				c-3.2061157,0-5.1097412-2.0038147-5.1097412-5.7108765V92.2256622c0-3.807251,2.0038147-5.7108765,5.2099304-5.7108765
				s5.1097412,2.0038223,5.1097412,5.7108765v30.9589691C432.7839355,126.8917007,430.7801208,128.7953186,427.5740051,128.7953186z
				"/>
			<path class="st1" d="M444.7066345,95.3315887h-2.1040039c-2.8053284,0-4.4083862-1.5028687-4.4083862-4.007637
				s1.6030579-4.007637,4.4083862-4.007637h2.3043823v-5.4103012c0-3.6068726,1.8034058-5.510498,5.0095215-5.510498
				s5.009552,2.0038147,5.009552,5.510498v5.4103012h4.1078186c2.8053284,0,4.4084167,1.5028687,4.4084167,4.007637
				s-1.6030884,4.007637-4.4084167,4.007637h-4.0076294v20.9398804c0,3.8072586,1.0019226,5.0095444,4.1078491,5.0095444
				c1.1020813,0,1.8034058-0.2003784,2.7051392-0.2003784c1.8034363,0,3.0057373,1.2022858,3.0057373,3.1059189
				c0,1.502861-0.701355,2.8053436-2.1040039,3.7070541c-1.4026794,0.9017105-3.6068726,1.4026718-6.4122009,1.4026718
				c-8.2156677,0-11.7223511-3.4064865-11.7223511-11.9227142V95.3315887H444.7066345z"/>
			<path class="st1" d="M501.9156189,128.7953186c-3.3062744,0-5.2099304-2.0038147-5.2099304-5.7108765v-19.6373978
				c0-5.4103088-2.8053284-8.5162201-7.6145325-8.5162201c-5.3100891,0-8.8167725,4.0076294-8.8167725,10.4198456v17.8339691
				c0,3.6068802-1.9036255,5.7108841-5.2099304,5.7108841s-5.1097412-2.0038223-5.1097412-5.7108841V77.5978012
				c0-3.6068649,1.8034363-5.7108765,5.2099304-5.7108765c3.3063049,0,5.1097412,2.1040115,5.1097412,5.7108765v16.6316757h0.500946
				c1.4026794-4.7089615,6.5124207-8.0152664,12.4236755-8.0152664c8.6164246,0,13.8263245,5.4103088,13.8263245,14.4274826
				v22.442749C507.1255188,126.7915039,505.2218933,128.7953186,501.9156189,128.7953186z"/>
		</g>
		<path id="heart_2_" class="st1" d="M154.4537811,86.2142105c-4.3082123,0-8.5162201,2.1040115-10.8206177,6.7127838
			c-2.3043823-4.6087723-6.5124054-6.7127838-10.8206177-6.7127838c-6.7127762,0-12.7242279,4.7089691-12.7242279,13.125
			c0,14.2270966,19.4370117,21.4408417,23.5448456,29.9570694c4.1078339-8.5162277,23.5448456-15.7299652,23.5448456-29.9570694
			C167.178009,90.3220444,160.4652252,86.2142105,154.4537811,86.2142105z M150.3459473,96.2332993
			c3.005722,0,5.7108765,2.0038147,5.7108765,6.0114517c0,6.3120193-8.3158417,10.620224-12.8244324,15.2290039
			c-4.4083862-4.6087799-12.8244324-8.9169922-12.8244324-15.2290039c0-3.9074478,2.6049652-6.0114517,5.7108765-6.0114517
			c4.1078339,0,6.2118378,4.6087723,7.0133667,6.8129807C144.1341248,100.8420792,146.3383179,96.2332993,150.3459473,96.2332993z"
			/>
	</g>
</g>
</svg>
