<?xml version="1.0" encoding="utf-8"?>
<!-- Generator: Adobe Illustrator 27.1.1, SVG Export Plug-In . SVG Version: 6.00 Build 0)  -->
<svg version="1.1" id="Layer_1" xmlns="http://www.w3.org/2000/svg" xmlns:xlink="http://www.w3.org/1999/xlink" x="0px" y="0px"
	 viewBox="0 0 1034 202" style="enable-background:new 0 0 1034 202;" xml:space="preserve">
<style type="text/css">
	.st0{fill:#08324A;}
	.st1{fill:#FFFFFF;}
</style>
<g>
	<path class="st0" d="M995.6,202H38.4C17.2,202,0,184.8,0,163.6V38.4C0,17.2,17.2,0,38.4,0h957.1c21.2,0,38.4,17.2,38.4,38.4v125.1
		C1034,184.8,1016.8,202,995.6,202z"/>
	<g>
		<path class="st1" d="M101,126.1v-1c-1.4,1.6-2.8,3-4.2,4c-1.4,1-2.9,1.8-4.5,2.3c-1.6,0.5-3.4,0.8-5.3,0.8c-2.5,0-4.9-0.5-7-1.6
			c-2.2-1.1-4-2.6-5.6-4.6c-1.6-2-2.8-4.3-3.6-7c-0.8-2.7-1.2-5.6-1.2-8.7c0-6.6,1.6-11.8,4.8-15.5c3.2-3.7,7.5-5.5,12.8-5.5
			c3,0,5.6,0.5,7.7,1.6c2.1,1,4.1,2.7,6.1,4.8V80c0-2.2,0.4-3.8,1.3-4.9c0.9-1.1,2.1-1.7,3.7-1.7c1.6,0,2.8,0.5,3.7,1.5
			c0.9,1,1.3,2.5,1.3,4.5v46.7c0,2-0.5,3.5-1.4,4.5c-0.9,1-2.1,1.5-3.6,1.5c-1.4,0-2.6-0.5-3.6-1.6C101.5,129.6,101,128.1,101,126.1
			z M80.6,110.4c0,2.8,0.4,5.2,1.3,7.2c0.9,2,2.1,3.5,3.6,4.5c1.5,1,3.2,1.5,5,1.5c1.8,0,3.5-0.5,5-1.4c1.5-1,2.7-2.4,3.6-4.4
			c0.9-2,1.4-4.4,1.4-7.4c0-2.8-0.5-5.1-1.4-7.1c-0.9-2-2.1-3.5-3.7-4.6c-1.5-1.1-3.2-1.6-5-1.6c-1.9,0-3.6,0.5-5.1,1.6
			c-1.5,1.1-2.7,2.6-3.5,4.6C81,105.4,80.6,107.8,80.6,110.4z"/>
		<path class="st1" d="M160.2,110.5c0,3.1-0.5,6-1.4,8.6c-1,2.6-2.4,4.9-4.2,6.7c-1.8,1.9-4,3.3-6.5,4.3c-2.5,1-5.4,1.5-8.6,1.5
			c-3.1,0-6-0.5-8.5-1.5c-2.5-1-4.7-2.5-6.5-4.4c-1.8-1.9-3.2-4.1-4.2-6.7c-1-2.6-1.4-5.4-1.4-8.5c0-3.1,0.5-6,1.4-8.6
			c1-2.6,2.3-4.8,4.2-6.7c1.8-1.9,4-3.3,6.5-4.3c2.6-1,5.4-1.5,8.5-1.5c3.1,0,6,0.5,8.6,1.5c2.6,1,4.8,2.5,6.6,4.3
			c1.8,1.9,3.2,4.1,4.2,6.7C159.8,104.5,160.2,107.4,160.2,110.5z M149.8,110.5c0-4.2-0.9-7.5-2.8-9.9c-1.9-2.4-4.4-3.5-7.5-3.5
			c-2,0-3.8,0.5-5.4,1.6c-1.5,1.1-2.7,2.6-3.6,4.7c-0.8,2.1-1.3,4.5-1.3,7.2c0,2.7,0.4,5.1,1.2,7.1c0.8,2,2,3.6,3.5,4.7
			c1.5,1.1,3.3,1.6,5.4,1.6c3.1,0,5.7-1.2,7.5-3.6C148.9,118,149.8,114.7,149.8,110.5z"/>
		<path class="st1" d="M178,95.2v1.2c1.8-2.4,3.8-4.1,5.9-5.3c2.1-1.1,4.6-1.7,7.4-1.7c2.7,0,5.1,0.6,7.3,1.8c2.1,1.2,3.7,2.8,4.8,5
			c0.7,1.3,1.1,2.6,1.3,4.1c0.2,1.5,0.3,3.3,0.3,5.6v19.5c0,2-0.5,3.5-1.4,4.6c-0.9,1-2.1,1.5-3.6,1.5c-1.5,0-2.7-0.5-3.6-1.6
			c-0.9-1.1-1.4-2.6-1.4-4.5v-17.3c0-3.6-0.5-6.3-1.5-8.2c-1-1.9-3-2.8-5.9-2.8c-1.9,0-3.7,0.6-5.3,1.7c-1.6,1.2-2.8,2.7-3.5,4.7
			c-0.5,1.6-0.8,4.6-0.8,9.1v12.8c0,2-0.5,3.5-1.4,4.6c-0.9,1-2.2,1.5-3.6,1.5c-1.4,0-2.6-0.5-3.6-1.6c-0.9-1-1.4-2.6-1.4-4.5V95.4
			c0-2,0.4-3.5,1.3-4.6c0.9-1,2.1-1.5,3.6-1.5c0.9,0,1.8,0.2,2.5,0.7c0.8,0.4,1.4,1.1,1.8,2C177.8,92.9,178,93.9,178,95.2z"/>
		<path class="st1" d="M241.8,125.8c-2.5,2-4.9,3.4-7.3,4.4c-2.3,1-5,1.5-7.9,1.5c-2.7,0-5-0.5-7-1.6c-3.2-1.7-5.2-4.3-6.1-7.8
			c0-0.1-0.1-0.3-0.1-0.4c-0.5-3.7,0.4-6.8,2.6-9.2c1.8-2,4.3-3.4,7.4-4c0.7-0.2,2.3-0.5,4.9-1c2.6-0.5,4.9-1,6.7-1.5
			c1.9-0.4,3.9-1,6.1-1.6c-0.1-2.7-0.7-4.8-1.7-6c-1-1.3-3-1.9-6.1-1.9c-2.6,0-4.6,0.4-6,1.1c-1.3,0.7-2.5,1.8-3.4,3.3
			c-1,1.5-1.6,2.4-2,2.9c-0.4,0.5-1.2,0.7-2.5,0.7c-1.2,0-2.2-0.4-3-1.1c-0.9-0.7-1.3-1.7-1.3-2.9c0-1.8,0.6-3.6,1.9-5.3
			c1.3-1.7,3.3-3.1,6.1-4.3c2.7-1.1,6.2-1.7,10.2-1.7c4.6,0,8.2,0.5,10.8,1.6c2.6,1.1,4.5,2.8,5.5,5.1c1.1,2.3,1.6,5.4,1.6,9.3
			c0,2.4,0,4.5,0,6.2c0,1.7,0,3.6-0.1,5.7c0,2,0.3,4,1,6.1c0.6,2.1,1,3.5,1,4.1c0,1.1-0.5,2-1.5,2.9c-1,0.9-2.1,1.3-3.4,1.3
			c-1.1,0-2.1-0.5-3.2-1.5C244.1,129.1,243,127.7,241.8,125.8z M241,110.7c-1.5,0.6-3.7,1.1-6.6,1.8c-2.9,0.6-4.9,1.1-6,1.4
			c-1.1,0.3-2.2,0.9-3.2,1.7c-1,0.9-1.5,2-1.5,3.6c0,1.6,0.6,2.9,1.8,4c1.2,1.1,2.8,1.7,4.7,1.7c2.1,0,4-0.5,5.7-1.4
			c1.7-0.9,3-2.1,3.8-3.5c0.9-1.6,1.4-4.2,1.4-7.8V110.7z"/>
		<path class="st1" d="M260.5,90h1.5v-5.9c-0.4-1.7-0.3-3-0.2-3.9c0.1-1,0.3-1.8,0.7-2.5c0.4-0.7,1-1.3,1.8-1.7
			c0.8-0.4,1.6-0.7,2.6-0.7c1.3,0,2.5,0.5,3.6,1.5c0.7,0.7,1.2,1.5,1.4,2.4c0.2,1,0.3,2.3,0.3,4.1V90h3.8c1.5,0.3,2.6,0.7,3.4,1.3
			c0.8,0.7,1.2,1.6,1.2,2.7c0,1.4-0.6,2.4-1.7,2.9c-1.1,0.6-2.7,0.8-4.7,1h-2v18.9c0,1.6,0.1,2.9,0.2,3.8c0.1,0.9,0.4,1.6,0.9,2.1
			c0.5,0.5,1.3,0.8,2.4,0.8c0.6,0,1.4-0.1,2.5-0.3c1-0.2,1.9-0.3,2.4-0.3c0.8,0,1.6,0.3,2.3,1c0.7,0.7,1,1.5,1,2.5
			c0,1.7-0.9,3-2.7,3.8c-1.8,0.9-4.5,1.3-7.9,1.3c-3.2,0-5.7-0.5-7.4-1.6s-2.8-2.6-3.3-4.5c-0.5-1.9-0.8-4.5-0.4-7.7V98h-1.7
			c-1.5-0.2-2.6-0.6-3.4-1.3c-0.8-0.7-1.2-1.6-1.2-2.7c0-1.1,0.4-2,1.2-2.7C257.7,90.7,258.9,90.3,260.5,90z"/>
		<path class="st1" d="M316.5,113h-20.3c0,2.4,0.5,4.4,1.4,6.2c0.9,1.8,2.2,3.2,3.7,4.1c1.5,0.9,3.2,1.4,5.1,1.4
			c1.2,0,2.4-0.1,3.4-0.4c1-0.3,2-0.7,3-1.4c1-0.6,1.9-1.3,2.7-2c0.8-0.7,1.9-1.7,3.2-2.9c0.5-0.5,1.3-0.7,2.3-0.7
			c1.1,0,1.9,0.3,2.6,0.9c0.7,0.6,1,1.4,1,2.5c0,0.9-0.4,2-1.1,3.3c-0.7,1.3-1.8,2.5-3.3,3.6c-1.5,1.2-3.4,2.1-5.6,2.9
			c-2.2,0.8-4.8,1.1-7.7,1.1c-6.7,0-11.9-1.9-15.6-5.7c-3.7-3.8-5.6-9-5.6-15.5c0-3.1,0.5-5.9,1.4-8.5c0.9-2.6,2.2-4.9,4-6.8
			c1.8-1.9,3.9-3.3,6.5-4.3c2.6-1,5.4-1.5,8.5-1.5c4.1,0,7.5,0.9,10.5,2.6c2.9,1.7,5.1,3.9,6.5,6.6c1.4,2.7,2.2,5.5,2.2,8.3
			c0,2.6-0.7,4.3-2.2,5.1C321.4,112.6,319.2,113,316.5,113z M296.2,107H315c-0.3-3.6-1.2-6.2-2.9-8c-1.7-1.8-3.9-2.6-6.6-2.6
			c-2.6,0-4.7,0.9-6.4,2.7C297.6,100.9,296.6,103.5,296.2,107z"/>
		<path class="st1" d="M359.8,95.9l6.8,23.2l6.2-21.6c0.7-2.3,1.1-3.8,1.5-4.6c0.3-0.8,0.9-1.6,1.8-2.4c0.9-0.7,2.1-1.1,3.6-1.1
			c1.5,0,2.8,0.4,3.6,1.1c0.9,0.7,1.5,1.6,1.8,2.4c0.4,0.9,0.9,2.4,1.5,4.6l6.2,21.6l6.9-23.2c0.5-1.7,0.8-2.9,1.1-3.6
			c0.3-0.7,0.7-1.4,1.4-2c0.7-0.6,1.6-0.9,2.9-0.9c1.2,0,2.3,0.4,3.2,1.3c0.9,0.9,1.4,1.9,1.4,3c0,1.1-0.4,2.7-1.2,4.8l-8.5,24.9
			c-0.7,2.1-1.3,3.6-1.7,4.6c-0.4,0.9-1,1.8-1.9,2.5c-0.9,0.7-2.1,1.1-3.6,1.1c-1.6,0-2.8-0.4-3.7-1.2c-0.9-0.8-1.6-1.8-2-2.9
			c-0.4-1.1-0.9-2.6-1.4-4.5l-5.9-20.3l-5.7,20.3c-0.8,2.8-1.6,4.9-2.5,6.4c-0.9,1.4-2.4,2.2-4.7,2.2c-1.1,0-2.1-0.2-2.9-0.7
			c-0.8-0.4-1.5-1.1-2-1.9c-0.5-0.8-1-1.8-1.4-2.9c-0.4-1.1-0.7-2-1-2.7L351,98.6c-0.8-2.3-1.3-3.9-1.3-4.8c0-1.1,0.4-2.1,1.3-3
			c0.9-0.9,2-1.3,3.3-1.3c1.7,0,2.9,0.5,3.5,1.5C358.5,91.8,359.1,93.5,359.8,95.9z"/>
		<path class="st1" d="M422,84.6c-1.4,0-2.7-0.4-3.7-1.3c-1-0.9-1.5-2.1-1.5-3.8c0-1.5,0.5-2.7,1.6-3.6c1.1-1,2.3-1.4,3.7-1.4
			c1.3,0,2.5,0.4,3.6,1.3c1,0.9,1.6,2.1,1.6,3.8c0,1.6-0.5,2.8-1.5,3.8C424.6,84.1,423.4,84.6,422,84.6z M427,95.9v28.9
			c0,2-0.5,3.5-1.4,4.5c-1,1-2.2,1.5-3.6,1.5c-1.5,0-2.7-0.5-3.6-1.6c-0.9-1-1.4-2.6-1.4-4.5V96.2c0-2,0.5-3.5,1.4-4.5
			c0.9-1,2.1-1.5,3.6-1.5c1.5,0,2.7,0.5,3.6,1.5C426.5,92.7,427,94.1,427,95.9z"/>
		<path class="st1" d="M438.4,90h1.6v-5.9c-0.4-1.7-0.4-3-0.3-3.9c0.1-1,0.3-1.8,0.7-2.5c0.4-0.7,1-1.3,1.8-1.7
			c0.8-0.4,1.6-0.7,2.6-0.7c1.3,0,2.5,0.5,3.6,1.5c0.7,0.7,1.2,1.5,1.4,2.4c0.2,1,0.3,2.3,0.3,4.1V90h3.8c1.5,0.3,2.6,0.7,3.4,1.3
			c0.8,0.7,1.2,1.6,1.2,2.7c0,1.4-0.6,2.4-1.7,2.9c-1.1,0.6-2.7,0.8-4.7,1H450v18.9c0,1.6,0,2.9,0.2,3.8c0.1,0.9,0.4,1.6,0.9,2.1
			c0.5,0.5,1.3,0.8,2.4,0.8c0.6,0,1.4-0.1,2.5-0.3c1-0.2,1.9-0.3,2.4-0.3c0.8,0,1.6,0.3,2.3,1c0.7,0.7,1,1.5,1,2.5
			c0,1.7-0.9,3-2.7,3.8c-1.8,0.9-4.5,1.3-7.9,1.3c-3.2,0-5.7-0.5-7.4-1.6c-1.7-1.1-2.8-2.6-3.3-4.5c-0.5-1.9-0.8-4.5-0.4-7.7V98
			h-1.8c-1.5-0.2-2.6-0.6-3.4-1.3c-0.8-0.7-1.2-1.6-1.2-2.7c0-1.1,0.4-2,1.2-2.7C435.7,90.7,436.9,90.3,438.4,90z"/>
		<path class="st1" d="M475,81.1v14.5c1.3-1.5,2.6-2.8,3.9-3.7c1.3-0.9,2.7-1.6,4.2-2c1.5-0.4,3.2-0.7,5-0.7c2.7,0,5,0.6,7.1,1.7
			c2.1,1.1,3.7,2.8,4.9,4.9c0.7,1.3,1.2,2.7,1.5,4.2c0.3,1.6,0.4,3.3,0.4,5.4v19.9c0,2-0.5,3.5-1.4,4.6c-0.9,1-2.1,1.5-3.7,1.5
			c-3.3,0-5-2-5-6.1v-17.5c0-3.5-0.5-6.1-1.5-8c-1-1.9-3-2.8-5.9-2.8c-1.9,0-3.7,0.6-5.2,1.6c-1.5,1.1-2.7,2.6-3.5,4.5
			c-0.6,1.6-0.9,4.5-0.9,8.6v12.6c0,2-0.4,3.5-1.3,4.5c-0.9,1-2.1,1.6-3.7,1.6c-3.3,0-4.9-2-4.9-6.1V81.1c0-2,0.4-3.5,1.3-4.6
			c0.9-1,2.1-1.5,3.6-1.5c1.6,0,2.8,0.5,3.7,1.5C474.6,77.6,475,79.1,475,81.1z"/>
	</g>
	<g>
		<g>
			<defs>
				<rect id="SVGID_1_" x="580" y="20" width="388" height="162"/>
			</defs>
			<clipPath id="SVGID_00000111880563814776113790000008317858316476902295_">
				<use xlink:href="#SVGID_1_"  style="overflow:visible;"/>
			</clipPath>
			<g transform="matrix(1 0 0 1 0 0)" style="clip-path:url(#SVGID_00000111880563814776113790000008317858316476902295_);">
				
					<image style="overflow:visible;" width="519" height="216" xlink:href="41F275DC.png"  transform="matrix(0.7467 0 0 0.7467 580 20)">
				</image>
			</g>
		</g>
	</g>
</g>
</svg>
