<?xml version="1.0" encoding="UTF-8"?>
<svg id="a" data-name="Layer 1" xmlns="http://www.w3.org/2000/svg" width="1113.0526" height="217.48" xmlns:xlink="http://www.w3.org/1999/xlink" viewBox="0 0 1113.0526 217.48">
  <defs>
    <clipPath id="b">
      <rect x="625.0526" y="22.074" width="417" height="174" fill="none"/>
    </clipPath>
  </defs>
  <rect width="1113.0526" height="217.48" rx="38.4356" ry="38.4356" fill="#08324a"/>
  <g>
    <path d="m109.2054,135.7904v-1.1061c-1.5023,1.7207-2.9844,3.1208-4.4453,4.199-1.4614,1.0796-3.0456,1.899-4.7523,2.4581-1.7072.5596-3.571.8401-5.5919.8401-2.6769,0-5.1557-.5673-7.4359-1.6999-2.2807-1.1331-4.2539-2.7516-5.9196-4.8549-1.6662-2.1029-2.9294-4.5744-3.7893-7.4152-.8608-2.8403-1.2907-5.9129-1.2907-9.2178,0-6.9915,1.7067-12.4403,5.121-16.3462,3.4138-3.9055,7.9068-5.8584,13.4785-5.8584,3.2225,0,5.9404.5528,8.1526,1.6594,2.2123,1.1057,4.3696,2.8061,6.4729,5.1003v-16.5101c0-2.2942.4569-4.0284,1.3722-5.2029.9148-1.1741,2.219-1.7616,3.9127-1.7616s2.9969.5398,3.9127,1.618c.9143,1.0796,1.3722,2.6701,1.3722,4.773v49.3254c0,2.1303-.4916,3.7281-1.4748,4.7933s-2.2532,1.5978-3.81,1.5978c-1.5298,0-2.7931-.5528-3.7893-1.6594-.9977-1.1057-1.4956-2.6832-1.4956-4.7316Zm-21.9998-16.4282c0,3.0316.4714,5.6126,1.4132,7.7429.9427,2.1303,2.233,3.7353,3.8717,4.8135,1.6387,1.0796,3.4273,1.6185,5.3668,1.6185,1.9665,0,3.7618-.5119,5.3875-1.5365,1.6243-1.0237,2.9217-2.594,3.8915-4.7108.9693-2.1164,1.4546-4.759,1.4546-7.9275,0-2.9767-.4853-5.5369-1.4546-7.6817-.9697-2.1433-2.2807-3.7821-3.9329-4.9162-1.6527-1.1326-3.4616-1.6999-5.428-1.6999-2.0484,0-3.8785.5808-5.4897,1.7414-1.6117,1.1611-2.8615,2.8263-3.7488,4.9981-.8878,2.1708-1.3312,4.6906-1.3312,7.5583Z" fill="#fff"/>
    <path d="m172.8696,119.4442c0,3.3324-.5191,6.405-1.5568,9.2178-1.0382,2.8133-2.54,5.2304-4.5065,7.2513-1.9665,2.0214-4.3156,3.5714-7.0465,4.6501-2.7314,1.0782-5.804,1.618-9.2178,1.618-3.3868,0-6.432-.5466-9.1359-1.6387-2.7039-1.0922-5.0463-2.6557-7.0258-4.6911-1.9809-2.0339-3.4828-4.4376-4.5065-7.2104-1.0247-2.7714-1.5365-5.8377-1.5365-9.1971,0-3.3864.5186-6.4864,1.5568-9.2997,1.0377-2.8128,2.526-5.2164,4.4655-7.2104,1.939-1.9935,4.2877-3.5295,7.0465-4.6091,2.7583-1.0782,5.8035-1.618,9.1359-1.618,3.3864,0,6.459.5466,9.2178,1.6387,2.7583,1.0926,5.121,2.6494,7.0875,4.6703,1.9665,2.0214,3.4616,4.4245,4.4862,7.2104,1.0237,2.7858,1.5361,5.8584,1.5361,9.2178Zm-11.2252,0c0-4.5609-1.004-8.1117-3.0109-10.6517-2.0079-2.54-4.705-3.81-8.0914-3.81-2.1853,0-4.1108.5673-5.7765,1.6999-1.6662,1.1341-2.9497,2.8065-3.851,5.0188s-1.3519,4.7933-1.3519,7.7429c0,2.9227.4434,5.4762,1.3312,7.661.8873,2.1853,2.1573,3.8582,3.8105,5.0188,1.6517,1.1611,3.598,1.7409,5.8377,1.7409,3.3864,0,6.0835-1.2763,8.0914-3.8307,2.0069-2.553,3.0109-6.0835,3.0109-10.59Z" fill="#fff"/>
    <path d="m191.8377,102.8931v1.3519c1.9665-2.5945,4.1175-4.4992,6.4522-5.7148,2.3357-1.2151,5.0188-1.8233,8.0504-1.8233,2.9497,0,5.5851.642,7.9068,1.9255,2.3212,1.284,4.0558,3.1001,5.2029,5.4487.7374,1.3659,1.2151,2.8408,1.4339,4.4245.2183,1.5843.3277,3.6052.3277,6.0633v20.8117c0,2.2397-.5119,3.9329-1.5365,5.08-1.0237,1.1471-2.3554,1.7207-3.9941,1.7207-1.6662,0-3.0181-.5875-4.0558-1.7616-1.0382-1.1741-1.5568-2.8538-1.5568-5.0391v-18.6404c0-3.6871-.5119-6.5067-1.5365-8.4596-1.0237-1.9525-3.0658-2.9294-6.1245-2.9294-1.9939,0-3.81.5938-5.4487,1.7823-1.6387,1.1876-2.8408,2.82-3.6052,4.8954-.5466,1.6662-.8194,4.7798-.8194,9.3407v14.011c0,2.2672-.5263,3.9676-1.577,5.1008-1.0522,1.1326-2.4108,1.6999-4.0766,1.6999-1.6117,0-2.9362-.5875-3.9739-1.7616-1.0382-1.1741-1.5568-2.8538-1.5568-5.0391v-32.3237c0-2.1303.4641-3.7209,1.3929-4.7725.9283-1.0512,2.1983-1.5775,3.81-1.5775.9832,0,1.8705.2323,2.6629.6965.7919.4646,1.4266,1.1611,1.9053,2.0894.4772.9288.7167,2.0624.7167,3.4003Z" fill="#fff"/>
    <path d="m260.6229,135.8723c-2.7039,2.1033-5.3196,3.6809-7.8451,4.7316-2.527,1.0512-5.3605,1.5775-8.5011,1.5775-2.8678,0-5.3875-.5673-7.5583-1.6999-3.4281-1.7886-5.6132-4.5823-6.5555-8.3792-.0338-.1364-.061-.2803-.0795-.4196-.5303-3.9889.3902-7.3039,2.7633-9.9442,1.939-2.1573,4.6019-3.6052,7.9888-4.3426.71-.1639,2.4716-.5326,5.2849-1.1061,2.8128-.5736,5.2232-1.0989,7.2311-1.5775,2.0069-.4772,4.185-1.0579,6.5341-1.7409-.1369-2.9497-.7312-5.1138-1.7819-6.4932-1.0522-1.3789-3.2302-2.0691-6.5346-2.0691-2.8408,0-4.9778.3962-6.4112,1.1881-1.4344.7924-2.6634,1.9804-3.6871,3.5642-1.0247,1.5843-1.7486,2.6292-2.1718,3.1343-.4237.5056-1.3312.7577-2.7241.7577-1.2565,0-2.3424-.4024-3.2572-1.2088-.9153-.8049-1.3722-1.8363-1.3722-3.0928,0-1.9665.6965-3.878,2.0894-5.7355,1.3929-1.8571,3.5642-3.3864,6.5139-4.5884,2.9497-1.2016,6.6228-1.8026,11.0204-1.8026,4.9162,0,8.7806.5808,11.5939,1.7414,2.8128,1.1611,4.7995,2.9974,5.9606,5.5099,1.1606,2.513,1.7414,5.8449,1.7414,9.9962,0,2.6219-.0072,4.8482-.0207,6.6778-.014,1.8301-.0342,3.865-.0612,6.1042,0,2.1033.3485,4.2954,1.0444,6.5751.6969,2.2812,1.0449,3.7488,1.0449,4.4043,0,1.1471-.5398,2.192-1.6185,3.1338-1.0791.9427-2.301,1.4136-3.6664,1.4136-1.1471,0-2.2807-.5398-3.4003-1.618-1.1201-1.0787-2.3082-2.6427-3.5642-4.6911Zm-.7374-16.1823c-1.6387.601-4.0221,1.2363-7.1491,1.9048-3.1275.6699-5.2916,1.1616-6.4932,1.4748-1.202.3147-2.3492.9292-3.4413,1.844-1.0926.9153-1.6387,2.1915-1.6387,3.8303,0,1.6937.6415,3.1343,1.9255,4.3219,1.2835,1.1886,2.9632,1.7823,5.0391,1.7823,2.2123,0,4.2534-.4844,6.125-1.4546,1.8701-.9688,3.2427-2.2185,4.117-3.7483,1.0102-1.6932,1.5158-4.479,1.5158-8.3575v-1.5978Z" fill="#fff"/>
    <path d="m280.7382,97.6902h1.229v-6.7187c0-1.8026.0472-3.2162.1436-4.2399.0949-1.0247.3615-1.9053.7986-2.6427.4367-.7644,1.0652-1.3857,1.8845-1.8638.8194-.4776,1.7341-.7172,2.7449-.7172,1.4199,0,2.7039.5326,3.851,1.5978.7644.7104,1.2493,1.5775,1.4546,2.6012.2044,1.0247.307,2.4788.307,4.3633v7.62h4.0968c1.5838,0,2.7921.3759,3.6259,1.1264.8324.7519,1.2493,1.7144,1.2493,2.8885,0,1.5023-.5938,2.554-1.7823,3.1545-1.1876.601-2.888.9013-5.1003.9013h-2.0894v20.5659c0,1.7481.0612,3.0933.1846,4.0351.1224.9427.4502,1.7076.9832,2.2942.5321.588,1.3992.8811,2.6012.8811.6555,0,1.5428-.1157,2.6629-.348,1.1196-.2318,1.9935-.3485,2.6219-.3485.9013,0,1.7134.3624,2.4378,1.0859.723.7239,1.0854,1.618,1.0854,2.6832,0,1.8026-.9832,3.182-2.9497,4.1378s-4.7933,1.4339-8.4804,1.4339c-3.4963,0-6.1452-.5875-7.9478-1.7616s-2.9844-2.7993-3.544-4.8752c-.5601-2.0754-.8396-4.8477-.8396-8.3165v-21.4672h-1.4748c-1.6117,0-2.8408-.3822-3.6871-1.1471-.8468-.7644-1.27-1.7341-1.27-2.9087s.4434-2.1366,1.3317-2.8885c.8868-.7504,2.1776-1.1264,3.8712-1.1264Z" fill="#fff"/>
    <path d="m341.043,122.189h-21.8769c.027,2.54.5388,4.7798,1.5361,6.7187.9967,1.9395,2.3212,3.4003,3.9744,4.3836,1.6517.9832,3.475,1.4748,5.469,1.4748,1.338,0,2.5607-.1566,3.6664-.4714,1.1066-.3133,2.178-.8049,3.2162-1.4748,1.0377-.6685,1.9935-1.3857,2.8678-2.1506.8738-.7644,2.0074-1.8026,3.4003-3.1136.5736-.4916,1.3929-.7374,2.4581-.7374,1.1471,0,2.0754.3142,2.7858.9423.71.6285,1.0652,1.5158,1.0652,2.6629,0,1.0107-.3962,2.192-1.1881,3.5435-.7924,1.3524-1.9872,2.6499-3.5845,3.8924-1.5982,1.243-3.6052,2.2735-6.0228,3.0928-2.4166.8194-5.1962,1.229-8.3367,1.229-7.1834,0-12.7685-2.0484-16.7559-6.1452-3.9879-4.0968-5.9813-9.6545-5.9813-16.674,0-3.3044.4916-6.3708,1.4748-9.1971.9832-2.8273,2.4171-5.2506,4.3016-7.2721,1.8845-2.0209,4.2057-3.5705,6.9646-4.6501,2.7583-1.0782,5.8174-1.618,9.1768-1.618,4.3696,0,8.1179.922,11.2459,2.7651,3.1266,1.844,5.469,4.2269,7.0258,7.1491,1.5568,2.9227,2.3352,5.8994,2.3352,8.931,0,2.8133-.8059,4.6366-2.4171,5.469-1.6117.8338-3.8785,1.2498-6.8007,1.2498Zm-21.8769-6.35h20.2791c-.2733-3.8235-1.3047-6.684-3.0933-8.583-1.7891-1.8975-4.1445-2.847-7.0667-2.847-2.7858,0-5.0738.9625-6.8624,2.8885-1.7891,1.925-2.8745,4.7725-3.2567,8.5416Z" fill="#fff"/>
    <path d="m387.6236,103.6715l7.2923,24.9905,6.6368-23.2288c.71-2.4306,1.2353-4.0896,1.5775-4.9778.3408-.8868.9832-1.7337,1.925-2.54.9427-.8049,2.233-1.2083,3.8717-1.2083,1.6657,0,2.9704.4034,3.9122,1.2083.9427.8063,1.6045,1.6802,1.9872,2.6219.3822.9427.9148,2.5747,1.5978,4.8959l6.6368,23.2288,7.3742-24.9905c.4916-1.8026.8873-3.1063,1.1881-3.9122.3003-.8054.8054-1.5163,1.5158-2.1303.71-.615,1.7341-.922,3.0726-.922s2.499.4646,3.4823,1.3929c.9832.9288,1.4748,2.0214,1.4748,3.2774,0,1.1471-.4237,2.8817-1.27,5.2029l-9.1359,26.793c-.7924,2.2672-1.4069,3.9059-1.8436,4.9162-.4372,1.0107-1.1264,1.912-2.0691,2.7039-.9418.7919-2.2325,1.1881-3.8712,1.1881-1.6937,0-3.0254-.4237-3.9946-1.27-.9697-.8463-1.6864-1.8845-2.1506-3.1136-.4646-1.229-.9697-2.8268-1.5158-4.7933l-6.391-21.795-6.1862,21.795c-.8194,3.0316-1.7072,5.3196-2.6629,6.8619-.9562,1.5428-2.6359,2.3149-5.0391,2.3149-1.229,0-2.274-.2395-3.1338-.7167-.8608-.4776-1.5775-1.1606-2.1511-2.0484-.5736-.8873-1.0791-1.939-1.5158-3.155-.4372-1.2146-.7784-2.1776-1.0242-2.888l-9.0539-26.793c-.9013-2.5125-1.3519-4.2467-1.3519-5.2029,0-1.2016.4776-2.2802,1.4339-3.2365.9558-.9558,2.1303-1.4339,3.5232-1.4339,1.8571,0,3.1136.5263,3.7691,1.5775.6555,1.0517,1.3519,2.847,2.0894,5.387Z" fill="#fff"/>
    <path d="m454.5243,91.504c-1.5568,0-2.8885-.4776-3.9941-1.4339-1.1066-.9558-1.6594-2.3077-1.6594-4.0558,0-1.5838.5663-2.888,1.6999-3.9127,1.1331-1.0237,2.4513-1.5361,3.9536-1.5361,1.4474,0,2.7309.4646,3.851,1.3929,1.1196.9288,1.6797,2.2807,1.6797,4.0558,0,1.7207-.5466,3.0663-1.6387,4.0351-1.0926.9702-2.3901,1.4546-3.892,1.4546Zm5.5307,11.553v32.3237c0,2.2397-.5326,3.9329-1.5978,5.08s-2.4171,1.7207-4.0558,1.7207-2.9699-.5875-3.9946-1.7616c-1.0237-1.1741-1.5361-2.8538-1.5361-5.0391v-31.996c0-2.2123.5123-3.878,1.5361-4.9981,1.0247-1.1196,2.3559-1.6797,3.9946-1.6797s2.9907.5601,4.0558,1.6797c1.0652,1.1201,1.5978,2.6769,1.5978,4.6703Z" fill="#fff"/>
    <path d="m472.2224,97.6902h1.229v-6.7187c0-1.8026.0472-3.2162.1436-4.2399.0949-1.0247.3615-1.9053.7986-2.6427.4367-.7644,1.0652-1.3857,1.8845-1.8638.8194-.4776,1.7341-.7172,2.7449-.7172,1.4199,0,2.7039.5326,3.851,1.5978.7644.7104,1.2493,1.5775,1.4546,2.6012.2044,1.0247.307,2.4788.307,4.3633v7.62h4.0968c1.5838,0,2.7921.3759,3.6259,1.1264.8324.7519,1.2493,1.7144,1.2493,2.8885,0,1.5023-.5938,2.554-1.7823,3.1545-1.1876.601-2.888.9013-5.1003.9013h-2.0894v20.5659c0,1.7481.0612,3.0933.1846,4.0351.1224.9427.4502,1.7076.9832,2.2942.5321.588,1.3992.8811,2.6012.8811.6555,0,1.5428-.1157,2.6629-.348,1.1196-.2318,1.9935-.3485,2.6219-.3485.9013,0,1.7134.3624,2.4378,1.0859.723.7239,1.0854,1.618,1.0854,2.6832,0,1.8026-.9832,3.182-2.9497,4.1378s-4.7933,1.4339-8.4804,1.4339c-3.4963,0-6.1452-.5875-7.9478-1.7616s-2.9844-2.7993-3.544-4.8752c-.5601-2.0754-.8396-4.8477-.8396-8.3165v-21.4672h-1.4748c-1.6117,0-2.8408-.3822-3.6871-1.1471-.8468-.7644-1.27-1.7341-1.27-2.9087s.4434-2.1366,1.3317-2.8885c.8868-.7504,2.1776-1.1264,3.8712-1.1264Z" fill="#fff"/>
    <path d="m512.2481,86.8746v16.592c1.4199-1.6387,2.8061-2.9357,4.1585-3.892,1.3515-.9558,2.847-1.6725,4.4858-2.1511,1.6387-.4772,3.4003-.7167,5.2849-.7167,2.8403,0,5.3596.601,7.5583,1.8026,2.1983,1.202,3.9262,2.9497,5.1827,5.2439.7919,1.3384,1.3245,2.834,1.5978,4.4858.2728,1.6532.4097,3.5579.4097,5.7153v21.4262c0,2.2397-.5119,3.9329-1.5365,5.08-1.0237,1.1471-2.3829,1.7207-4.0761,1.7207-3.6871,0-5.5307-2.2667-5.5307-6.8007v-18.8862c0-3.5777-.5326-6.3293-1.5978-8.2553-1.0652-1.925-3.0866-2.888-6.0633-2.888-1.9939,0-3.7898.5673-5.387,1.7004-1.5982,1.1336-2.7931,2.6832-3.5849,4.6496-.601,1.6662-.9013,4.6294-.9013,8.89v14.7894c0,2.2123-.4988,3.8992-1.4951,5.0593-.9977,1.1606-2.3834,1.7414-4.1585,1.7414-3.6871,0-5.5307-2.2667-5.5307-6.8007v-48.5061c0-2.2667.4844-3.9667,1.4541-5.1008.9693-1.1326,2.3284-1.6999,4.0766-1.6999,1.7751,0,3.1608.5736,4.1585,1.7207.9962,1.1471,1.4951,2.8408,1.4951,5.08Z" fill="#fff"/>
  </g>
  <g clip-path="url(#b)">
    <image width="519" height="216" transform="translate(625.0526 22.074) scale(.8035)" xlink:href="UPI button1.png"/>
  </g>
</svg>