<?xml version="1.0" encoding="utf-8"?>
<!-- Generator: Adobe Illustrator 27.1.1, SVG Export Plug-In . SVG Version: 6.00 Build 0)  -->
<svg version="1.1" id="Layer_1" xmlns="http://www.w3.org/2000/svg" xmlns:xlink="http://www.w3.org/1999/xlink" x="0px" y="0px"
	 viewBox="0 0 1069.79 257.45" style="enable-background:new 0 0 1069.79 257.45;" xml:space="preserve">
<style type="text/css">
	.st0{fill:#00434D;}
	.st1{fill:none;}
	.st2{fill:#FFFFFF;}
	.st3{fill:#FF7423;}
	.st4{fill:#299142;}
	.st5{fill:#636F72;}
</style>
<g>
	<path class="st0" d="M1029.88,257.45H39.91C17.87,257.45,0,239.58,0,217.54V39.91C0,17.87,17.87,0,39.91,0h989.97
		c22.04,0,39.91,17.87,39.91,39.91v177.63C1069.79,239.58,1051.92,257.45,1029.88,257.45z"/>
	<g>
		<rect x="46.04" y="59.01" class="st1" width="420.29" height="139.43"/>
		<path class="st2" d="M95.55,148.92v-0.89c-1.2,1.38-2.39,2.5-3.56,3.37s-2.44,1.52-3.81,1.97c-1.37,0.45-2.86,0.67-4.48,0.67
			c-2.15,0-4.13-0.46-5.96-1.36c-1.83-0.91-3.41-2.21-4.75-3.89c-1.34-1.69-2.35-3.67-3.04-5.95c-0.69-2.28-1.04-4.74-1.04-7.39
			c0-5.61,1.37-9.98,4.11-13.11c2.74-3.13,6.34-4.7,10.81-4.7c2.58,0,4.76,0.44,6.54,1.33c1.77,0.89,3.5,2.25,5.19,4.09v-13.24
			c0-1.84,0.37-3.23,1.1-4.17s1.78-1.41,3.14-1.41s2.4,0.43,3.14,1.3c0.73,0.87,1.1,2.14,1.1,3.83v39.56c0,1.71-0.39,2.99-1.18,3.84
			s-1.81,1.28-3.06,1.28c-1.23,0-2.24-0.44-3.04-1.33C95.95,151.82,95.55,150.56,95.55,148.92z M77.91,135.74
			c0,2.43,0.38,4.5,1.13,6.21c0.76,1.71,1.79,3,3.1,3.86c1.31,0.87,2.75,1.3,4.3,1.3c1.58,0,3.02-0.41,4.32-1.23
			c1.3-0.82,2.34-2.08,3.12-3.78c0.78-1.7,1.17-3.82,1.17-6.36c0-2.39-0.39-4.44-1.17-6.16c-0.78-1.72-1.83-3.03-3.15-3.94
			c-1.33-0.91-2.78-1.36-4.35-1.36c-1.64,0-3.11,0.47-4.4,1.4c-1.29,0.93-2.29,2.27-3.01,4.01
			C78.27,131.42,77.91,133.44,77.91,135.74z"/>
		<path class="st2" d="M146.61,135.81c0,2.67-0.42,5.14-1.25,7.39s-2.04,4.19-3.61,5.82c-1.58,1.62-3.46,2.86-5.65,3.73
			c-2.19,0.87-4.65,1.3-7.39,1.3c-2.72,0-5.16-0.44-7.33-1.31c-2.17-0.88-4.05-2.13-5.63-3.76c-1.59-1.63-2.79-3.56-3.61-5.78
			c-0.82-2.22-1.23-4.68-1.23-7.38c0-2.72,0.42-5.2,1.25-7.46c0.83-2.25,2.03-4.18,3.58-5.78c1.56-1.6,3.44-2.83,5.65-3.7
			c2.21-0.86,4.65-1.3,7.33-1.3c2.72,0,5.18,0.44,7.39,1.31c2.21,0.88,4.11,2.12,5.68,3.75s2.78,3.55,3.6,5.78
			C146.2,130.65,146.61,133.11,146.61,135.81z M137.61,135.81c0-3.66-0.8-6.51-2.41-8.54c-1.61-2.04-3.77-3.06-6.49-3.06
			c-1.75,0-3.3,0.46-4.63,1.36c-1.34,0.91-2.37,2.25-3.09,4.03c-0.72,1.77-1.08,3.84-1.08,6.21c0,2.34,0.36,4.39,1.07,6.14
			c0.71,1.75,1.73,3.09,3.06,4.02c1.32,0.93,2.89,1.4,4.68,1.4c2.72,0,4.88-1.02,6.49-3.07
			C136.8,142.25,137.61,139.42,137.61,135.81z"/>
		<path class="st2" d="M161.82,122.53v1.08c1.58-2.08,3.3-3.61,5.17-4.58s4.02-1.46,6.46-1.46c2.37,0,4.48,0.52,6.34,1.54
			c1.86,1.03,3.25,2.49,4.17,4.37c0.59,1.1,0.97,2.28,1.15,3.55c0.17,1.27,0.26,2.89,0.26,4.86v16.69c0,1.8-0.41,3.15-1.23,4.07
			c-0.82,0.92-1.89,1.38-3.2,1.38c-1.34,0-2.42-0.47-3.25-1.41c-0.83-0.94-1.25-2.29-1.25-4.04v-14.95c0-2.96-0.41-5.22-1.23-6.78
			c-0.82-1.57-2.46-2.35-4.91-2.35c-1.6,0-3.06,0.48-4.37,1.43c-1.31,0.95-2.28,2.26-2.89,3.93c-0.44,1.34-0.66,3.83-0.66,7.49
			v11.24c0,1.82-0.42,3.18-1.27,4.09c-0.84,0.91-1.93,1.36-3.27,1.36c-1.29,0-2.35-0.47-3.19-1.41c-0.83-0.94-1.25-2.29-1.25-4.04
			v-25.92c0-1.71,0.37-2.98,1.12-3.83s1.76-1.27,3.06-1.27c0.79,0,1.5,0.19,2.14,0.56c0.63,0.37,1.14,0.93,1.53,1.68
			C161.63,120.55,161.82,121.46,161.82,122.53z"/>
		<path class="st2" d="M216.99,148.98c-2.17,1.69-4.27,2.95-6.29,3.79c-2.03,0.84-4.3,1.26-6.82,1.26c-2.3,0-4.32-0.46-6.06-1.36
			c-1.74-0.91-3.08-2.14-4.02-3.7c-0.94-1.55-1.41-3.24-1.41-5.06c0-2.45,0.78-4.54,2.33-6.28c1.56-1.73,3.69-2.89,6.41-3.48
			c0.57-0.13,1.98-0.43,4.24-0.89s4.19-0.88,5.8-1.26s3.36-0.85,5.24-1.4c-0.11-2.37-0.59-4.1-1.43-5.21
			c-0.84-1.11-2.59-1.66-5.24-1.66c-2.28,0-3.99,0.32-5.14,0.95c-1.15,0.64-2.14,1.59-2.96,2.86c-0.82,1.27-1.4,2.11-1.74,2.51
			c-0.34,0.41-1.07,0.61-2.19,0.61c-1.01,0-1.88-0.32-2.61-0.97c-0.73-0.65-1.1-1.47-1.1-2.48c0-1.58,0.56-3.11,1.68-4.6
			c1.12-1.49,2.86-2.72,5.22-3.68c2.37-0.96,5.31-1.45,8.84-1.45c3.94,0,7.04,0.47,9.3,1.4c2.26,0.93,3.85,2.4,4.78,4.42
			c0.93,2.02,1.4,4.69,1.4,8.02c0,2.1-0.01,3.89-0.02,5.36c-0.01,1.47-0.03,3.1-0.05,4.9c0,1.69,0.28,3.44,0.84,5.27
			s0.84,3.01,0.84,3.53c0,0.92-0.43,1.76-1.3,2.51c-0.87,0.76-1.85,1.13-2.94,1.13c-0.92,0-1.83-0.43-2.73-1.3
			C218.95,151.88,218,150.62,216.99,148.98z M216.4,136c-1.31,0.48-3.23,0.99-5.73,1.53c-2.51,0.54-4.24,0.93-5.21,1.18
			c-0.96,0.25-1.88,0.75-2.76,1.48c-0.88,0.73-1.31,1.76-1.31,3.07c0,1.36,0.51,2.51,1.54,3.47c1.03,0.95,2.38,1.43,4.04,1.43
			c1.77,0,3.41-0.39,4.91-1.17c1.5-0.78,2.6-1.78,3.3-3.01c0.81-1.36,1.22-3.59,1.22-6.7V136z"/>
		<path class="st2" d="M233.12,118.36h0.99v-5.39c0-1.45,0.04-2.58,0.11-3.4c0.08-0.82,0.29-1.53,0.64-2.12
			c0.35-0.61,0.85-1.11,1.51-1.49c0.66-0.38,1.39-0.58,2.2-0.58c1.14,0,2.17,0.43,3.09,1.28c0.61,0.57,1,1.26,1.17,2.09
			c0.16,0.82,0.25,1.99,0.25,3.5v6.11h3.29c1.27,0,2.24,0.3,2.91,0.9c0.67,0.6,1,1.37,1,2.32c0,1.21-0.48,2.05-1.43,2.53
			c-0.95,0.48-2.32,0.72-4.09,0.72h-1.68v16.49c0,1.4,0.05,2.48,0.15,3.24s0.36,1.37,0.79,1.84s1.12,0.71,2.09,0.71
			c0.53,0,1.24-0.09,2.14-0.28c0.9-0.19,1.6-0.28,2.1-0.28c0.72,0,1.37,0.29,1.96,0.87c0.58,0.58,0.87,1.3,0.87,2.15
			c0,1.45-0.79,2.55-2.37,3.32c-1.58,0.77-3.84,1.15-6.8,1.15c-2.8,0-4.93-0.47-6.37-1.41c-1.45-0.94-2.39-2.24-2.84-3.91
			c-0.45-1.67-0.67-3.89-0.67-6.67v-17.22h-1.18c-1.29,0-2.28-0.31-2.96-0.92c-0.68-0.61-1.02-1.39-1.02-2.33
			c0-0.94,0.36-1.71,1.07-2.32C230.73,118.66,231.76,118.36,233.12,118.36z"/>
		<path class="st2" d="M281.48,138.01h-17.54c0.02,2.04,0.43,3.83,1.23,5.39c0.8,1.56,1.86,2.73,3.19,3.52
			c1.32,0.79,2.79,1.18,4.39,1.18c1.07,0,2.05-0.13,2.94-0.38s1.75-0.65,2.58-1.18c0.83-0.54,1.6-1.11,2.3-1.72
			c0.7-0.61,1.61-1.45,2.73-2.5c0.46-0.39,1.12-0.59,1.97-0.59c0.92,0,1.66,0.25,2.23,0.75c0.57,0.5,0.85,1.22,0.85,2.14
			c0,0.81-0.32,1.76-0.95,2.84c-0.64,1.08-1.59,2.12-2.88,3.12c-1.28,1-2.89,1.82-4.83,2.48s-4.17,0.99-6.69,0.99
			c-5.76,0-10.24-1.64-13.44-4.93c-3.2-3.29-4.8-7.74-4.8-13.37c0-2.65,0.39-5.11,1.18-7.38c0.79-2.27,1.94-4.21,3.45-5.83
			c1.51-1.62,3.37-2.86,5.59-3.73c2.21-0.87,4.67-1.3,7.36-1.3c3.5,0,6.51,0.74,9.02,2.22c2.51,1.48,4.39,3.39,5.63,5.73
			s1.87,4.73,1.87,7.16c0,2.26-0.65,3.72-1.94,4.39C285.65,137.67,283.83,138.01,281.48,138.01z M263.94,132.91h16.26
			c-0.22-3.07-1.05-5.36-2.48-6.88c-1.44-1.52-3.32-2.28-5.67-2.28c-2.23,0-4.07,0.77-5.5,2.32
			C265.12,127.61,264.25,129.89,263.94,132.91z"/>
		<path class="st2" d="M318.84,123.16l5.85,20.04l5.32-18.63c0.57-1.95,0.99-3.28,1.26-3.99c0.27-0.71,0.79-1.39,1.54-2.04
			c0.76-0.65,1.79-0.97,3.1-0.97c1.34,0,2.38,0.32,3.14,0.97c0.76,0.65,1.29,1.35,1.59,2.1c0.31,0.76,0.73,2.06,1.28,3.93
			l5.32,18.63l5.91-20.04c0.39-1.45,0.71-2.49,0.95-3.14c0.24-0.65,0.65-1.22,1.22-1.71c0.57-0.49,1.39-0.74,2.46-0.74
			c1.07,0,2,0.37,2.79,1.12c0.79,0.75,1.18,1.62,1.18,2.63c0,0.92-0.34,2.31-1.02,4.17l-7.33,21.49c-0.64,1.82-1.13,3.13-1.48,3.94
			c-0.35,0.81-0.9,1.53-1.66,2.17c-0.76,0.64-1.79,0.95-3.1,0.95c-1.36,0-2.43-0.34-3.2-1.02c-0.78-0.68-1.35-1.51-1.73-2.5
			c-0.37-0.99-0.78-2.27-1.22-3.84l-5.13-17.48l-4.96,17.48c-0.66,2.43-1.37,4.27-2.14,5.5s-2.11,1.86-4.04,1.86
			c-0.99,0-1.82-0.19-2.51-0.58s-1.26-0.93-1.72-1.64c-0.46-0.71-0.87-1.55-1.22-2.53c-0.35-0.97-0.62-1.75-0.82-2.32l-7.26-21.49
			c-0.72-2.01-1.08-3.41-1.08-4.17c0-0.96,0.38-1.83,1.15-2.6c0.77-0.77,1.71-1.15,2.83-1.15c1.49,0,2.5,0.42,3.02,1.27
			S318.25,121.12,318.84,123.16z"/>
		<path class="st2" d="M372.49,113.4c-1.25,0-2.32-0.38-3.2-1.15s-1.33-1.85-1.33-3.25c0-1.27,0.45-2.32,1.36-3.14
			c0.91-0.82,1.97-1.23,3.17-1.23c1.16,0,2.19,0.37,3.09,1.12c0.9,0.75,1.35,1.83,1.35,3.25c0,1.38-0.44,2.46-1.31,3.24
			C374.74,113.01,373.7,113.4,372.49,113.4z M376.93,122.66v25.92c0,1.8-0.43,3.15-1.28,4.07c-0.85,0.92-1.94,1.38-3.25,1.38
			c-1.31,0-2.38-0.47-3.2-1.41c-0.82-0.94-1.23-2.29-1.23-4.04v-25.66c0-1.77,0.41-3.11,1.23-4.01c0.82-0.9,1.89-1.35,3.2-1.35
			c1.31,0,2.4,0.45,3.25,1.35C376.5,119.82,376.93,121.07,376.93,122.66z"/>
		<path class="st2" d="M386.69,118.36h0.99v-5.39c0-1.45,0.04-2.58,0.11-3.4c0.08-0.82,0.29-1.53,0.64-2.12
			c0.35-0.61,0.85-1.11,1.51-1.49c0.66-0.38,1.39-0.58,2.2-0.58c1.14,0,2.17,0.43,3.09,1.28c0.61,0.57,1,1.26,1.17,2.09
			c0.16,0.82,0.25,1.99,0.25,3.5v6.11h3.29c1.27,0,2.24,0.3,2.91,0.9c0.67,0.6,1,1.37,1,2.32c0,1.21-0.48,2.05-1.43,2.53
			c-0.95,0.48-2.32,0.72-4.09,0.72h-1.68v16.49c0,1.4,0.05,2.48,0.15,3.24s0.36,1.37,0.79,1.84s1.12,0.71,2.09,0.71
			c0.53,0,1.24-0.09,2.14-0.28c0.9-0.19,1.6-0.28,2.1-0.28c0.72,0,1.37,0.29,1.96,0.87c0.58,0.58,0.87,1.3,0.87,2.15
			c0,1.45-0.79,2.55-2.37,3.32c-1.58,0.77-3.84,1.15-6.8,1.15c-2.8,0-4.93-0.47-6.37-1.41c-1.45-0.94-2.39-2.24-2.84-3.91
			c-0.45-1.67-0.67-3.89-0.67-6.67v-17.22h-1.18c-1.29,0-2.28-0.31-2.96-0.92c-0.68-0.61-1.02-1.39-1.02-2.33
			c0-0.94,0.36-1.71,1.07-2.32C384.29,118.66,385.33,118.36,386.69,118.36z"/>
		<path class="st2" d="M418.79,109.69v13.31c1.14-1.31,2.25-2.35,3.33-3.12c1.08-0.77,2.28-1.34,3.6-1.72
			c1.31-0.38,2.73-0.58,4.24-0.58c2.28,0,4.3,0.48,6.06,1.45s3.15,2.37,4.16,4.21c0.64,1.07,1.06,2.27,1.28,3.6
			c0.22,1.33,0.33,2.85,0.33,4.58v17.18c0,1.8-0.41,3.15-1.23,4.07s-1.91,1.38-3.27,1.38c-2.96,0-4.44-1.82-4.44-5.45v-15.15
			c0-2.87-0.43-5.08-1.28-6.62c-0.85-1.54-2.48-2.32-4.86-2.32c-1.6,0-3.04,0.46-4.32,1.36c-1.28,0.91-2.24,2.15-2.88,3.73
			c-0.48,1.34-0.72,3.71-0.72,7.13v11.86c0,1.77-0.4,3.13-1.2,4.06c-0.8,0.93-1.91,1.4-3.33,1.4c-2.96,0-4.44-1.82-4.44-5.45v-38.9
			c0-1.82,0.39-3.18,1.17-4.09c0.78-0.91,1.87-1.36,3.27-1.36c1.42,0,2.54,0.46,3.33,1.38
			C418.39,106.53,418.79,107.89,418.79,109.69z"/>
	</g>
	<g>
		<path class="st2" d="M866.74,76.05c-0.82,3.09-1.61,6.18-2.46,9.25c-1.22,4.4-2.49,8.78-3.72,13.18
			c-1.08,3.89-2.03,7.83-3.21,11.69c-0.68,2.22-1.02,4.59-2.48,6.55c-2.44,3.27-5.44,5.53-9.68,5.74c-0.6,0.03-1.2,0.02-1.81,0.02
			c-23.18,0-46.35,0-69.53,0c-3.96,0-7.93,0.04-11.89,0.03c-0.67,0-0.95,0.17-1.13,0.89c-0.78,2.97-1.68,5.9-2.5,8.85
			c-0.66,2.35-1.25,4.72-1.9,7.07c-0.84,3.03-1.72,6.06-2.56,9.09c-1.01,3.62-2.01,7.23-2.99,10.86c-0.17,0.63-0.6,0.46-0.97,0.46
			c-5.1,0.01-10.21,0.01-15.31,0.01c-0.57,0-1.14-0.02-1.71,0.01c-0.64,0.03-0.74-0.2-0.56-0.8c0.89-3,1.79-6,2.59-9.02
			c0.93-3.51,1.9-7,2.92-10.48c0.92-3.12,1.7-6.28,2.55-9.42c0.88-3.25,1.74-6.51,2.67-9.75c1.44-5.01,2.87-10.02,4.18-15.06
			c0.19-0.72,0.56-1.02,1.4-1.02c30.15,0.04,60.3,0.04,90.46,0.08c0.97,0,1.35-0.21,1.63-1.23c1-3.64,1.9-7.31,3.03-10.91
			c0.7-2.22,1.02-4.54,1.92-6.69c0.22-0.51,0.02-0.7-0.5-0.66c-0.25,0.02-0.51,0-0.76,0c-30.03,0-60.05,0.01-90.08,0.01
			c-0.25,0-0.51-0.01-0.76,0c-0.57,0.03-0.66-0.11-0.49-0.71c1-3.45,1.81-6.95,2.93-10.35c0.71-2.14,0.94-4.41,1.85-6.49
			c0.19-0.42,0.36-0.63,0.8-0.6c0.25,0.02,0.51,0,0.76,0c33.29,0,66.58,0,99.87-0.01c1.3,0,2.59,0.04,3.83,0.47
			c1.53,0.54,2.68,1.51,3.38,2.98c0.09,0.2,0.13,0.41,0.31,0.56c-0.05,0.53,0,1.03,0.4,1.43c0,0.73-0.01,1.47-0.01,2.2
			c-0.34,0.21-0.33,0.49-0.15,0.81c-0.02,0.11-0.04,0.22-0.06,0.33C866.77,75.55,866.67,75.76,866.74,76.05z"/>
		<path class="st2" d="M610.44,154.22c0-0.7,0-1.4,0-2.09c0.18-0.12,0.17-0.25,0.01-0.38c0.4-2.05,0.99-4.06,1.61-6.04
			c0.4-1.26,0.65-2.55,1.02-3.81c1.09-3.67,2.14-7.36,3.17-11.05c1-3.57,1.96-7.14,2.94-10.72c0.82-2.99,1.64-5.98,2.47-8.96
			c0.81-2.9,1.65-5.8,2.45-8.7c0.63-2.26,1.11-4.56,1.86-6.78c0.76-2.26,1.23-4.59,1.94-6.85c0.96-3.05,1.66-6.17,2.51-9.25
			c0.6-2.19,1.28-4.36,1.91-6.54c0.53-1.87,1.05-3.74,1.55-5.61c0.15-0.57,0.39-0.81,1.03-0.81c5.64,0.01,11.29-0.01,16.93-0.04
			c0.73,0,0.84,0.16,0.59,0.86c-0.46,1.32-0.7,2.72-1.14,4.04c-0.82,2.48-1.3,5.04-2.13,7.52c-0.89,2.63-1.45,5.37-2.19,8.06
			c-0.6,2.17-1.25,4.33-1.85,6.5c-0.86,3.13-1.68,6.27-2.55,9.39c-0.58,2.07-1.22,4.13-1.8,6.2c-0.35,1.23-0.63,2.48-0.97,3.71
			c-0.8,2.86-1.7,5.7-2.41,8.59c-0.64,2.58-1.38,5.14-2.13,7.68c-1.14,3.86-2.04,7.79-3.27,11.62c-0.16,0.49-0.12,0.9,0.58,0.84
			c0.19-0.02,0.38,0,0.57,0c23.94,0,47.88,0,71.82,0.02c0.83,0,1.19-0.2,1.4-1.03c0.7-2.73,1.48-5.44,2.25-8.15
			c0.99-3.51,2.07-7,2.99-10.53c0.73-2.81,1.48-5.62,2.33-8.39c0.8-2.6,1.4-5.24,2.16-7.85c0.82-2.82,1.55-5.67,2.32-8.51
			c0.73-2.71,1.52-5.41,2.31-8.1c1.25-4.22,2.29-8.5,3.49-12.73c0.84-2.98,1.82-5.93,2.48-8.96c0.11-0.49,0.34-0.73,0.9-0.73
			c5.74,0.02,11.48,0.01,17.22,0.01c0.54,0,0.72,0.1,0.54,0.71c-0.69,2.36-1.39,4.72-1.98,7.1c-0.62,2.51-1.5,4.95-2.11,7.47
			c-0.63,2.58-1.44,5.11-2.12,7.68c-0.9,3.43-1.87,6.85-2.86,10.27c-1.03,3.55-1.94,7.13-2.96,10.67
			c-1.04,3.63-2.08,7.27-3.05,10.92c-0.86,3.22-1.87,6.4-2.68,9.64c-0.88,3.48-1.86,6.94-2.88,10.39
			c-1.01,3.42-1.93,6.86-2.91,10.28c-0.36,1.26-0.66,2.57-1.36,3.76c-1.49,2.5-3.64,3.86-6.48,4.2c-0.53,0.07-1.08,0.05-1.62,0.05
			c-31.46,0-62.91,0-94.37,0.01c-1.56,0-3.11-0.08-4.49-0.89c-1.55-0.92-2.56-2.27-2.93-4.06
			C610.66,154.59,610.65,154.38,610.44,154.22z"/>
		<path class="st2" d="M866.41,159.35c-2.76,0-5.52-0.02-8.27,0.01c-0.74,0.01-0.97-0.1-0.75-0.92c1-3.75,2.06-7.49,3.13-11.22
			c0.86-3.01,1.58-6.05,2.42-9.06c0.96-3.45,2.02-6.88,2.98-10.34c0.88-3.14,1.65-6.31,2.53-9.45c1.1-3.93,2.34-7.83,3.35-11.79
			c0.75-2.97,1.58-5.93,2.41-8.87c1.07-3.82,2.09-7.65,3.18-11.46c0.92-3.24,1.72-6.52,2.7-9.74c0.93-3.05,1.7-6.14,2.53-9.22
			c0.23-0.85,0.61-0.99,1.37-0.98c4.91,0.03,9.83,0.01,14.74,0.01c0.41,0,0.82,0,1.24,0c1.69,0,1.68,0,1.18,1.6
			c-1.19,3.85-2.18,7.76-3.27,11.63c-0.95,3.37-1.83,6.75-2.82,10.11c-0.94,3.2-1.84,6.41-2.73,9.63c-0.59,2.14-1.11,4.3-1.7,6.44
			c-0.85,3.07-1.73,6.14-2.6,9.2c-0.97,3.46-2.02,6.9-2.89,10.38c-0.98,3.94-2.2,7.81-3.24,11.73c-0.73,2.77-1.48,5.54-2.29,8.3
			c-0.67,2.27-1.35,4.54-1.91,6.85c-0.53,2.18-1.29,4.32-1.75,6.52c-0.12,0.59-0.47,0.64-0.96,0.63
			C872.12,159.34,869.26,159.35,866.41,159.35z"/>
		<path class="st3" d="M913.36,139c-0.84,0.42-1.4,1.16-2.05,1.77c-6.23,5.86-12.44,11.74-18.65,17.61
			c-0.14,0.13-0.27,0.28-0.42,0.38c-0.28,0.18-0.47,0.71-0.82,0.5c-0.37-0.21-0.04-0.65,0.07-0.94c0.77-1.91,1.09-3.95,1.68-5.91
			c0.92-3.09,1.69-6.21,2.56-9.31c1.14-4.05,2.34-8.08,3.48-12.13c0.87-3.07,1.67-6.17,2.52-9.24c0.97-3.51,1.97-7.02,2.9-10.55
			c0.83-3.17,1.78-6.3,2.66-9.46c0.95-3.43,1.89-6.86,2.85-10.29c0.99-3.52,1.9-7.07,2.95-10.56c0.73-2.44,1.33-4.91,2.07-7.34
			c0.54-1.76,0.99-3.55,1.47-5.33c0.12-0.43,0.2-0.92,0.66-1.29c0.93,1.88,1.84,3.76,2.78,5.61c2.12,4.16,4.26,8.31,6.4,12.46
			c0.4,0.78,0.5,1.74,1.3,2.31c0.55,1.75,1.48,3.32,2.28,4.95c1.71,3.47,3.51,6.91,5.25,10.37c1.64,3.24,3.22,6.5,4.91,9.72
			c0.36,0.68,0.27,1.02-0.26,1.5c-1.35,1.2-2.66,2.44-3.97,3.68c-6.12,5.77-12.24,11.54-18.34,17.34
			C916.18,136.2,914.62,137.45,913.36,139z"/>
		<path class="st4" d="M913.36,139c1.26-1.55,2.82-2.8,4.26-4.16c6.1-5.79,12.22-11.56,18.34-17.34c1.31-1.24,2.62-2.48,3.97-3.68
			c0.53-0.47,0.62-0.82,0.26-1.5c-1.68-3.21-3.27-6.48-4.91-9.72c-1.75-3.46-3.54-6.89-5.25-10.37c-0.8-1.63-1.73-3.21-2.28-4.95
			c0.94-3.3,1.87-6.59,2.73-9.91c0.88-3.39,1.88-6.75,2.83-10.13c0.03-0.11-0.01-0.28,0.16-0.3c0.22-0.04,0.34,0.13,0.43,0.3
			c0.51,1,1.02,2,1.53,3c1.33,2.6,2.68,5.2,3.99,7.81c1.28,2.54,2.53,5.1,3.8,7.65c1.97,3.95,3.88,7.93,5.93,11.84
			c1.96,3.74,3.83,7.51,5.7,11.29c0.62,1.25,1.29,2.48,1.95,3.72c0.29,0.54,0.04,0.87-0.34,1.23c-3.14,2.95-6.26,5.91-9.39,8.86
			c-5.73,5.41-11.47,10.82-17.2,16.23c-6.84,6.45-13.67,12.91-20.51,19.36c-0.4,0.38-0.75,0.86-1.53,0.96
			C909.67,152.4,911.51,145.7,913.36,139z"/>
		<path class="st2" d="M754.7,187.51c0,1-0.01,2.01-0.01,3.01c0,0.3-0.01,0.57-0.4,0.62c-0.65-0.43-1.39-0.08-2.07-0.22
			c0-3.18,0-6.35,0-9.52c-0.72,0.49-1,1.45-1.54,2.19c-1.9,2.57-3.72,5.19-5.57,7.79c-0.09,0.12-0.16,0.29-0.35,0.27
			c-0.23-0.02-0.16-0.23-0.2-0.36c-0.16-0.5-0.36-0.98-0.26-1.52c0.17-0.24,0.12-0.43-0.13-0.57c-0.03-0.12-0.06-0.24-0.09-0.37
			c0.2-0.24,0.16-0.44-0.12-0.58c-0.03-0.12-0.05-0.24-0.08-0.36c0.2-0.18,0.1-0.3-0.09-0.4c-0.36-1.12-0.72-2.24-0.92-3.4
			c0.25-0.27,0.04-0.44-0.13-0.62c0-0.11,0-0.22,0-0.33c0.11-0.26,0.05-0.47-0.17-0.64c-0.02-0.1-0.03-0.21-0.05-0.31
			c0.12-0.25,0.08-0.46-0.12-0.65c-0.02-0.1-0.04-0.2-0.06-0.3c0.14-0.19,0.07-0.33-0.12-0.42c-0.04,0.13-0.09,0.27-0.13,0.4
			c-1.29,2.88-2.58,5.75-3.87,8.63c-0.16,0.37-0.31,0.74-0.47,1.11c-0.44,0.1-0.96-0.25-1.33,0.25c-0.32,0-0.65-0.01-0.97-0.01
			c-0.04-0.1-0.09-0.19-0.13-0.29c0.62-1.4,1.23-2.8,1.86-4.19c0.88-1.92,1.77-3.84,2.66-5.76c1.05-2.26,2.09-4.52,3.15-6.77
			c0.06-0.13,0.18-0.24,0.38-0.51c0.36,1.71,0.7,3.26,1.03,4.82c0.42,1.98,0.84,3.96,1.26,5.94c0.01,0.06,0.07,0.11,0.07,0.17
			c0.06,0.54-0.16,1.35,0.42,1.47c0.36,0.08,0.62-0.81,0.93-1.26c1.14-1.62,2.24-3.28,3.37-4.91c1.33-1.92,2.67-3.82,4-5.73
			c0.15,0.01,0.29,0.02,0.44,0.03c-0.04,3.54-0.07,7.09-0.11,10.63C754.3,185.71,754.4,186.61,754.7,187.51z"/>
		<path class="st2" d="M686.4,174.74c2.27,0.21,3.6,3,3.59,4.93c-0.01,3.64-1.26,6.76-3.96,9.18c-1.63,1.46-3.58,2.32-5.88,2.27
			c-2.12-0.05-4.23,0.02-6.35,0.04c-0.03-0.15-0.06-0.31-0.09-0.46c1.2-5.05,2.39-10.11,3.59-15.16c0.24-0.05,0.38-0.14,0.17-0.39
			c0.03-0.12,0.06-0.24,0.09-0.36c0.27-0.1,0.26-0.33,0.27-0.56c2.21-0.09,4.42-0.09,6.62,0.05c0.27,0.43,0.61,0.32,0.97,0.14
			c0.18,0.03,0.37,0.05,0.55,0.08C686.04,174.71,686.2,174.76,686.4,174.74z M683.91,176.81c-0.34-0.53-0.74-0.39-1.16-0.11
			c-0.76-0.02-1.52-0.02-2.28-0.05c-0.61-0.03-0.98,0.06-1,0.85c-0.01,0.36-0.08,0.8-0.18,1.19c-0.79,3.14-1.57,6.29-2.38,9.43
			c-0.12,0.46,0.03,0.56,0.44,0.55c1.2-0.01,2.42,0.11,3.61-0.04c2.17-0.27,3.87-1.43,4.9-3.35c0.89-1.64,1.22-3.44,1.1-5.34
			C686.86,178.17,685.72,176.94,683.91,176.81z"/>
		<path class="st2" d="M622.39,179.62c-0.68,1.76-0.86,3.52-1.3,5.21c-0.49,1.92-1.07,3.81-1.34,5.78
			c-0.08,0.56-0.54,0.57-1.01,0.57c-1.75,0-1.75-0.01-1.33-1.73c1.11-4.58,2.21-9.16,3.33-13.74c0.15-0.6,0.36-1.19,0.59-1.96
			c1.32,1.15,2.17,2.59,3.18,3.88c1.03,1.33,2.03,2.68,3.1,3.98c1.07,1.3,2.08,2.65,3.08,4.27c0.52-2.21,0.94-4.22,1.46-6.2
			c0.43-1.65,0.83-3.31,1.13-4.99c0.07-0.36,0.29-0.44,0.59-0.49c1.95-0.3,2.16-0.06,1.69,1.88c-1.14,4.63-2.26,9.26-3.4,13.88
			c-0.14,0.56-0.29,1.11-0.47,1.77C628.59,187.67,625.38,183.82,622.39,179.62z"/>
		<path class="st2" d="M771.73,190.97c-0.68,0.41-1.43,0.24-2.12,0.16c-0.6-0.07-0.29-0.69-0.23-1.02c0.18-1,0.47-1.99,0.7-2.99
			c0.62-2.6,1.15-5.22,1.86-7.79c0.45-1.62,0.76-3.26,1.16-4.89c0.06-0.25,0.08-0.53,0.35-0.6c0.3-0.08,0.43,0.23,0.57,0.42
			c2.1,2.72,4.2,5.45,6.3,8.17c0.83,1.08,1.73,2.1,2.44,3.42c0.67-2.85,1.32-5.54,1.95-8.25c0.19-0.82,0.63-1.58,0.62-2.46
			c0.21-0.06,0.42-0.11,0.18-0.38c0.01-0.25,0.02-0.54,0.36-0.54c0.68-0.01,1.36,0,2.03,0.03c0.12,0.01,0.15,0.17,0.12,0.3
			c-0.21,0.08-0.26,0.21-0.09,0.38c-0.03,0.12-0.05,0.24-0.08,0.36c-0.32,0.11-0.26,0.37-0.26,0.62c-0.42,2.92-1.35,5.72-1.99,8.59
			c-0.53,2.37-1.14,4.72-1.74,7.32c-3.14-4.12-6.33-7.99-9.38-12.19c-0.35,1.22-0.71,2.31-0.97,3.42c-0.42,1.81-0.75,3.64-1.19,5.45
			c-0.16,0.68-0.54,1.31-0.52,2.04C771.54,190.65,771.64,190.81,771.73,190.97z"/>
		<path class="st2" d="M829.54,176.82c0.05-0.92,0.43-1.75,0.63-2.64c0.12-0.52,0.28-0.5,0.58-0.1c1.41,1.83,2.85,3.63,4.24,5.47
			c1.53,2.03,3.25,3.93,4.61,6.27c0.71-2,0.97-3.97,1.44-5.9c0.39-1.63,0.81-3.25,1.18-4.89c0.15-0.67,0.52-0.87,1.17-0.87
			c1.54,0.01,1.59-0.01,1.25,1.44c-0.81,3.41-1.69,6.81-2.52,10.21c-0.47,1.92-0.91,3.84-1.41,5.96c-3.2-4.15-6.39-8.07-9.35-12.21
			c-0.48,0.68-0.44,1.54-0.64,2.33c-0.48,1.9-0.94,3.8-1.4,5.7c-0.05,0.21-0.02,0.44-0.03,0.66c-0.25,0.42-0.36,0.87-0.34,1.36
			c-0.02,0.12-0.05,0.23-0.07,0.35c-0.14,0.11-0.18,0.24-0.13,0.41c-0.21,0.81-0.71,0.97-2.11,0.79c-0.83-0.11-0.25-0.67-0.37-1
			c0.04-0.07,0.08-0.14,0.12-0.21c0.04-1.55,0.73-2.95,1.02-4.44c0.41-2.14,0.97-4.26,1.47-6.39
			C829.44,178.47,829.41,177.62,829.54,176.82z"/>
		<path class="st2" d="M879.96,190.38c0.1,0.26,0.45,0.68-0.07,0.71c-0.9,0.05-1.84,0.35-2.71-0.14c0-0.26,0.03-0.54-0.34-0.6
			c-0.97-1.98-1.94-3.96-2.9-5.95c-0.13-0.26-0.22-0.64-0.48-0.64c-0.33,0-0.4,0.39-0.47,0.7c-0.47,2.09-0.95,4.17-1.43,6.26
			c-0.81,0.42-1.67,0.17-2.52,0.21c0.02-0.12,0.03-0.23,0.05-0.35c0.25-0.08,0.34-0.2,0.11-0.4c0.34-1.63,0.62-3.27,1.11-4.88
			c0.49-1.63,0.76-3.33,1.19-4.99c0.44-1.69,0.86-3.38,1.14-5.11c0.11-0.71,0.36-1.1,1.19-1.03c1.66,0.14,3.35-0.18,5,0.23
			c2.29,0.57,3.02,1.75,2.6,4.15c-0.34,0.18-0.23,0.51-0.24,0.79c-0.58,2.08-1.85,3.47-3.97,4c-0.63,0.16-0.72,0.34-0.4,0.94
			c0.87,1.63,1.65,3.3,2.47,4.95C879.4,189.67,879.5,190.13,879.96,190.38z M875.96,176.73c-0.17,0.15-0.93-0.44-0.99,0.24
			c-0.12,1.22-0.64,2.32-0.9,3.5c-0.24,1.09,0.3,0.96,0.92,0.93c2.29-0.09,3.02-0.61,3.46-2.13c0.33-1.13,0.06-2.25-0.63-2.39
			C877.29,176.78,876.75,176.52,875.96,176.73z"/>
		<path class="st2" d="M606.04,191.62c-0.7-0.16-1.42-0.14-2.13-0.28c-1.59-0.31-2.94-2.04-2.96-3.74
			c-0.03-2.24,0.66-4.34,1.15-6.48c0.46-2.02,1-4.02,1.44-6.04c0.15-0.7,0.47-0.95,1.16-0.87c0.47,0.05,0.95,0.01,1.42,0.02
			c0.44,0.01,0.32,0.27,0.23,0.52c-0.19,0.07-0.3,0.19-0.27,0.4c-0.34,2.04-0.84,4.05-1.36,6.05c-0.41,1.6-0.87,3.19-0.9,4.86
			c-0.03,1.75,0.39,2.33,2.05,2.92c0.15,0.28,0.35,0.32,0.59,0.11c0.45,0,0.9-0.01,1.35-0.01c0.25,0.22,0.45,0.18,0.59-0.12
			c2.58-0.59,3.46-2.65,3.95-4.86c0.67-3.07,1.68-6.06,2.14-9.17c0.08-0.53,0.36-0.73,0.95-0.72c2,0.03,1.98-0.01,1.51,1.97
			c-0.6,2.53-1.1,5.1-1.77,7.61c-0.5,1.88-1.03,3.79-2.35,5.3c-0.78,0.9-1.73,1.54-2.93,1.91c-1.06,0.32-2.1,0.58-3.2,0.65
			C606.48,191.53,606.26,191.51,606.04,191.62z"/>
		<path class="st2" d="M919.59,176.31c-3.61,0.43-5.9,2.51-7.05,5.85c-0.54,1.59-0.68,3.27,0.28,4.81c1.34,2.16,3.39,2.32,5.47,1.93
			c1.48-0.27,2.78-1.04,4.19-1.87c-0.12,1.08-0.49,1.97-0.74,2.89c-0.06,0.23-0.23,0.34-0.45,0.43c-1.7,0.71-3.4,1.44-5.29,1.34
			c-3.79-0.21-6.66-2.63-6.7-6.71c-0.04-4.59,3.76-9.24,7.69-10.52c1.99-0.65,3.99-0.95,6.04-0.27c0.71,0.24,1.35,0.57,1.99,0.94
			c0.47,0.27,0.39,0.72,0.3,1.1c-0.16,0.66-0.37,1.32-0.78,1.91c-0.84-0.73-1.73-1.3-2.8-1.56c-0.04-0.25-0.15-0.37-0.39-0.17
			c-0.25-0.03-0.5-0.05-0.74-0.08C920.27,175.98,919.93,175.99,919.59,176.31z"/>
		<path class="st2" d="M938.25,174.38c-0.42,2.12-0.42,2.12-2.49,2.12c-1.3,0-2.6,0.02-3.89,0.01c-0.47,0-0.74,0.11-0.85,0.64
			c-0.2,0.98-0.49,1.93-0.76,2.89c-0.16,0.55-0.04,0.76,0.59,0.75c1.71-0.04,3.42,0.02,5.13-0.03c0.69-0.02,0.68,0.26,0.54,0.76
			c-0.49,1.65-0.48,1.65-2.26,1.65c-1.11,0-2.22,0-3.32,0c-1.49,0-1.49,0-1.69,1.45c-0.32,0.12-0.37,0.31-0.16,0.58
			c-0.03,0.12-0.06,0.24-0.09,0.36c-0.2,0.09-0.31,0.2-0.11,0.4c-0.03,0.12-0.06,0.24-0.09,0.36c-0.29,0.16-0.27,0.41-0.18,0.68
			c-0.12,0.51-0.24,1.02-0.38,1.66c1.85,0,3.67,0.04,5.49-0.02c0.9-0.03,1.16,0.24,0.77,1.08c-0.1,0.22-0.17,0.48-0.17,0.73
			c0,0.68-0.39,0.72-0.93,0.72c-2.5-0.02-5-0.03-7.51,0c-0.69,0.01-0.89-0.18-0.72-0.87c0.83-3.51,1.57-7.03,2.46-10.52
			c0.41-1.62,0.81-3.24,1.15-4.87c0.09-0.42,0.19-0.78,0.84-0.76c2.82,0.06,5.64,0.04,8.46,0.05
			C938.13,174.27,938.19,174.33,938.25,174.38z"/>
		<path class="st2" d="M765.89,191.12c-2.8,0.02-5.6,0.03-8.41,0.06c-0.91,0.01-0.42-0.61-0.48-0.99c0.25-0.06,0.41-0.15,0.13-0.39
			c0.16-1.36,0.61-2.64,0.93-3.96c0.79-3.24,1.54-6.5,2.29-9.75c0.11-0.49,0.39-0.92,0.39-1.44c0-0.38,0.28-0.46,0.59-0.46
			c2.75,0,5.5,0,8.26,0c0.39,0,0.54,0.06,0.41,0.55c-0.48,1.76-0.45,1.77-2.29,1.77c-1.49,0.01-2.97,0.03-4.46,0.04
			c-0.28-0.08-0.43,0-0.39,0.32c-0.22,1.03-0.35,2.1-0.68,3.1c-0.26,0.81,0.08,0.84,0.69,0.83c1.61-0.02,3.23,0.03,4.84-0.02
			c0.64-0.02,0.74,0.2,0.63,0.75c-0.31,1.66-0.3,1.66-1.99,1.66c-1.42,0-2.85,0.03-4.27-0.01c-0.56-0.02-0.81,0.21-0.9,0.71
			c-0.26,1.59-0.76,3.12-1.18,4.79c1.82,0,3.58,0,5.35,0c1.32,0,1.32,0,1,1.28c-0.23,0.07-0.35,0.18-0.13,0.4
			c-0.02,0.12-0.04,0.24-0.06,0.36C765.98,190.77,765.9,190.91,765.89,191.12z"/>
		<path class="st2" d="M860.63,174.36c0.22-0.27,0.52-0.18,0.8-0.18c2.53-0.01,5.07,0,7.6-0.01c0.62,0,0.94,0,0.64,0.83
			c-0.54,1.48-0.47,1.51-2.01,1.51c-1.39,0-2.79,0.01-4.18-0.01c-0.57-0.01-0.86,0.18-0.96,0.78c-0.16,0.95-0.36,1.91-0.62,2.84
			c-0.18,0.64,0.09,0.68,0.6,0.68c1.65-0.02,3.29,0,4.94-0.01c0.58,0,1.08,0.01,0.65,0.81c-0.05,0.1-0.01,0.25-0.03,0.37
			c-0.14,0.88-0.53,1.31-1.55,1.24c-1.51-0.11-3.04-0.01-4.56-0.04c-0.59-0.01-0.94,0.12-1.05,0.77c-0.21,1.31-0.5,2.61-0.97,3.87
			c-0.2,0.53-0.12,0.93,0.69,0.89c1.71-0.08,3.42-0.02,5.13-0.03c0.45,0,0.66-0.01,0.5,0.62c-0.48,1.87-0.43,1.89-2.38,1.89
			c-2.34,0-4.69,0-7.03,0c-0.05-0.14-0.11-0.29-0.16-0.43c1.14-4.94,2.21-9.9,3.56-14.8c0.12-0.45,0.18-0.91,0.27-1.37
			C860.54,174.51,860.59,174.44,860.63,174.36z"/>
		<path class="st2" d="M670.93,189.21c-0.02,0.12-0.05,0.24-0.07,0.36c-0.2,0.07-0.32,0.2-0.27,0.43c0.06,0.86-0.25,1.22-1.19,1.2
			c-2.44-0.07-4.88-0.04-7.32-0.01c-0.71,0.01-0.82-0.16-0.67-0.86c0.78-3.61,1.65-7.19,2.6-10.76c0.4-1.5,0.73-3.02,1.01-4.55
			c0.13-0.69,0.46-0.85,1.1-0.85c2.54,0.02,5.07,0.03,7.61,0c0.67-0.01,0.81,0.19,0.68,0.82c-0.33,1.52-0.31,1.52-1.85,1.52
			c-1.46,0-2.92-0.01-4.38,0.01c-0.32,0-0.75-0.12-0.83,0.39c-0.17,1.04-0.64,2.01-0.77,3.06c-0.08,0.63,0.07,0.84,0.73,0.82
			c1.58-0.04,3.17-0.01,4.76-0.01c0.52,0,0.97-0.14,0.68,0.79c-0.5,1.58-0.4,1.61-1.97,1.61c-1.39,0-2.79,0.02-4.18-0.01
			c-0.47-0.01-0.71,0.11-0.9,0.59c-0.56,1.45-0.66,3.01-1.13,4.49c-0.17,0.53,0.33,0.41,0.61,0.41c1.87,0.02,3.74,0.02,5.61,0.03
			C670.77,188.89,670.75,189.08,670.93,189.21z"/>
		<path class="st2" d="M719.51,176.09c0.02,0.12,0.04,0.23,0.06,0.35c-0.08,0.32-0.06,0.62,0.19,0.87c0.02,0.1,0.04,0.2,0.06,0.3
			c-0.13,0.14-0.06,0.26,0.03,0.38c0.66,3.1,1.32,6.19,1.98,9.29c0.11,0.51,0.21,1.03,0.32,1.54c-0.08,0.24-0.01,0.44,0.2,0.58
			c0.02,0.12,0.04,0.23,0.06,0.35c-0.07,0.17-0.04,0.31,0.12,0.41c0.23,0.75,0.01,1.1-0.83,1.02c-0.55-0.06-1.12-0.01-1.68-0.01
			c-0.08-0.08-0.15-0.16-0.23-0.24c-0.3-1.18-0.59-2.36-0.69-3.57c-0.04-0.47-0.24-0.59-0.65-0.59c-1.84,0.01-3.67,0.01-5.51,0.02
			c-0.41,0-0.67,0.16-0.91,0.53c-0.63,1-1.44,1.89-1.99,2.93c-0.44,0.82-1.01,1-1.82,0.92c-0.38-0.04-0.76-0.03-1.14-0.04
			c-0.01-0.16-0.03-0.31-0.04-0.47c1.86-3.02,4.02-5.84,6.01-8.77c1.64-2.41,3.29-4.82,4.93-7.23c0.04-0.05,0.07-0.1,0.12-0.15
			c0.21-0.22,0.31-0.7,0.63-0.62c0.32,0.07,0.37,0.5,0.37,0.85c-0.05,0.19,0.09,0.28,0.2,0.39c0.01,0.12,0.03,0.24,0.04,0.35
			C719.29,175.72,719.31,175.93,719.51,176.09z M718.36,183.18c0.13-0.2,0.06-0.37-0.1-0.51c-0.04-0.23-0.08-0.45-0.12-0.68
			c0.16-0.2,0.05-0.33-0.12-0.44c-0.09-0.58-0.17-1.17-0.26-1.75c-0.03-0.2,0.11-0.5-0.16-0.57c-0.32-0.08-0.36,0.25-0.48,0.46
			c-0.45,0.78-0.9,1.55-1.45,2.28c-0.57,0.75-1.19,1.5-1.52,2.48c0.28,0.02,0.49,0.04,0.7,0.04c1.07,0,2.15-0.01,3.22,0.01
			c0.45,0.01,0.54-0.2,0.45-0.58C718.46,183.67,718.41,183.42,718.36,183.18z"/>
		<path class="st2" d="M903.41,173.82c0.9,4.43,1.78,8.87,2.72,13.3c0.24,1.15,0.58,2.28,0.83,3.44c0.11,0.53-0.05,0.62-0.48,0.61
			c-0.03,0-0.06,0-0.1,0c-2.27,0.11-2.44-0.08-2.74-2.99c-0.14-1.4-0.14-1.4-1.55-1.4c-1.27,0-2.54,0.09-3.8-0.03
			c-1.1-0.1-1.76,0.34-2.31,1.22c-0.56,0.9-1.17,1.76-1.78,2.62c-0.33,0.47-2.32,0.86-2.76,0.53c-0.37-0.28,0-0.5,0.13-0.7
			c0.91-1.39,1.83-2.77,2.77-4.13c1.43-2.07,2.9-4.11,4.34-6.18c1.36-1.95,2.7-3.91,4.05-5.87c0.12-0.18,0.25-0.36,0.38-0.53
			C903.22,173.75,903.32,173.79,903.41,173.82z M902.53,181.6c0.25-0.29,0-0.32-0.2-0.38c-0.1-0.69-0.2-1.38-0.3-2.07
			c-1.09,1.83-2.34,3.47-3.57,5.12c-0.18,0.12-0.14,0.17,0.05,0.19c0.82,0.01,1.63,0.05,2.44,0.03c0.65-0.01,1.5,0.28,1.91-0.14
			c0.39-0.4-0.19-1.17-0.15-1.8c0.23-0.21,0.1-0.32-0.11-0.4C902.58,181.97,902.56,181.79,902.53,181.6z"/>
		<path class="st2" d="M802.15,179.1c0.02-0.18,0.04-0.36,0.06-0.54c0.16-0.12,0.14-0.24,0.02-0.38c1.1-3.2,3.99-4.56,6.29-4.38
			c1.39,0.11,2.84,0.24,3.6,1.74c0.32,0.63,0.33,1.13-0.42,1.44c-0.31,0.13-0.62,0.28-0.93,0.41c-0.42,0.19-0.72,0.25-1.03-0.3
			c-0.61-1.07-3.01-1.25-4.11,0.19c-0.84,1.1-0.74,2.07,0.31,3.01c0.92,0.82,2.07,1.26,3.05,1.99c1.48,1.09,1.96,2.17,1.59,3.96
			c-0.63,3.06-2.83,5-6.08,5.29c-1.56,0.14-2.89,0.01-4.04-1.12c-0.42-0.41-0.67-0.9-0.83-1.44c-0.12-0.41-0.27-0.99,0.08-1.24
			c0.58-0.4,1.25-0.72,1.98-0.8c0.18-0.02,0.27,0.21,0.33,0.4c0.52,1.58,2.15,2.16,4.02,1.43c1.25-0.48,2.04-2.31,1.49-3.54
			c-0.3-0.67-0.94-0.98-1.55-1.32c-1.4-0.79-2.79-1.6-3.62-3.05c0.04-0.17-0.02-0.3-0.16-0.4c-0.02-0.18-0.05-0.36-0.07-0.54
			C802.23,179.66,802.23,179.38,802.15,179.1z"/>
		<path class="st2" d="M698.03,190.13c0.67-3.19,1.45-6.34,2.29-9.49c0.51-1.92,0.72-3.91,1.4-5.8c0.17-0.47,0.32-0.69,0.83-0.66
			c1.92,0.09,3.85-0.14,5.77,0.21c1.38,0.25,2.28,1.07,2.41,2.47c0.27,2.96-1.3,5.66-4.38,6.61c-0.67,0.21-1.44,0.06-2.17,0.08
			c-0.63,0.02-1.26,0.06-1.89,0.09c-0.26,0.07-0.28,0.26-0.23,0.48c-0.02,0.12-0.04,0.23-0.06,0.35c-0.13,0.1-0.23,0.21-0.18,0.39
			c-0.43,1.73-0.84,3.46-1.29,5.19c-0.1,0.37,0.15,0.97-0.37,1.07c-0.67,0.12-1.38,0.06-2.06,0c-0.29-0.03-0.15-0.35-0.15-0.56
			C698.09,190.44,698.11,190.29,698.03,190.13z M704.45,181.24c0.75,0.12,1.57-0.17,2.33-0.61c0.8-0.45,1.35-2,1.03-2.92
			c-0.33-0.96-1.16-1.05-2-1.06c-1.89-0.02-1.89-0.01-2.33,1.87c-0.11,0.45-0.25,0.89-0.35,1.35
			C702.84,181.27,702.85,181.27,704.45,181.24z"/>
		<path class="st2" d="M886.36,183.72c-0.35,1.45-0.72,2.9-1.06,4.36c-0.18,0.76-0.4,1.51-0.47,2.28c-0.06,0.68-0.35,0.82-0.97,0.83
			c-1.8,0.03-1.81,0.05-1.55-1.66c0.33-2.15,1.03-4.22,1.52-6.34c0.63-2.77,1.3-5.54,1.9-8.32c0.1-0.46,0.28-0.68,0.72-0.68
			c2.76,0,5.51,0,8.27-0.01c0.42,0,0.53,0.12,0.46,0.57c-0.27,1.76-0.25,1.76-2.05,1.76c-1.39,0-2.79,0.02-4.18-0.01
			c-0.5-0.01-0.78,0.11-0.97,0.64c-0.37,1.06-0.39,2.19-0.81,3.24c-0.17,0.43,0.33,0.35,0.57,0.35c1.65,0.02,3.3,0.08,4.94,0
			c0.98-0.05,0.94,0.31,0.82,1.1c-0.17,1.08-0.61,1.45-1.73,1.38c-1.67-0.11-3.35-0.01-5.03,0
			C886.39,183.21,886.26,183.38,886.36,183.72z"/>
		<path class="st2" d="M651.16,174.18c1.3,0,2.6,0.01,3.9-0.01c0.47-0.01,0.63,0.05,0.54,0.63c-0.09,0.53-0.45,0.94-0.46,1.5
			c-0.01,0.31-0.47,0.2-0.74,0.2c-1.65,0.01-3.29,0.04-4.94-0.01c-0.63-0.02-0.93,0.23-1.06,0.79c-0.22,0.9-0.42,1.8-0.65,2.7
			c-0.14,0.57,0.06,0.77,0.64,0.77c1.65-0.02,3.29,0,4.94,0.01c0.54,0,0.9-0.05,0.57,0.77c-0.66,1.62-0.58,1.65-2.29,1.65
			c-1.3,0-2.6,0.01-3.9-0.01c-0.43-0.01-0.64,0.1-0.8,0.56c-0.7,1.91-0.99,3.91-1.41,5.88c-0.28,1.32-1.48,2.03-2.75,1.48
			c-0.27-0.12-0.36-0.32-0.29-0.61c1.26-5.11,2.54-10.21,3.74-15.34c0.19-0.8,0.52-1,1.26-0.98
			C648.69,174.22,649.92,174.18,651.16,174.18z"/>
		<path class="st2" d="M730.34,181.08c1.74-1.98,3.45-3.92,5.14-5.88c0.94-1.09,1.66-1.31,3.27-0.83c-1.37,1.9-2.97,3.57-4.45,5.34
			c-0.96,1.15-2,2.22-2.96,3.37c-0.25,0.3-0.37,0.7-0.46,1.1c-0.48,2.09-1.02,4.17-1.48,6.26c-0.12,0.53-0.3,0.73-0.86,0.74
			c-2.01,0.04-2.09-0.04-1.57-2.08c0.43-1.68,0.94-3.34,1.27-5.05c0.09-0.44,0.09-0.82-0.06-1.23c-0.9-2.42-1.79-4.84-2.68-7.26
			c-0.09-0.23-0.15-0.48-0.23-0.71c-0.15-0.46-0.07-0.74,0.5-0.67c0.06,0.01,0.13,0,0.19,0c1.84-0.03,1.73,0.02,2.5,1.72
			C729.23,177.59,729.6,179.4,730.34,181.08z"/>
		<path class="st2" d="M789.87,175.72c0.04-0.18,0.07-0.36,0.11-0.55c0.22-0.09,0.33-0.2,0.11-0.4c-0.03-0.46,0.21-0.59,0.64-0.59
			c3.45,0.01,6.91,0.01,10.36,0c0.49,0,0.64,0.17,0.46,0.63c-0.01,0.03-0.02,0.06-0.03,0.09c-0.5,1.61-0.5,1.59-2.3,1.62
			c-0.85,0.01-1.86-0.35-2.5,0.18c-0.56,0.48-0.44,1.49-0.62,2.27c-0.72,3.02-1.55,6.01-2.11,9.06c-0.09,0.48-0.37,0.92-0.48,1.4
			c-0.46,1.9-0.46,1.9-2.35,1.75c-0.39-0.03-0.53-0.12-0.54-0.55c-0.02-0.65,0.26-1.21,0.4-1.81c0.87-3.68,1.74-7.35,2.65-11.02
			c0.32-1.31,0.38-1.29-0.97-1.29c-0.76,0-1.52,0.01-2.28-0.01c-0.27-0.01-0.7,0.16-0.66-0.4
			C789.99,176.03,790.07,175.91,789.87,175.72z"/>
		<path class="st2" d="M850.83,177.06c0.05-0.6-0.37-0.51-0.75-0.54c-1.16-0.09-2.33,0.16-3.48-0.14c0,0,0.01-0.01,0.01-0.01
			c0-0.15,0.01-0.3,0.01-0.45c0.23-0.07,0.41-0.15,0.14-0.39c0.01-0.19,0.01-0.38,0.02-0.57c0.44-0.09,0.35-0.44,0.37-0.74
			c3.58-0.01,7.16-0.02,10.74-0.04c0.45,0,0.66,0,0.5,0.62c-0.43,1.7-0.38,1.71-2.15,1.71c-0.19,0-0.38,0-0.57,0
			c-2.09,0-2.11-0.01-2.58,1.96c-0.56,2.35-0.98,4.74-1.63,7.06c-0.49,1.73-0.83,3.49-1.24,5.23c-0.08,0.32-0.23,0.42-0.51,0.42
			c-0.51,0-1.02-0.02-1.52,0.01c-0.66,0.04-0.78-0.25-0.57-0.8c0.23-0.07,0.35-0.18,0.12-0.4c0.01-0.12,0.01-0.25,0.02-0.37
			c0.25-0.07,0.42-0.17,0.11-0.4c0.55-2.41,1.09-4.83,1.67-7.23c0.27-1.14,0.61-2.26,0.92-3.39c0.33-0.12,0.38-0.32,0.15-0.58
			c0.03-0.12,0.06-0.24,0.08-0.36C850.97,177.51,851.01,177.32,850.83,177.06z"/>
		<path class="st2" d="M638.45,191.13c-0.44,0.01-0.88,0.04-1.33,0.04c-1.36,0-1.38,0-1.04-1.39c0.87-3.61,1.76-7.21,2.62-10.81
			c0.33-1.38,0.55-2.79,1.01-4.15c0.17-0.5,0.38-0.65,0.86-0.62c0.63,0.04,1.44-0.18,1.83,0.14c0.33,0.26-0.26,1.03-0.37,1.59
			c-0.3,1.58-0.55,3.19-1,4.73c-0.92,3.17-1.49,6.43-2.4,9.6c-0.04,0.15-0.01,0.31-0.01,0.47
			C638.45,190.82,638.45,190.98,638.45,191.13z"/>
		<path class="st2" d="M658.62,174.77c0-0.32,0.08-0.56,0.47-0.56c0.66,0.01,1.49-0.24,1.95,0.07c0.65,0.42-0.07,1.13-0.18,1.71
			c-0.52,2.83-1.41,5.59-1.97,8.41c-0.42,2.08-1.11,4.08-1.47,6.16c-0.15,0.11-0.17,0.26-0.12,0.44c-0.74,0.38-1.54,0.22-2.28,0.13
			c-0.56-0.06-0.11-0.62-0.19-0.94c0.22-0.07,0.42-0.15,0.14-0.39c-0.02-0.57,0.21-1.09,0.34-1.63c1.06-4.33,2.09-8.67,3.12-13
			C658.64,175.09,658.86,175.04,658.62,174.77z"/>
		<path class="st2" d="M823.75,174.25c0.16-0.01,0.31-0.04,0.47-0.04c2.11-0.03,2.06-0.04,1.53,2.05
			c-0.93,3.66-1.87,7.32-2.63,11.02c-0.23,1.15-0.59,2.28-0.83,3.43c-0.9,0.34-1.8,0.35-2.71,0.04c0.69-2.94,1.37-5.88,2.07-8.82
			c0.5-2.13,1.02-4.27,1.53-6.4c0.2-0.06,0.45-0.09,0.2-0.38c0.03-0.12,0.06-0.24,0.09-0.36
			C823.73,174.69,823.74,174.47,823.75,174.25z"/>
		<path class="st2" d="M819.59,190.75c0.91,0.31,1.81,0.31,2.71-0.04c0.02,0.4-0.23,0.58-0.57,0.59c-0.63,0.03-1.26,0.04-1.89-0.01
			C819.56,191.28,819.17,191.16,819.59,190.75z"/>
		<path class="st5" d="M958.88,70.63c0-0.89,0-1.79,0-2.68c0.06,0,0.11,0,0.17,0c0,0.89,0,1.79,0,2.68
			C958.99,70.63,958.94,70.63,958.88,70.63z"/>
		<path class="st2" d="M869.04,190.92c0.84-0.04,1.71,0.21,2.52-0.21c-0.03,0.65-0.52,0.68-0.94,0.59
			C870.09,191.19,869.39,191.76,869.04,190.92z"/>
		<path class="st2" d="M754.7,187.51c-0.31-0.9-0.41-1.8,0.06-2.69C754.85,185.72,754.89,186.62,754.7,187.51z"/>
		<path class="st2" d="M752.22,190.92c0.68,0.14,1.42-0.21,2.07,0.22c-0.65,0.37-1.33,0.15-1.99,0.11
			C752.27,191.25,752.25,191.04,752.22,190.92z"/>
		<path class="st2" d="M879.96,190.38c-0.46-0.25-0.56-0.71-0.68-1.16C879.62,189.54,879.8,189.96,879.96,190.38z"/>
		<path class="st5" d="M685.41,174.42c-0.36,0.19-0.7,0.3-0.97-0.14C684.78,174.21,685.11,174.22,685.41,174.42z"/>
		<path class="st5" d="M919.59,176.31c0.34-0.33,0.68-0.33,1.01,0.02C920.26,176.43,919.93,176.43,919.59,176.31z"/>
		<path class="st5" d="M881.19,179.33c0.01-0.29-0.1-0.61,0.24-0.79C881.52,178.85,881.46,179.12,881.19,179.33z"/>
		<path class="st2" d="M608.39,188.95c-0.14,0.3-0.34,0.34-0.59,0.12C607.98,188.92,608.17,188.9,608.39,188.95z"/>
		<path class="st2" d="M744.17,189.19c0.25,0.14,0.3,0.33,0.13,0.57C744.13,189.6,744.08,189.41,744.17,189.19z"/>
		<path class="st5" d="M823.75,174.25c-0.01,0.22-0.02,0.44-0.27,0.54C823.42,174.54,823.39,174.29,823.75,174.25z"/>
		<path class="st5" d="M847.14,174.22c-0.02,0.3,0.08,0.66-0.37,0.74C846.77,174.65,846.81,174.36,847.14,174.22z"/>
		<path class="st5" d="M850.83,177.06c0.18,0.25,0.14,0.45-0.15,0.58C850.61,177.42,850.66,177.22,850.83,177.06z"/>
		<path class="st5" d="M850.59,178c0.23,0.27,0.18,0.46-0.15,0.58C850.4,178.37,850.43,178.17,850.59,178z"/>
		<path class="st2" d="M929.09,185.22c-0.22-0.27-0.17-0.46,0.16-0.58C929.3,184.86,929.23,185.04,929.09,185.22z"/>
		<path class="st2" d="M928.62,187.02c-0.09-0.26-0.12-0.51,0.18-0.68C928.89,186.6,928.81,186.82,928.62,187.02z"/>
		<path class="st2" d="M743.95,188.24c0.28,0.14,0.32,0.34,0.12,0.58C743.9,188.66,743.88,188.46,743.95,188.24z"/>
		<path class="st2" d="M670.93,189.21c-0.18-0.13-0.16-0.33-0.18-0.51C671.3,188.7,671.09,188.97,670.93,189.21z"/>
		<path class="st2" d="M606.45,189.08c-0.24,0.21-0.44,0.18-0.59-0.11C606.08,188.92,606.27,188.94,606.45,189.08z"/>
		<path class="st2" d="M876.85,190.35c0.36,0.06,0.33,0.34,0.34,0.6C876.92,190.83,876.88,190.59,876.85,190.35z"/>
		<path class="st5" d="M787.6,175.93c0-0.24-0.06-0.51,0.26-0.62C787.89,175.57,787.86,175.79,787.6,175.93z"/>
		<path class="st5" d="M677.82,174.23c-0.01,0.22,0,0.46-0.27,0.56C677.51,174.54,677.49,174.31,677.82,174.23z"/>
		<path class="st5" d="M686.4,174.74c-0.2,0.02-0.36-0.03-0.44-0.24C686.2,174.4,686.33,174.52,686.4,174.74z"/>
		<path class="st5" d="M921.34,176.41c0.24-0.19,0.35-0.08,0.39,0.17C921.6,176.53,921.47,176.47,921.34,176.41z"/>
		<path class="st5" d="M677.47,175.15c0.21,0.25,0.07,0.34-0.17,0.39C677.36,175.41,677.41,175.28,677.47,175.15z"/>
		<path class="st2" d="M928.89,185.97c-0.21-0.2-0.09-0.31,0.11-0.4C929.07,185.74,929.02,185.87,928.89,185.97z"/>
		<path class="st5" d="M790.09,174.77c0.22,0.2,0.11,0.32-0.11,0.4C789.92,175.01,789.96,174.88,790.09,174.77z"/>
		<path class="st2" d="M743.79,187.48c0.2,0.09,0.29,0.21,0.09,0.4C743.78,187.76,743.72,187.63,743.79,187.48z"/>
		<path class="st5" d="M785.52,174.77c0.24,0.27,0.03,0.33-0.18,0.38C785.27,174.96,785.42,174.88,785.52,174.77z"/>
		<path class="st5" d="M789.87,175.72c0.19,0.2,0.12,0.32-0.12,0.39C789.69,175.94,789.74,175.82,789.87,175.72z"/>
		<path class="st5" d="M846.76,175.52c0.27,0.24,0.09,0.33-0.14,0.39C846.54,175.74,846.53,175.59,846.76,175.52z"/>
		<path class="st2" d="M757.15,189.79c0.28,0.24,0.11,0.33-0.13,0.39C756.94,190.01,756.92,189.86,757.15,189.79z"/>
		<path class="st2" d="M847.86,189.21c0.31,0.23,0.14,0.32-0.11,0.4C847.69,189.45,847.66,189.3,847.86,189.21z"/>
		<path class="st5" d="M658.62,174.77c0.24,0.27,0.03,0.33-0.18,0.38C658.37,174.96,658.52,174.88,658.62,174.77z"/>
		<path class="st2" d="M670.59,190c-0.05-0.23,0.07-0.35,0.27-0.43C670.97,189.84,670.74,189.9,670.59,190z"/>
		<path class="st2" d="M654.97,189.79c0.28,0.24,0.09,0.32-0.14,0.39C654.76,190.01,654.75,189.86,654.97,189.79z"/>
		<path class="st2" d="M766.26,190.36c-0.23-0.22-0.11-0.33,0.13-0.4C766.43,190.12,766.38,190.25,766.26,190.36z"/>
		<path class="st2" d="M847.73,189.98c0.23,0.22,0.11,0.32-0.12,0.4C847.55,190.22,847.6,190.09,847.73,189.98z"/>
		<path class="st5" d="M823.39,175.15c0.24,0.29-0.01,0.32-0.2,0.38C823.14,175.34,823.26,175.24,823.39,175.15z"/>
		<path class="st2" d="M869.2,190.17c0.23,0.2,0.15,0.33-0.11,0.4C869.04,190.41,869.1,190.29,869.2,190.17z"/>
		<path class="st2" d="M657.3,190.99c-0.05-0.17-0.03-0.32,0.12-0.44C657.54,190.75,657.52,190.9,657.3,190.99z"/>
		<path class="st2" d="M765.89,191.12c0-0.21,0.09-0.35,0.3-0.4C766.24,190.96,766.19,191.13,765.89,191.12z"/>
		<path class="st5" d="M606.08,175.14c-0.03-0.21,0.08-0.33,0.27-0.4C606.45,175,606.17,175,606.08,175.14z"/>
		<path class="st5" d="M787.94,174.95c-0.17-0.18-0.12-0.3,0.09-0.38C788.11,174.72,788.04,174.84,787.94,174.95z"/>
		<path class="st5" d="M754.66,173.79c0.1,0.01,0.19,0.01,0.29,0.02c-0.03,0.12-0.05,0.25-0.08,0.37c-0.15-0.01-0.29-0.02-0.44-0.03
			C754.51,174.04,754.58,173.91,754.66,173.79z"/>
		<path class="st2" d="M707.06,190.67c0.01,0.16,0.03,0.31,0.04,0.47C706.63,191.02,706.89,190.85,707.06,190.67z"/>
		<path class="st5" d="M738.79,174.37c-0.02-0.01-0.04-0.02-0.06-0.04c0.02-0.03,0.05-0.06,0.07-0.09c0.02,0.02,0.04,0.05,0.06,0.07
			C738.84,174.33,738.81,174.35,738.79,174.37z"/>
		<path class="st5" d="M938.25,174.38c-0.06-0.06-0.12-0.12-0.18-0.18C938.22,174.18,938.28,174.24,938.25,174.38z"/>
		<path class="st2" d="M826.39,189.97c-0.04,0.07-0.08,0.14-0.12,0.21C826.19,190.04,826.28,190,826.39,189.97z"/>
		<path class="st5" d="M860.63,174.36c-0.05,0.07-0.09,0.14-0.14,0.21C860.45,174.45,860.5,174.38,860.63,174.36z"/>
		<path class="st5" d="M846.6,176.37C846.6,176.37,846.6,176.37,846.6,176.37c-0.03,0.02-0.06,0.05-0.08,0.05
			c-0.02,0-0.04-0.04-0.07-0.06C846.5,176.36,846.55,176.37,846.6,176.37z"/>
		<path class="st5" d="M683.91,176.81c-0.39,0.03-0.8,0.21-1.16-0.11C683.17,176.42,683.57,176.28,683.91,176.81z"/>
		<path class="st2" d="M902.71,182.56c-0.14-0.1-0.17-0.24-0.11-0.4C902.82,182.24,902.95,182.35,902.71,182.56z"/>
		<path class="st2" d="M902.53,181.6c-0.12-0.1-0.25-0.19-0.2-0.38C902.54,181.28,902.78,181.31,902.53,181.6z"/>
		<path class="st2" d="M898.46,184.27c0.02,0.06,0.03,0.13,0.05,0.19C898.32,184.44,898.28,184.38,898.46,184.27z"/>
	</g>
</g>
</svg>
