<?xml version="1.0" encoding="utf-8"?>
<!-- Generator: Adobe Illustrator 27.1.1, SVG Export Plug-In . SVG Version: 6.00 Build 0)  -->
<svg version="1.1" id="Layer_1" xmlns="http://www.w3.org/2000/svg" xmlns:xlink="http://www.w3.org/1999/xlink" x="0px" y="0px"
	 viewBox="0 0 2100 400" style="enable-background:new 0 0 2100 400;" xml:space="preserve">
<style type="text/css">
	.st0{fill:#00434D;}
	.st1{fill:none;}
	.st2{fill:#FFFFFF;}
	.st3{fill:#FF7423;}
	.st4{fill:#299142;}
	.st5{fill:#636F72;}
</style>
<path class="st0" d="M2030.3007,400H69.6993C31.2055,400,0,368.7945,0,330.3007V69.6993C0,31.2055,31.2055,0,69.6993,0h1960.6013
	C2068.7944,0,2100,31.2055,2100,69.6993v260.6013C2100,368.7945,2068.7944,400,2030.3007,400z"/>
<g>
	<rect x="55.8279" y="65.3564" class="st1" width="1009.5067" height="269.2873"/>
	<path class="st2" d="M200.895,245.207v-1.9863c-2.6978,3.0898-5.3594,5.6035-7.9824,7.541
		c-2.6245,1.9375-5.4697,3.4092-8.5342,4.4141c-3.0659,1.0049-6.4131,1.5078-10.0425,1.5078c-4.8071,0-9.2583-1.0186-13.353-3.0527
		c-4.0957-2.0352-7.6396-4.9414-10.6309-8.7188c-2.9922-3.7764-5.2603-8.2139-6.8052-13.3164
		c-1.5449-5.0996-2.3179-10.6182-2.3179-16.5527c0-12.5557,3.0649-22.3403,9.1968-29.3545
		c6.1304-7.0137,14.1987-10.5205,24.2046-10.5205c5.7866,0,10.6675,0.9932,14.6406,2.9795
		c3.9727,1.9863,7.8467,5.0396,11.624,9.1597v-29.6494c0-4.1196,0.8208-7.2339,2.4648-9.3433
		c1.6426-2.1084,3.9839-3.1636,7.0259-3.1636c3.0405,0,5.3818,0.9692,7.0259,2.9062c1.6426,1.938,2.4648,4.7944,2.4648,8.5708
		v88.5791c0,3.8252-0.8833,6.6943-2.6489,8.6074s-4.0464,2.8691-6.8418,2.8691c-2.7476,0-5.0156-0.9932-6.8052-2.9795
		C201.7896,251.7178,200.895,248.8857,200.895,245.207z M161.3877,215.7051c0,5.4443,0.8462,10.0791,2.5381,13.9043
		c1.6919,3.8262,4.0098,6.708,6.9526,8.6445c2.9424,1.9385,6.1543,2.9062,9.6377,2.9062c3.5312,0,6.7559-0.9199,9.6743-2.7588
		c2.9175-1.8389,5.2476-4.6592,6.9893-8.4609c1.7402-3.7998,2.6118-8.5449,2.6118-14.2354c0-5.3457-0.8716-9.9434-2.6118-13.7949
		c-1.7417-3.8491-4.0957-6.792-7.063-8.8281c-2.9678-2.0347-6.2163-3.0532-9.748-3.0532c-3.6782,0-6.9648,1.043-9.8584,3.127
		c-2.8945,2.0854-5.1382,5.0762-6.7314,8.9751C162.1841,206.0303,161.3877,210.5547,161.3877,215.7051z"/>
	<path class="st2" d="M315.2236,215.8525c0,5.9844-0.9321,11.502-2.7954,16.5527c-1.8647,5.0527-4.5615,9.3936-8.0928,13.0225
		c-3.5317,3.6299-7.7505,6.4131-12.6543,8.3496c-4.9053,1.9375-10.4229,2.9062-16.5532,2.9062
		c-6.0825,0-11.5508-0.9814-16.4062-2.9424c-4.856-1.9609-9.062-4.7695-12.6177-8.4238c-3.5566-3.6533-6.2534-7.9697-8.0928-12.9482
		c-1.8389-4.9775-2.7588-10.4844-2.7588-16.5166c0-6.082,0.9312-11.6484,2.7959-16.7007c1.8633-5.0513,4.5361-9.3677,8.019-12.9487
		c3.4819-3.5796,7.6997-6.3384,12.6543-8.2764c4.9531-1.937,10.4214-2.9062,16.4062-2.9062c6.0811,0,11.5986,0.9819,16.5532,2.9429
		c4.9536,1.9624,9.1963,4.7578,12.7275,8.3872c3.5317,3.6304,6.2168,7.9453,8.0562,12.9482S315.2236,209.8193,315.2236,215.8525z
		 M295.0654,215.8525c0-8.1914-1.8027-14.5674-5.4072-19.1284c-3.605-4.5615-8.4492-6.8423-14.5303-6.8423
		c-3.9248,0-7.3823,1.0186-10.3735,3.0532c-2.9922,2.0356-5.2974,5.0396-6.9155,9.0122c-1.6187,3.9727-2.4282,8.6074-2.4282,13.9053
		c0,5.248,0.7969,9.834,2.3911,13.7568c1.5933,3.9248,3.874,6.9287,6.8423,9.0127c2.9668,2.085,6.4614,3.127,10.4839,3.127
		c6.0811,0,10.9253-2.292,14.5303-6.8789C293.2627,230.2842,295.0654,223.9443,295.0654,215.8525z"/>
	<path class="st2" d="M349.2871,186.1299v2.4277c3.5312-4.6592,7.3936-8.0801,11.5874-10.2632
		c4.1934-2.1816,9.0122-3.2739,14.4565-3.2739c5.2969,0,10.0298,1.1533,14.1992,3.458c4.168,2.3057,7.2832,5.5669,9.3433,9.7847
		c1.3242,2.4531,2.1816,5.1016,2.5752,7.9458c0.3916,2.8452,0.5884,6.4736,0.5884,10.8877v37.374
		c0,4.0225-0.9194,7.0635-2.7588,9.123s-4.2305,3.0898-7.1733,3.0898c-2.9922,0-5.4199-1.0547-7.2832-3.1631
		c-1.8647-2.1084-2.7959-5.125-2.7959-9.0498v-33.4746c0-6.6211-0.9194-11.6846-2.7588-15.1919
		c-1.8394-3.5059-5.5063-5.2603-10.999-5.2603c-3.5806,0-6.8418,1.0669-9.7847,3.2002c-2.9429,2.1338-5.1016,5.0649-6.4741,8.792
		c-0.9819,2.9922-1.4717,8.583-1.4717,16.7734v25.1611c0,4.0723-0.9448,7.125-2.8325,9.1602
		c-1.8887,2.0342-4.3291,3.0527-7.3203,3.0527c-2.8945,0-5.2729-1.0547-7.1362-3.1631c-1.8647-2.1084-2.7959-5.125-2.7959-9.0498
		v-58.0469c0-3.8257,0.8335-6.6821,2.5015-8.5708c1.667-1.8877,3.9478-2.8325,6.8423-2.8325c1.7656,0,3.3589,0.4175,4.7822,1.251
		c1.4219,0.8345,2.562,2.085,3.4209,3.752C348.8569,181.6914,349.2871,183.7271,349.2871,186.1299z"/>
	<path class="st2" d="M472.812,245.3535c-4.8555,3.7773-9.5527,6.6104-14.0889,8.498c-4.5371,1.8877-9.626,2.832-15.2656,2.832
		c-5.1504,0-9.6748-1.0186-13.5742-3.0527c-3.8989-2.0352-6.9038-4.7939-9.0122-8.2773c-2.1094-3.4814-3.1636-7.2578-3.1636-11.3291
		c0-5.4932,1.7407-10.1777,5.2236-14.0527c3.4819-3.874,8.2642-6.4736,14.3462-7.7979c1.2749-0.2949,4.4385-0.957,9.4907-1.9863
		c5.0508-1.0303,9.3804-1.9746,12.9854-2.833c3.605-0.8574,7.5156-1.9004,11.7344-3.127c-0.2461-5.2964-1.313-9.1831-3.2002-11.6602
		c-1.8887-2.4761-5.8008-3.7153-11.7349-3.7153c-5.1016,0-8.9385,0.7114-11.5137,2.1333c-2.5752,1.4233-4.7822,3.5566-6.6211,6.4009
		c-1.8394,2.8447-3.1396,4.7212-3.8994,5.6274c-0.7612,0.9082-2.3911,1.3613-4.8926,1.3613c-2.2563,0-4.2061-0.7227-5.8486-2.1699
		c-1.644-1.4463-2.4648-3.2983-2.4648-5.5547c0-3.5312,1.251-6.9639,3.752-10.2998c2.5015-3.335,6.4009-6.0811,11.6978-8.2402
		c5.2974-2.1572,11.8936-3.2368,19.7905-3.2368c8.8286,0,15.7686,1.0425,20.8208,3.1265c5.0508,2.0854,8.6191,5.3833,10.7046,9.8955
		c2.084,4.5132,3.1265,10.4966,3.1265,17.9512c0,4.708-0.0127,8.7061-0.0366,11.9922c-0.0254,3.2861-0.062,6.9404-0.1104,10.9619
		c0,3.7773,0.625,7.7129,1.876,11.8076c1.2505,4.0957,1.876,6.7314,1.876,7.9092c0,2.0596-0.9692,3.9355-2.9058,5.6279
		c-1.9385,1.6924-4.1328,2.5381-6.585,2.5381c-2.0601,0-4.0957-0.9688-6.1064-2.9062
		C477.2012,251.8408,475.0674,249.0322,472.812,245.3535z M471.4878,216.2939c-2.9429,1.0791-7.2227,2.2197-12.8384,3.4209
		c-5.6162,1.2021-9.5029,2.085-11.6606,2.6484c-2.1587,0.5645-4.2188,1.668-6.1802,3.3105
		c-1.9619,1.6436-2.9429,3.9355-2.9429,6.8789c0,3.042,1.1519,5.6279,3.458,7.7617c2.3047,2.1338,5.3213,3.2002,9.0493,3.2002
		c3.9727,0,7.6387-0.8701,10.9985-2.6113c3.3594-1.7412,5.8237-3.9844,7.394-6.7324c1.814-3.04,2.7222-8.043,2.7222-15.0078
		V216.2939z"/>
	<path class="st2" d="M508.9355,176.7861h2.207v-12.0654c0-3.2373,0.085-5.7754,0.2573-7.6147
		c0.1714-1.8389,0.6499-3.4209,1.4351-4.7451c0.7837-1.3726,1.9126-2.4888,3.3843-3.3477c1.4712-0.8574,3.1138-1.2871,4.9292-1.2871
		c2.5493,0,4.8555,0.9561,6.9155,2.8691c1.3726,1.2759,2.2437,2.8325,2.6118,4.6719c0.3677,1.8389,0.5518,4.4507,0.5518,7.835
		v13.6841h7.3569c2.8438,0,5.0142,0.6748,6.5112,2.0234c1.4951,1.3496,2.2437,3.0786,2.2437,5.1865
		c0,2.6982-1.0669,4.5869-3.2002,5.665c-2.1338,1.0796-5.187,1.6187-9.1597,1.6187h-3.752v36.9321
		c0,3.1396,0.1104,5.5547,0.3311,7.2471c0.2207,1.6914,0.8091,3.0654,1.7656,4.1191c0.9565,1.0557,2.5127,1.582,4.6719,1.582
		c1.1768,0,2.77-0.208,4.7817-0.625c2.0107-0.416,3.5801-0.626,4.7085-0.626c1.6187,0,3.0776,0.6514,4.3774,1.9502
		c1.2993,1.2998,1.9497,2.9062,1.9497,4.8184c0,3.2373-1.7656,5.7148-5.2969,7.4307c-3.5312,1.7168-8.6079,2.5752-15.229,2.5752
		c-6.2788,0-11.0356-1.0547-14.2729-3.1631s-5.3589-5.0273-6.3638-8.7549c-1.0059-3.7275-1.5083-8.7061-1.5083-14.9355v-38.5503
		h-2.6484c-2.8945,0-5.1016-0.6865-6.6216-2.0601c-1.5205-1.3726-2.2803-3.1143-2.2803-5.2236c0-2.1079,0.7964-3.8369,2.3906-5.1865
		C503.5762,177.4609,505.894,176.7861,508.9355,176.7861z"/>
	<path class="st2" d="M617.2314,220.7812h-39.2866c0.0483,4.5615,0.9678,8.584,2.7588,12.0654
		c1.79,3.4834,4.1685,6.1064,7.1367,7.8721c2.9668,1.7656,6.2407,2.6484,9.8213,2.6484c2.4028,0,4.5986-0.2812,6.585-0.8457
		c1.9863-0.5635,3.9106-1.4463,5.7749-2.6484c1.8638-1.2012,3.5801-2.4893,5.1504-3.8623c1.5688-1.373,3.605-3.2373,6.106-5.5918
		c1.0303-0.8828,2.5015-1.3242,4.4146-1.3242c2.0601,0,3.7266,0.5645,5.0024,1.6924c1.2749,1.1289,1.9131,2.7217,1.9131,4.7822
		c0,1.8145-0.7114,3.9355-2.1338,6.3633c-1.4229,2.4277-3.5679,4.7578-6.437,6.9893c-2.8696,2.2324-6.4746,4.083-10.8149,5.5547
		c-4.3408,1.4717-9.332,2.207-14.9717,2.207c-12.9004,0-22.9302-3.6787-30.0903-11.0352
		c-7.1616-7.3574-10.7412-17.3379-10.7412-29.9434c0-5.9346,0.8828-11.4404,2.6484-16.5166s4.3403-9.4282,7.7246-13.0586
		c3.3843-3.6294,7.5527-6.4121,12.5073-8.3506c4.9531-1.937,10.4468-2.9058,16.4795-2.9058c7.8472,0,14.5786,1.6553,20.1953,4.9658
		c5.6157,3.311,9.8218,7.5903,12.6172,12.8384c2.7959,5.2485,4.1938,10.5938,4.1938,16.0381c0,5.0518-1.4473,8.3262-4.3408,9.8213
		C626.5498,220.0342,622.4795,220.7812,617.2314,220.7812z M577.9448,209.3779h36.4175
		c-0.4907-6.8662-2.3428-12.0034-5.5547-15.4131c-3.2129-3.4082-7.4429-5.1128-12.6909-5.1128
		c-5.0024,0-9.1113,1.7285-12.3228,5.1865C580.5811,197.4966,578.6313,202.6094,577.9448,209.3779z"/>
	<path class="st2" d="M700.8813,187.5278l13.0957,44.8774l11.9185-41.7144c1.2749-4.3647,2.2188-7.3442,2.8325-8.9385
		c0.6128-1.5933,1.7656-3.1143,3.4575-4.5615c1.6924-1.4463,4.0098-2.1704,6.9526-2.1704c2.9912,0,5.334,0.7241,7.0259,2.1704
		c1.6924,1.4473,2.8809,3.0166,3.5684,4.7085c0.686,1.6924,1.6426,4.6235,2.8691,8.7915l11.9185,41.7144l13.2427-44.8774
		c0.8828-3.2373,1.5933-5.5791,2.1338-7.0264c0.5391-1.4458,1.4458-2.7222,2.7217-3.8257c1.2749-1.1035,3.1143-1.6553,5.5181-1.6553
		c2.4023,0,4.4878,0.8345,6.2534,2.5015c1.7656,1.668,2.6484,3.6304,2.6484,5.8857c0,2.0601-0.7607,5.1753-2.2808,9.3433
		l-16.4062,48.1152c-1.4229,4.0713-2.5264,7.0146-3.3105,8.8281c-0.7852,1.8154-2.0229,3.4336-3.7153,4.8555
		c-1.6919,1.4229-4.0093,2.1338-6.9521,2.1338c-3.042,0-5.4331-0.7607-7.1733-2.2803c-1.7417-1.5195-3.0288-3.3848-3.8623-5.5918
		c-0.8345-2.207-1.7417-5.0762-2.7222-8.6074l-11.4771-39.1396l-11.1094,39.1396c-1.4712,5.4443-3.0654,9.5527-4.7817,12.3232
		c-1.7178,2.7705-4.7339,4.1562-9.0493,4.1562c-2.207,0-4.083-0.4297-5.6284-1.2871c-1.5449-0.8574-2.832-2.084-3.8623-3.6787
		c-1.0298-1.5938-1.938-3.4824-2.7222-5.665c-0.7852-2.1816-1.3979-3.9111-1.8394-5.1865l-16.2588-48.1152
		c-1.6187-4.5117-2.4277-7.626-2.4277-9.3433c0-2.1577,0.8574-4.0947,2.5747-5.812c1.7163-1.7163,3.8257-2.5752,6.3271-2.5752
		c3.335,0,5.5913,0.9448,6.7686,2.8325C698.3066,179.7417,699.5571,182.9663,700.8813,187.5278z"/>
	<path class="st2" d="M821.0225,165.6772c-2.7959,0-5.1865-0.8579-7.1729-2.5752c-1.9873-1.7163-2.9805-4.144-2.9805-7.2832
		c0-2.8442,1.0176-5.187,3.0537-7.0264c2.0342-1.8389,4.4014-2.7588,7.0996-2.7588c2.5986,0,4.9033,0.8345,6.915,2.5015
		c2.0107,1.668,3.0166,4.0957,3.0166,7.2837c0,3.0898-0.9814,5.5063-2.9424,7.2466
		C826.0488,164.8071,823.7188,165.6772,821.0225,165.6772z M830.9541,186.4238v58.0469c0,4.0225-0.9561,7.0635-2.8691,9.123
		s-4.3408,3.0898-7.2832,3.0898c-2.9434,0-5.334-1.0547-7.1729-3.1631c-1.8398-2.1084-2.7598-5.125-2.7598-9.0498v-57.458
		c0-3.9727,0.9199-6.9639,2.7598-8.9756c1.8389-2.0107,4.2295-3.0166,7.1729-3.0166c2.9424,0,5.3701,1.0059,7.2832,3.0166
		C829.998,180.0488,830.9541,182.8442,830.9541,186.4238z"/>
	<path class="st2" d="M852.8047,176.7861h2.208v-12.0654c0-3.2373,0.085-5.7754,0.2568-7.6147
		c0.1719-1.8389,0.6494-3.4209,1.4346-4.7451c0.7842-1.3726,1.9131-2.4888,3.3848-3.3477c1.4707-0.8574,3.1143-1.2871,4.9287-1.2871
		c2.5498,0,4.8555,0.9561,6.916,2.8691c1.3721,1.2759,2.2441,2.8325,2.6113,4.6719c0.3682,1.8389,0.5518,4.4507,0.5518,7.835
		v13.6841h7.3574c2.8438,0,5.0146,0.6748,6.5107,2.0234c1.4961,1.3496,2.2441,3.0786,2.2441,5.1865
		c0,2.6982-1.0664,4.5869-3.2002,5.665c-2.1338,1.0796-5.1865,1.6187-9.1592,1.6187h-3.7529v36.9321
		c0,3.1396,0.1104,5.5547,0.3311,7.2471c0.2207,1.6914,0.8096,3.0654,1.7656,4.1191c0.957,1.0557,2.5137,1.582,4.6719,1.582
		c1.1777,0,2.7705-0.208,4.7822-0.625c2.0107-0.416,3.5801-0.626,4.709-0.626c1.6182,0,3.0771,0.6514,4.377,1.9502
		c1.2988,1.2998,1.9502,2.9062,1.9502,4.8184c0,3.2373-1.7656,5.7148-5.2979,7.4307c-3.5312,1.7168-8.6074,2.5752-15.2285,2.5752
		c-6.2793,0-11.0361-1.0547-14.2725-3.1631c-3.2373-2.1084-5.3594-5.0273-6.3643-8.7549
		c-1.0059-3.7275-1.5078-8.7061-1.5078-14.9355v-38.5503h-2.6494c-2.8945,0-5.1016-0.6865-6.6211-2.0601
		c-1.5205-1.3726-2.2803-3.1143-2.2803-5.2236c0-2.1079,0.7969-3.8369,2.3906-5.1865
		C847.4463,177.4609,849.7637,176.7861,852.8047,176.7861z"/>
	<path class="st2" d="M924.6836,157.3638v29.7959c2.5498-2.9429,5.04-5.2715,7.4678-6.9893
		c2.4277-1.7163,5.1133-3.0034,8.0557-3.8623c2.9434-0.8574,6.1064-1.2876,9.4912-1.2876c5.0996,0,9.625,1.0796,13.5732,3.2373
		c3.9473,2.1587,7.0498,5.2969,9.3066,9.417c1.4219,2.4038,2.3789,5.0889,2.8691,8.0562c0.4902,2.9678,0.7363,6.3892,0.7363,10.2622
		v38.4775c0,4.0225-0.9199,7.0635-2.7588,9.123c-1.8398,2.0596-4.2803,3.0898-7.3203,3.0898c-6.6221,0-9.9326-4.0703-9.9326-12.2129
		v-33.916c0-6.4248-0.9561-11.3662-2.8691-14.8237c-1.9131-3.458-5.543-5.187-10.8887-5.187c-3.5801,0-6.8047,1.0186-9.6738,3.0532
		c-2.8701,2.0356-5.0156,4.8188-6.4375,8.3501c-1.0801,2.9922-1.6191,8.3135-1.6191,15.9648v26.5586
		c0,3.9727-0.8955,7.002-2.6855,9.0859c-1.791,2.085-4.2793,3.127-7.4668,3.127c-6.6211,0-9.9326-4.0703-9.9326-12.2129v-87.1069
		c0-4.0708,0.8701-7.124,2.6123-9.1597c1.7402-2.0347,4.1807-3.0532,7.3203-3.0532c3.1875,0,5.6758,1.0303,7.4668,3.0898
		C923.7881,150.3008,924.6836,153.3428,924.6836,157.3638z"/>
</g>
<g>
	<path class="st2" d="M1707.1866,97.5934c-1.58,5.9584-3.1083,11.931-4.7521,17.8717c-2.3507,8.4945-4.8184,16.9565-7.175,25.4493
		c-2.0874,7.5225-3.9221,15.1197-6.1975,22.5836c-1.3093,4.295-1.9677,8.8628-4.7887,12.6422
		c-4.7118,6.3123-10.5121,10.681-18.6927,11.0834c-1.1611,0.0571-2.3263,0.0436-3.4895,0.0437
		c-44.7626,0.002-89.5251-0.0025-134.2876,0.0057c-7.6534,0.0014-15.307,0.0776-22.9603,0.0636
		c-1.2937-0.0024-1.8308,0.3363-2.1921,1.7181c-1.4977,5.7291-3.238,11.3943-4.8297,17.0995
		c-1.2661,4.5385-2.4147,9.1097-3.6715,13.6509c-1.6215,5.8585-3.3149,11.697-4.948,17.5523
		c-1.9475,6.9824-3.8909,13.9663-5.7678,20.9678c-0.3241,1.2093-1.1523,0.8925-1.8695,0.8939
		c-9.8586,0.0189-19.7175,0.0129-29.5763,0.0129c-1.1022,0-2.2064-0.0429-3.3062,0.0099c-1.2396,0.0595-1.4203-0.3887-1.0795-1.5381
		c1.7175-5.7921,3.4513-11.5824,4.9971-17.4216c1.7927-6.7722,3.666-13.5177,5.6437-20.2387
		c1.7726-6.0242,3.2817-12.1255,4.9261-18.1877c1.7032-6.2791,3.3668-12.57,5.1598-18.8236
		c2.7742-9.6756,5.5393-19.3529,8.0778-29.0937c0.3599-1.3809,1.0901-1.9646,2.7037-1.9624
		c58.2334,0.0761,116.4668,0.0797,174.7002,0.1514c1.8734,0.0023,2.6167-0.4116,3.1545-2.3689
		c1.9319-7.0304,3.6628-14.1264,5.8444-21.0753c1.3451-4.2844,1.9606-8.7671,3.7133-12.9218
		c0.4164-0.9871,0.0435-1.3522-0.9661-1.2739c-0.4871,0.0378-0.9792,0.0059-1.4691,0.0059
		c-57.9893,0.0051-115.9784,0.0102-173.9677,0.0152c-0.4899,0-0.9811-0.0238-1.4694,0.0038
		c-1.1052,0.0625-1.2771-0.2209-0.9409-1.3781c1.933-6.6539,3.4982-13.4238,5.6664-19.9967
		c1.366-4.1408,1.8091-8.5194,3.5706-12.5401c0.3575-0.8163,0.6886-1.2107,1.5531-1.155c0.4878,0.0314,0.9794,0.0045,1.4692,0.0045
		c64.2964-0.0001,128.5928,0.0026,192.8892-0.0098c2.5139-0.0005,4.9989,0.0678,7.4028,0.9154
		c2.9529,1.0413,5.1685,2.9211,6.52,5.7523c0.1803,0.3778,0.2422,0.8015,0.6017,1.074c-0.092,1.0168-0.0029,1.9829,0.7712,2.7573
		c-0.0049,1.4147-0.0098,2.8295-0.0145,4.2443c-0.6553,0.4145-0.6469,0.9526-0.2898,1.5556c-0.0364,0.211-0.0728,0.422-0.109,0.6331
		C1707.2455,96.6367,1707.0436,97.037,1707.1866,97.5934z"/>
	<path class="st2" d="M1212.1836,248.5632c0.002-1.3475,0.004-2.6949,0.0061-4.0423c0.3447-0.2373,0.3251-0.4827,0.0162-0.7343
		c0.7656-3.9641,1.9036-7.8368,3.116-11.6747c0.7679-2.4307,1.2515-4.9222,1.9744-7.3593
		c2.1056-7.0971,4.1326-14.2181,6.1294-21.3468c1.9293-6.8879,3.7786-13.7981,5.6708-20.6964
		c1.5825-5.7695,3.1613-11.54,4.7689-17.3024c1.5638-5.6057,3.1833-11.1959,4.7389-16.8038
		c1.2104-4.3637,2.1486-8.8158,3.5959-13.0974c1.4731-4.3581,2.3777-8.8568,3.7527-13.2384
		c1.8459-5.8827,3.2065-11.9162,4.8502-17.8644c1.1683-4.228,2.4812-8.4158,3.6903-12.6328
		c1.0332-3.6036,2.0364-7.2164,2.9971-10.8399c0.2897-1.0922,0.7552-1.5645,1.9952-1.5617
		c10.8998,0.0248,21.7998-0.0106,32.6993-0.0788c1.4139-0.0089,1.6205,0.3185,1.1476,1.6676
		c-0.8927,2.5472-1.354,5.2507-2.1951,7.7975c-1.5804,4.7857-2.5105,9.7367-4.1185,14.5198
		c-1.7101,5.0868-2.8075,10.3776-4.2277,15.5643c-1.1494,4.1984-2.4111,8.3661-3.5682,12.5624
		c-1.6659,6.0412-3.2531,12.1043-4.9298,18.1424c-1.1122,4.0045-2.3485,7.9743-3.479,11.9739
		c-0.672,2.3775-1.2078,4.7933-1.8726,7.1729c-1.546,5.533-3.2806,11.018-4.6597,16.5915
		c-1.2338,4.9866-2.6709,9.9239-4.1165,14.8351c-2.1948,7.4565-3.9362,15.0377-6.3153,22.439
		c-0.3033,0.9439-0.2258,1.739,1.1128,1.6292c0.365-0.03,0.7345-0.0037,1.1019-0.0037c46.2363,0,92.4727-0.0096,138.7089,0.0405
		c1.6104,0.0018,2.2949-0.3875,2.7059-1.998c1.3455-5.2726,2.8643-10.5015,4.3474-15.7384
		c1.9202-6.7803,3.9894-13.521,5.7694-20.3375c1.4167-5.4258,2.8505-10.8452,4.4984-16.2023
		c1.5425-5.0141,2.7053-10.1284,4.1757-15.164c1.5894-5.4431,2.9969-10.9587,4.4817-16.4357
		c1.417-5.2274,2.9287-10.4492,4.4701-15.6523c2.4137-8.1471,4.4321-16.4103,6.738-24.5906
		c1.6245-5.7632,3.5143-11.4519,4.792-17.3109c0.2069-0.9488,0.6632-1.4163,1.7474-1.4128
		c11.0844,0.0351,22.1688,0.0273,33.2533,0.0105c1.0463-0.0016,1.3923,0.2017,1.0488,1.3757
		c-1.3333,4.5565-2.6796,9.1081-3.8291,13.7208c-1.207,4.8433-2.8889,9.5692-4.0698,14.4178
		c-1.2152,4.9892-2.7853,9.8741-4.09,14.8363c-1.7434,6.6309-3.6149,13.237-5.5197,19.8253
		c-1.9814,6.8535-3.7533,13.7617-5.7238,20.6149c-2.017,7.0145-4.009,14.0328-5.8837,21.0878
		c-1.6539,6.225-3.6052,12.3671-5.176,18.6216c-1.6902,6.7301-3.5869,13.4124-5.5597,20.0663
		c-1.9562,6.5979-3.7207,13.2469-5.615,19.8582c-0.6979,2.4358-1.2681,4.9672-2.6343,7.2621
		c-2.8749,4.8289-7.033,7.4474-12.5135,8.1208c-1.0284,0.1263-2.079,0.0975-3.1194,0.0976
		c-60.7501,0.0041-121.5002,0.0014-182.2505,0.0102c-3.0175,0.0005-6.0133-0.1473-8.678-1.7259
		c-2.9995-1.7769-4.9491-4.3862-5.667-7.8473C1212.6046,249.2862,1212.5829,248.878,1212.1836,248.5632z"/>
	<path class="st2" d="M1706.5454,258.4745c-5.3265,0-10.6536-0.04-15.9794,0.0265c-1.4338,0.0179-1.8695-0.1851-1.4456-1.7833
		c1.9232-7.2495,3.9862-14.4577,6.0417-21.6699c1.6548-5.8058,3.0485-11.6856,4.6711-17.501
		c1.8619-6.6727,3.9032-13.2953,5.7648-19.9681c1.6917-6.0642,3.1876-12.1831,4.877-18.248
		c2.1165-7.5987,4.5231-15.1212,6.4615-22.7635c1.4556-5.7391,3.0444-11.4432,4.6467-17.1344
		c2.0752-7.3706,4.0409-14.7716,6.1327-22.1375c1.7772-6.2581,3.3134-12.5877,5.215-18.8065
		c1.8009-5.8894,3.2803-11.8614,4.8796-17.8007c0.4418-1.6406,1.1781-1.9077,2.642-1.8999
		c9.4896,0.0502,18.9796,0.0257,28.4695,0.0257c0.796,0,1.5919,0,2.3878,0c3.2733,0.0002,3.236-0.0009,2.2771,3.0934
		c-2.304,7.435-4.2123,14.9822-6.3243,22.4703c-1.8342,6.5036-3.5432,13.0427-5.4425,19.5287
		c-1.8108,6.1838-3.5482,12.3894-5.2654,18.5999c-1.1421,4.1308-2.1519,8.2981-3.2928,12.4292
		c-1.6392,5.9351-3.3505,11.8503-5.0193,17.7773c-1.8806,6.679-3.9077,13.3222-5.5793,20.0534
		c-1.889,7.6066-4.2577,15.0753-6.2627,22.6487c-1.4156,5.3474-2.8599,10.7054-4.4178,16.0248
		c-1.2843,4.3856-2.5996,8.7715-3.6798,13.227c-1.0228,4.2191-2.4851,8.3368-3.3768,12.5987
		c-0.2365,1.1301-0.9012,1.2285-1.8501,1.2234C1717.566,258.4595,1712.0557,258.4744,1706.5454,258.4745z"/>
	<path class="st3" d="M1797.2103,219.1646c-1.6135,0.8022-2.6974,2.2348-3.9651,3.427
		c-12.0312,11.3147-24.0206,22.6738-36.0228,34.0194c-0.2666,0.2521-0.5129,0.5407-0.8185,0.7334
		c-0.5415,0.3415-0.9083,1.3668-1.5895,0.9703c-0.7084-0.4125-0.0824-1.2641,0.137-1.8073
		c1.4915-3.6933,2.1127-7.6283,3.2388-11.4224c1.7687-5.9599,3.2565-12.0025,4.943-17.9877
		c2.2031-7.819,4.5178-15.6067,6.7206-23.4259c1.6724-5.9363,3.2208-11.9074,4.868-17.851
		c1.8802-6.7846,3.8016-13.5564,5.5941-20.3665c1.6095-6.1151,3.4465-12.172,5.1421-18.267
		c1.8423-6.622,3.6415-13.2564,5.5066-19.8711c1.9169-6.7988,3.6738-13.6462,5.7067-20.4043
		c1.4153-4.7051,2.5603-9.4824,3.9963-14.1824c1.0367-3.3935,1.9115-6.8626,2.8385-10.3028
		c0.2249-0.8347,0.3855-1.7859,1.2716-2.4958c1.8024,3.6397,3.5505,7.2578,5.3752,10.8369
		c4.0951,8.0321,8.2201,16.049,12.3534,24.0615c0.782,1.5159,0.975,3.3689,2.5106,4.4618c1.0674,3.3713,2.8551,6.4179,4.4047,9.5634
		c3.3055,6.7101,6.7706,13.3414,10.1439,20.0184c3.16,6.255,6.2267,12.5581,9.4741,18.767
		c0.6893,1.3179,0.5192,1.9796-0.5096,2.8922c-2.6069,2.3124-5.1312,4.7187-7.6663,7.111
		c-11.817,11.1516-23.6426,22.2942-35.4269,33.4803C1802.6566,213.7622,1799.6521,216.1776,1797.2103,219.1646z"/>
	<path class="st4" d="M1797.2103,219.1646c2.4418-2.987,5.4463-5.4024,8.2266-8.0415
		c11.7843-11.1861,23.6099-22.3287,35.4269-33.4803c2.535-2.3923,5.0593-4.7987,7.6663-7.111
		c1.0288-0.9126,1.199-1.5743,0.5096-2.8922c-3.2474-6.2089-6.3141-12.512-9.4741-18.767
		c-3.3733-6.677-6.8384-13.3083-10.1439-20.0184c-1.5496-3.1455-3.3373-6.1921-4.4047-9.5634
		c1.8074-6.3649,3.6033-12.7316,5.2676-19.1376c1.7017-6.5503,3.6322-13.0411,5.462-19.5582
		c0.0612-0.2182-0.0096-0.5356,0.3011-0.5845c0.4329-0.0681,0.6538,0.2565,0.8217,0.5818c0.9933,1.9256,1.975,3.8571,2.962,5.7859
		c2.5715,5.0245,5.1678,10.0365,7.709,15.0762c2.4755,4.9094,4.8889,9.85,7.3408,14.7713
		c3.8003,7.6278,7.496,15.3106,11.4489,22.8587c3.7778,7.2142,7.4036,14.5003,10.9993,21.8043
		c1.1931,2.4235,2.4857,4.7986,3.7623,7.1801c0.5569,1.0389,0.0691,1.6815-0.6646,2.3705
		c-6.0597,5.6918-12.0969,11.4077-18.1442,17.1128c-11.0747,10.4485-22.1533,20.8928-33.2269,31.3425
		c-13.2054,12.4613-26.4039,24.9298-39.6191,37.3807c-0.7765,0.7316-1.4567,1.6589-2.9456,1.8617
		C1790.0894,245.0554,1793.6499,232.11,1797.2103,219.1646z"/>
	<path class="st2" d="M1490.8024,312.8631c-0.0092,1.9386-0.0222,3.8771-0.0251,5.8157c-0.0009,0.5706-0.0211,1.1103-0.7677,1.1925
		c-1.2603-0.8229-2.6788-0.1489-3.9972-0.423c0-6.1348,0-12.2697,0-18.3887c-1.3947,0.9485-1.9242,2.7996-2.9779,4.2257
		c-3.6626,4.9571-7.1763,10.0243-10.7523,15.0455c-0.1681,0.236-0.3041,0.5674-0.6772,0.5283
		c-0.4406-0.0461-0.3035-0.4417-0.3881-0.7041c-0.3085-0.9565-0.6919-1.8993-0.505-2.9406c0.3302-0.4665,0.2319-0.8336-0.2577-1.11
		c-0.0602-0.2359-0.1205-0.4718-0.1808-0.7076c0.3887-0.4717,0.3168-0.8487-0.2322-1.1273
		c-0.0488-0.2349-0.0977-0.4698-0.1465-0.7047c0.3772-0.3557,0.2013-0.5847-0.1759-0.7676
		c-0.6996-2.1565-1.3822-4.3175-1.7683-6.5584c0.476-0.5195,0.0778-0.852-0.2563-1.1982c0.0015-0.211,0.0029-0.4219,0.0043-0.6329
		c0.2133-0.5006,0.0895-0.9106-0.3337-1.2399c-0.0319-0.1997-0.0637-0.3994-0.0955-0.5991c0.2318-0.4772,0.1548-0.8962-0.2367-1.256
		c-0.0374-0.1945-0.0748-0.3891-0.1122-0.5837c0.2679-0.3716,0.1372-0.6295-0.2335-0.8192
		c-0.0867,0.2563-0.1735,0.5126-0.2601,0.7689c-2.493,5.5532-4.9882,11.1055-7.4767,16.6606
		c-0.3175,0.7086-0.6013,1.4322-0.9008,2.1489c-0.8484,0.1885-1.8569-0.4817-2.5616,0.4774
		c-0.6267-0.0084-1.2535-0.0167-1.8802-0.0251c-0.0867-0.1846-0.1732-0.3693-0.2599-0.5539c1.1942-2.6981,2.366-5.4064,3.588-8.0918
		c1.6913-3.7166,3.4177-7.4173,5.1339-11.1226c2.0204-4.3625,4.0431-8.7239,6.0764-13.0805
		c0.1177-0.252,0.3387-0.4558,0.7405-0.9814c0.7036,3.3011,1.3451,6.3038,1.9833,9.3072c0.8123,3.8232,1.6212,7.6472,2.4359,11.4699
		c0.0249,0.1167,0.1305,0.2194,0.1437,0.3349c0.118,1.0338-0.311,2.6018,0.8031,2.8388c0.6981,0.1485,1.189-1.5705,1.795-2.4332
		c2.2045-3.1375,4.3199-6.3373,6.5015-9.4912c2.5596-3.7005,5.1531-7.3776,7.7318-11.0648
		c0.2816,0.0181,0.5631,0.0362,0.8447,0.0544c-0.0699,6.846-0.14,13.6921-0.21,20.5381
		C1490.0134,309.3787,1490.2131,311.1167,1490.8024,312.8631z"/>
	<path class="st2" d="M1358.8894,288.1947c4.3757,0.396,6.9521,5.7885,6.9397,9.5308c-0.0233,7.0338-2.4291,13.0466-7.6552,17.7271
		c-3.1566,2.8271-6.9202,4.4861-11.3508,4.3807c-4.0859-0.0972-8.1776,0.0461-12.2667,0.0835
		c-0.0605-0.2971-0.1212-0.5942-0.1818-0.8913c2.3115-9.7612,4.6232-19.5223,6.9347-29.2834
		c0.4722-0.0921,0.7281-0.2792,0.3312-0.7534c0.0549-0.2324,0.1097-0.4648,0.1646-0.6972c0.521-0.1905,0.4938-0.6425,0.5122-1.0728
		c4.2649-0.1801,8.5284-0.1688,12.7903,0.0906c0.5146,0.8398,1.1791,0.6269,1.8647,0.2655c0.3557,0.0529,0.7113,0.1058,1.067,0.1587
		C1358.1849,288.141,1358.5055,288.2263,1358.8894,288.1947z M1354.0703,292.1984c-0.6516-1.0279-1.4323-0.7522-2.2383-0.2218
		c-1.467-0.0309-2.9355-0.0323-4.4008-0.1018c-1.1875-0.0562-1.9021,0.1105-1.938,1.6375
		c-0.0165,0.6991-0.1503,1.5382-0.3405,2.2948c-1.5275,6.0739-3.0289,12.1544-4.5902,18.2195
		c-0.2308,0.8968,0.0548,1.0789,0.8435,1.0701c2.3257-0.0259,4.6809,0.2065,6.9712-0.084c4.1851-0.5309,7.4683-2.7668,9.4698-6.4619
		c1.7135-3.1636,2.3561-6.6483,2.1338-10.3065C1359.7726,294.8124,1357.5759,292.4358,1354.0703,292.1984z"/>
	<path class="st2" d="M1235.2672,297.6206c-1.3121,3.391-1.667,6.7893-2.5076,10.0645c-0.9501,3.7016-2.0603,7.3625-2.5913,11.1644
		c-0.1515,1.0843-1.0404,1.1053-1.9553,1.1044c-3.3712-0.0035-3.3773-0.0187-2.5688-3.3384
		c2.1528-8.8395,4.2699-17.6877,6.4226-26.5272c0.2842-1.1671,0.6927-2.3039,1.147-3.7932c2.5526,2.2244,4.1926,4.997,6.1417,7.4987
		c1.9962,2.5621,3.9282,5.1762,5.9819,7.6911c2.0576,2.5194,4.0106,5.1099,5.951,8.247c0.9948-4.2619,1.8136-8.1477,2.8241-11.9831
		c0.8402-3.1886,1.6039-6.3885,2.1886-9.6308c0.1259-0.6976,0.5564-0.8558,1.1411-0.9461c3.7684-0.5817,4.1763-0.109,3.2571,3.6233
		c-2.2002,8.9344-4.3716,17.8759-6.5614,26.8128c-0.2637,1.076-0.5693,2.1416-0.9119,3.4227
		C1247.2362,313.1756,1241.0397,305.7355,1235.2672,297.6206z"/>
	<path class="st2" d="M1523.6752,319.5427c-1.3088,0.7909-2.7638,0.4564-4.0991,0.3034c-1.166-0.1335-0.5547-1.3363-0.4423-1.9625
		c0.3484-1.9407,0.9056-3.8432,1.3606-5.7655c1.1881-5.02,2.2186-10.0833,3.5992-15.0495c0.8693-3.1263,1.4689-6.3024,2.2449-9.4426
		c0.1212-0.4903,0.1506-1.0287,0.6714-1.1667c0.5875-0.1556,0.822,0.4395,1.1044,0.8046
		c4.0642,5.2558,8.1168,10.5207,12.168,15.7866c1.5977,2.0768,3.3328,4.0519,4.7103,6.6132
		c1.3029-5.4965,2.556-10.7067,3.7645-15.9272c0.3683-1.5909,1.2126-3.0602,1.2003-4.7451c0.4047-0.1114,0.8186-0.2184,0.354-0.7435
		c0.0242-0.4876,0.033-1.034,0.6945-1.0428c1.3099-0.0176,2.6215,0.0039,3.9302,0.061c0.2346,0.0103,0.2891,0.3337,0.2296,0.5869
		c-0.4131,0.1616-0.5112,0.3998-0.1807,0.7423c-0.0513,0.2324-0.1027,0.4647-0.1539,0.697
		c-0.6135,0.2108-0.5054,0.7228-0.498,1.1927c-0.8168,5.636-2.6149,11.0473-3.848,16.5899
		c-1.0182,4.5764-2.2045,9.1253-3.3585,14.1372c-6.0671-7.96-12.2283-15.4366-18.1219-23.5506
		c-0.6766,2.3612-1.37,4.4644-1.8743,6.612c-0.8199,3.493-1.4536,7.0301-2.297,10.5169c-0.3179,1.3144-1.042,2.5297-1.0017,3.9423
		C1523.3218,318.9144,1523.5037,319.2296,1523.6752,319.5427z"/>
	<path class="st2" d="M1635.3394,292.2135c0.0908-1.771,0.8284-3.3885,1.2073-5.0909c0.2227-1.0004,0.5383-0.961,1.1243-0.1982
		c2.7146,3.535,5.5027,7.0142,8.1873,10.5717c2.9595,3.9219,6.2719,7.5821,8.9009,12.1165
		c1.3701-3.8659,1.8821-7.6756,2.7795-11.3857c0.7611-3.1464,1.5665-6.2826,2.2793-9.4398
		c0.2919-1.2929,0.9952-1.6872,2.2681-1.6788c2.9764,0.0196,3.0721-0.0099,2.4049,2.7891
		c-1.5707,6.5873-3.2548,13.1474-4.8667,19.7249c-0.9083,3.7064-1.7644,7.4256-2.7322,11.5111
		c-6.181-8.019-12.3424-15.5836-18.0511-23.5899c-0.9175,1.307-0.8591,2.9743-1.243,4.5016
		c-0.9218,3.6673-1.8201,7.3405-2.7042,11.0169c-0.0969,0.4028-0.0397,0.8427-0.0538,1.2654
		c-0.4838,0.8088-0.6926,1.6861-0.6556,2.6249c-0.0446,0.2254-0.0891,0.4509-0.1337,0.6763
		c-0.2708,0.2043-0.3561,0.4664-0.2462,0.7894c-0.4108,1.5634-1.3678,1.8799-4.0789,1.5262
		c-1.6068-0.2097-0.4922-1.2893-0.7135-1.9359c0.0793-0.1337,0.1586-0.2673,0.2378-0.401c0.0841-2.9869,1.4062-5.6917,1.9611-8.5802
		c0.7949-4.1395,1.8752-8.2242,2.8339-12.3324C1635.135,295.3914,1635.0829,293.7579,1635.3394,292.2135z"/>
	<path class="st2" d="M1732.7172,318.4041c0.1887,0.4959,0.8618,1.311-0.1296,1.3653c-1.7356,0.0951-3.546,0.6698-5.2426-0.2686
		c-0.0094-0.5017,0.0552-1.045-0.6494-1.1564c-1.8711-3.8292-3.7537-7.6529-5.5994-11.4943
		c-0.2418-0.5034-0.4292-1.2447-0.9314-1.2411c-0.6469,0.0045-0.7727,0.7506-0.9082,1.3508
		c-0.9102,4.0312-1.8442,8.0569-2.7704,12.0844c-1.5636,0.8116-3.2341,0.334-4.8594,0.4027
		c0.0303-0.2262,0.0605-0.4525,0.0907-0.6787c0.491-0.1464,0.6477-0.3813,0.2051-0.7746c0.6582-3.1549,1.2036-6.3246,2.1396-9.4297
		c0.9514-3.1555,1.467-6.4396,2.2915-9.6369c0.8422-3.2659,1.6637-6.5338,2.2041-9.8629c0.2222-1.3681,0.6873-2.1177,2.3043-1.9815
		c3.2123,0.2707,6.4751-0.3552,9.6647,0.4426c4.4238,1.1064,5.838,3.3818,5.0306,8.0072c-0.6604,0.3562-0.447,0.9788-0.4666,1.5304
		c-1.1105,4.0078-3.5757,6.705-7.6635,7.7282c-1.224,0.3064-1.39,0.6623-0.7783,1.8117c1.6711,3.1407,3.1855,6.3648,4.7622,9.5558
		C1731.6277,317.0342,1731.8324,317.9168,1732.7172,318.4041z M1724.9943,292.0466c-0.3269,0.2956-1.7871-0.843-1.9158,0.4725
		c-0.2311,2.3637-1.2355,4.4899-1.7299,6.7658c-0.4589,2.1124,0.5789,1.8473,1.7789,1.8012
		c4.4314-0.1701,5.8271-1.1844,6.6906-4.1208c0.6407-2.1787,0.1169-4.3445-1.2245-4.6223
		C1727.5521,292.1272,1726.5203,291.6389,1724.9943,292.0466z"/>
	<path class="st2" d="M1203.6876,320.7873c-1.3527-0.3185-2.7438-0.2722-4.1227-0.5421c-3.08-0.6027-5.6787-3.9305-5.7256-7.2176
		c-0.0615-4.3217,1.2756-8.3881,2.226-12.5233c0.896-3.8983,1.9241-7.7668,2.78-11.6734c0.2943-1.3433,0.9022-1.8299,2.2351-1.6789
		c0.9052,0.1025,1.8309,0.0178,2.7473,0.0309c0.8491,0.0121,0.6099,0.5309,0.452,1.005c-0.361,0.1349-0.5779,0.3653-0.5178,0.7797
		c-0.6561,3.9453-1.6284,7.8167-2.6309,11.6862c-0.7986,3.0831-1.6818,6.1699-1.7408,9.39
		c-0.0618,3.3711,0.7585,4.4966,3.9506,5.6408c0.291,0.5497,0.6702,0.6193,1.1373,0.2086c0.8708-0.0057,1.7418-0.0114,2.6125-0.0172
		c0.4829,0.4268,0.8606,0.3512,1.131-0.2367c4.9828-1.1398,6.6851-5.1242,7.6194-9.3866c1.2992-5.9269,3.2533-11.6984,4.14-17.7183
		c0.1514-1.0282,0.696-1.4145,1.8335-1.3994c3.866,0.0512,3.8268-0.0166,2.9183,3.7998c-1.1654,4.8959-2.127,9.8441-3.4263,14.7031
		c-0.9685,3.6222-1.9897,7.3166-4.5327,10.2434c-1.5051,1.7323-3.3323,2.9839-5.6509,3.6877
		c-2.0444,0.6206-4.0581,1.1145-6.1753,1.246C1204.5316,320.6283,1204.1121,320.5929,1203.6876,320.7873z"/>
	<path class="st2" d="M1809.2551,291.2319c-6.978,0.8263-11.3961,4.8471-13.6077,11.3002
		c-1.0504,3.0649-1.3125,6.3099,0.5394,9.2874c2.5941,4.1706,6.5387,4.4771,10.5603,3.7363
		c2.8542-0.5257,5.3721-2.0163,8.0903-3.6058c-0.2272,2.0845-0.9478,3.8029-1.4248,5.577c-0.1211,0.4501-0.4504,0.6582-0.875,0.8353
		c-3.2826,1.369-6.568,2.7817-10.2256,2.5785c-7.3145-0.4063-12.8673-5.087-12.943-12.9637
		c-0.0851-8.858,7.2633-17.8425,14.8434-20.3205c3.838-1.2547,7.6993-1.8359,11.6705-0.516
		c1.3684,0.4549,2.6154,1.1035,3.8475,1.8185c0.9005,0.5226,0.757,1.3948,0.5762,2.1178c-0.3174,1.269-0.7053,2.5429-1.5078,3.6852
		c-1.6149-1.4053-3.3427-2.5127-5.4064-3.0032c-0.0828-0.4915-0.2878-0.7078-0.7546-0.3352
		c-0.4794-0.0518-0.9587-0.1036-1.4381-0.1554C1810.5641,290.5887,1809.9154,290.6001,1809.2551,291.2319z"/>
	<path class="st2" d="M1845.2889,287.5089c-0.8022,4.1013-0.8022,4.0978-4.8079,4.1026c-2.5072,0.003-5.0148,0.0407-7.5216,0.0165
		c-0.9169-0.0089-1.4258,0.2029-1.6338,1.2434c-0.3766,1.8835-0.9388,3.7316-1.4658,5.5824
		c-0.3036,1.0665-0.0682,1.4774,1.1428,1.45c3.3007-0.0747,6.606,0.0401,9.9055-0.0567c1.3356-0.0392,1.3193,0.4989,1.0353,1.4646
		c-0.938,3.1893-0.9283,3.1921-4.363,3.1921c-2.1404,0-4.2809-0.0001-6.4213,0c-2.8839,0.0001-2.8839,0.0002-3.2614,2.7986
		c-0.6266,0.2322-0.723,0.6082-0.3051,1.1238c-0.0593,0.2321-0.1187,0.4642-0.1779,0.6963
		c-0.3855,0.1701-0.6055,0.3853-0.2095,0.7684c-0.0552,0.2342-0.1102,0.4685-0.1654,0.7027
		c-0.5659,0.3187-0.5135,0.7989-0.3423,1.3101c-0.2292,0.9893-0.4586,1.9785-0.7429,3.2052c3.5782,0,7.0901,0.0699,10.5972-0.0296
		c1.7449-0.0495,2.2332,0.4663,1.4878,2.0786c-0.1984,0.4292-0.3259,0.9352-0.3228,1.405c0.0088,1.3042-0.759,1.3987-1.7971,1.391
		c-4.8323-0.0359-9.6656-0.054-14.4974,0.0083c-1.3296,0.0171-1.7131-0.343-1.3983-1.6741
		c1.6016-6.7716,3.0405-13.5833,4.7523-20.3262c0.7938-3.1275,1.5583-6.2545,2.2253-9.4099
		c0.1694-0.8023,0.3762-1.5017,1.6132-1.4761c5.4415,0.1125,10.886,0.0753,16.3295,0.0923
		C1845.0593,287.2818,1845.1742,287.3954,1845.2889,287.5089z"/>
	<path class="st2" d="M1512.4139,319.8251c-5.412,0.0367-10.824,0.0614-16.2357,0.117c-1.7585,0.0181-0.8156-1.1831-0.9202-1.9172
		c0.4739-0.1227,0.7904-0.2989,0.2589-0.7628c0.3066-2.6182,1.1721-5.1036,1.7919-7.6484
		c1.5254-6.2635,2.9736-12.5458,4.431-18.8257c0.2177-0.9378,0.7612-1.7766,0.7616-2.7805
		c0.0002-0.7293,0.5498-0.8823,1.1421-0.8829c5.3143-0.0064,10.6288-0.0038,15.9431-0.0069
		c0.7617-0.0004,1.0425,0.1245,0.7855,1.0703c-0.9254,3.4069-0.869,3.4117-4.4316,3.4255
		c-2.8688,0.0111-5.7375,0.0516-8.6063,0.0789c-0.5465-0.1585-0.8379-0.0058-0.7473,0.6126
		c-0.4182,1.9978-0.6792,4.0464-1.304,5.9774c-0.507,1.5673,0.1519,1.6222,1.3385,1.6083c3.1187-0.0365,6.2397,0.0495,9.3561-0.0425
		c1.2268-0.0363,1.422,0.3795,1.2222,1.4527c-0.5956,3.1985-0.5717,3.2016-3.8383,3.2035
		c-2.7521,0.0016-5.5059,0.0636-8.2554-0.0173c-1.0887-0.0321-1.5714,0.3967-1.7288,1.3738
		c-0.495,3.0731-1.4613,6.0319-2.2875,9.2481c3.5094,0,6.9218-0.0002,10.3342,0c2.5552,0.0002,2.5552,0.0004,1.9354,2.4784
		c-0.4502,0.1396-0.6819,0.3481-0.2421,0.7681c-0.0404,0.234-0.0808,0.468-0.1212,0.702
		C1512.587,319.1503,1512.42,319.4267,1512.4139,319.8251z"/>
	<path class="st2" d="M1695.3802,287.4684c0.4219-0.5163,1.0116-0.3434,1.5393-0.3447c4.895-0.0119,9.7899,0.0086,14.6848-0.018
		c1.1956-0.0065,1.8079,0.0029,1.2267,1.5954c-1.043,2.8575-0.9017,2.909-3.8835,2.909c-2.6921,0-5.3846,0.0264-8.0764-0.0126
		c-1.0939-0.0158-1.6608,0.3481-1.8508,1.503c-0.3036,1.8436-0.6899,3.6838-1.2029,5.4792c-0.353,1.2356,0.1827,1.3195,1.15,1.3101
		c3.1814-0.0309,6.3633,0.0012,9.5449-0.0182c1.1273-0.0069,2.0906,0.025,1.2496,1.5695c-0.1057,0.1942-0.0232,0.4832-0.0618,0.7228
		c-0.2726,1.6942-1.0195,2.5378-2.9854,2.395c-2.9215-0.2123-5.871-0.0102-8.8064-0.0774c-1.144-0.0262-1.8162,0.227-2.0205,1.4784
		c-0.4141,2.537-0.9742,5.0397-1.8696,7.4691c-0.3768,1.0226-0.2412,1.7938,1.3318,1.7241c3.2976-0.146,6.6063-0.0343,9.9103-0.0505
		c0.8722-0.0043,1.2687-0.02,0.9573,1.1944c-0.9275,3.6163-0.8303,3.6418-4.601,3.641c-4.5278-0.001-9.0557-0.0032-13.5834-0.0049
		c-0.1027-0.2799-0.2054-0.5598-0.3081-0.8397c2.201-9.5463,4.2734-19.1234,6.8744-28.5739
		c0.2371-0.8613,0.3481-1.7572,0.5177-2.637C1695.205,287.7446,1695.2926,287.6065,1695.3802,287.4684z"/>
	<path class="st2" d="M1329.0055,316.1468c-0.0448,0.2336-0.0895,0.4672-0.1342,0.7008c-0.39,0.1367-0.61,0.3805-0.5168,0.8212
		c0.1191,1.6569-0.4822,2.3604-2.3053,2.3116c-4.7114-0.126-9.4291-0.0825-14.1431-0.0176
		c-1.3638,0.0188-1.593-0.3169-1.2994-1.6665c1.5154-6.9655,3.1787-13.8915,5.02-20.7784c0.7744-2.8965,1.408-5.8366,1.9576-8.7845
		c0.2482-1.3307,0.8877-1.6485,2.1174-1.6364c4.8981,0.0481,9.7975,0.0599,14.6951-0.0069c1.2877-0.0176,1.563,0.3748,1.3049,1.5777
		c-0.6295,2.9341-0.5913,2.9409-3.5752,2.9428c-2.8167,0.0018-5.6334-0.0102-8.4497,0.0244
		c-0.6151,0.0076-1.4469-0.2278-1.611,0.7615c-0.3335,2.0117-1.2297,3.8739-1.4908,5.9144c-0.1556,1.2175,0.14,1.6149,1.4047,1.5826
		c3.0596-0.0782,6.1226-0.0184,9.1841-0.0152c1.0129,0.001,1.8813-0.2721,1.3149,1.5165c-0.9645,3.0456-0.764,3.109-3.8137,3.109
		c-2.6942,0-5.3889,0.0295-8.0823-0.0164c-0.9071-0.0155-1.3793,0.2081-1.7389,1.1489c-1.0732,2.8079-1.2827,5.8179-2.187,8.6623
		c-0.326,1.0253,0.6417,0.7927,1.1716,0.7985c3.6115,0.0389,7.2231,0.0474,10.8347,0.0658
		C1328.6991,315.5181,1328.6604,315.8992,1329.0055,316.1468z"/>
	<path class="st2" d="M1422.8262,290.8018c0.0414,0.224,0.0829,0.448,0.1243,0.672c-0.1469,0.6224-0.1233,1.2068,0.3755,1.6854
		c0.0408,0.1954,0.0815,0.3909,0.1224,0.5864c-0.2495,0.266-0.1229,0.5034,0.0558,0.7369
		c1.2737,5.9822,2.548,11.9643,3.8203,17.9469c0.2107,0.9904,0.4124,1.9827,0.6182,2.9741
		c-0.1523,0.4723-0.011,0.8404,0.3956,1.1143c0.0382,0.2247,0.0764,0.4493,0.1146,0.674c-0.1285,0.3261-0.0798,0.6006,0.2329,0.7979
		c0.4463,1.4521,0.0254,2.1322-1.6001,1.9684c-1.0691-0.1078-2.1576-0.0242-3.2373-0.0264
		c-0.1478-0.1516-0.2958-0.3031-0.4436-0.4547c-0.5719-2.2731-1.1458-4.5518-1.335-6.8914
		c-0.0734-0.9074-0.4626-1.1355-1.2625-1.1302c-3.547,0.0237-7.0942,0.026-10.6414,0.0305
		c-0.7909,0.0009-1.2926,0.3012-1.7522,1.024c-1.2235,1.9241-2.7788,3.6566-3.8433,5.6563
		c-0.848,1.5933-1.9583,1.9298-3.5193,1.7801c-0.7278-0.0698-1.4639-0.0534-2.1963-0.0762
		c-0.0256-0.3002-0.0514-0.6004-0.0771-0.9006c3.5981-5.8335,7.7667-11.2759,11.6163-16.9371
		c3.1689-4.6601,6.3505-9.3116,9.5275-13.9663c0.0686-0.1006,0.1433-0.1986,0.2257-0.2881c0.399-0.4332,0.5923-1.3484,1.2148-1.2027
		c0.6106,0.1428,0.7238,0.9708,0.7096,1.6389c-0.1061,0.3715,0.173,0.5449,0.3867,0.7521c0.025,0.2276,0.05,0.4552,0.0751,0.6828
		C1422.4032,290.0911,1422.4418,290.4903,1422.8262,290.8018z M1420.6071,304.4861c0.2426-0.391,0.1163-0.706-0.2023-0.9814
		c-0.0759-0.4359-0.1519-0.8718-0.2278-1.3076c0.3075-0.3858,0.103-0.6372-0.225-0.856c-0.1687-1.1289-0.3356-2.258-0.5072-3.3864
		c-0.0587-0.3857,0.22-0.9692-0.3064-1.0965c-0.6128-0.1483-0.6921,0.4833-0.9281,0.8977
		c-0.8596,1.5093-1.7444,2.9915-2.7987,4.3945c-1.0917,1.4527-2.2931,2.8987-2.9312,4.7977c0.538,0.0341,0.9479,0.0813,1.358,0.0826
		c2.0729,0.0066,4.1461-0.0198,6.2186,0.0101c0.8667,0.0125,1.0503-0.3831,0.8655-1.1294
		C1420.8057,305.4392,1420.7114,304.9614,1420.6071,304.4861z"/>
	<path class="st2" d="M1778.0037,286.4243c1.7424,8.5653,3.4409,17.1399,5.2577,25.6894c0.4727,2.2244,1.1287,4.4126,1.608,6.6444
		c0.2202,1.0247-0.0935,1.2034-0.9348,1.1786c-0.0612-0.0018-0.1224-0.0019-0.1836,0.001c-4.3793,0.2099-4.7198-0.162-5.2888-5.7758
		c-0.274-2.7033-0.274-2.7034-2.9994-2.7036c-2.4485-0.0002-4.9128,0.1725-7.3406-0.0519
		c-2.1329-0.1972-3.4047,0.6648-4.4534,2.3494c-1.0775,1.731-2.2572,3.4001-3.4321,5.0683
		c-0.6418,0.9114-4.4781,1.6537-5.3275,1.0202c-0.7135-0.5321,0.009-0.9711,0.2599-1.3527c1.7595-2.6757,3.525-5.3486,5.349-7.9806
		c2.7668-3.993,5.5959-7.9427,8.3737-11.9283c2.6262-3.7681,5.2197-7.559,7.8292-11.3387c0.2395-0.3469,0.4905-0.6859,0.7362-1.0287
		C1777.6393,286.2851,1777.8215,286.3547,1778.0037,286.4243z M1776.3075,301.4495c0.4761-0.5599,0.0044-0.6265-0.3835-0.7366
		c-0.1917-1.3357-0.3833-2.6714-0.5748-4.0072c-2.1091,3.5296-4.526,6.6951-6.9005,9.8895
		c-0.3538,0.2266-0.2767,0.3355,0.0991,0.3629c1.5741,0.0255,3.1489,0.092,4.7219,0.0635c1.2612-0.0228,2.8909,0.5493,3.6827-0.2612
		c0.761-0.7787-0.3717-2.2573-0.2986-3.4702c0.4534-0.4031,0.2007-0.6095-0.2147-0.7705
		C1776.3953,302.1629,1776.3514,301.8062,1776.3075,301.4495z"/>
	<path class="st2" d="M1582.4331,296.6238c0.0393-0.3473,0.0786-0.6946,0.1179-1.0419c0.3147-0.2253,0.2744-0.4724,0.0447-0.731
		c2.1292-6.1771,7.7098-8.8034,12.1501-8.4532c2.6923,0.2123,5.4818,0.4563,6.9441,3.3558
		c0.6102,1.2099,0.6318,2.1856-0.8037,2.7817c-0.6049,0.2511-1.1973,0.5321-1.7969,0.7962
		c-0.8198,0.3612-1.3831,0.4915-1.9919-0.5719c-1.1808-2.0623-5.8157-2.4067-7.9308,0.3711
		c-1.6238,2.1326-1.4247,4.0023,0.6042,5.8222c1.7697,1.5873,3.9893,2.4416,5.8811,3.8373
		c2.8551,2.1064,3.7758,4.1943,3.0673,7.6418c-1.213,5.9033-5.4618,9.6567-11.7351,10.2207
		c-3.0116,0.2708-5.5848,0.0251-7.8115-2.1608c-0.8124-0.7975-1.2864-1.7459-1.5989-2.7743
		c-0.241-0.7928-0.5215-1.9142,0.1638-2.387c1.1198-0.7727,2.421-1.3989,3.8314-1.5481c0.3475-0.0368,0.514,0.4066,0.6371,0.7811
		c1.0049,3.0602,4.1431,4.1681,7.7715,2.7661c2.4093-0.9309,3.937-4.4628,2.887-6.8408c-0.571-1.2936-1.8193-1.897-2.9866-2.5578
		c-2.6992-1.5281-5.3827-3.0813-7.0002-5.8958c0.0721-0.3283-0.0352-0.5844-0.3112-0.7726
		c-0.0449-0.3468-0.0898-0.6935-0.1348-1.0403C1582.5831,297.6896,1582.5935,297.1568,1582.4331,296.6238z"/>
	<path class="st2" d="M1381.3441,317.9148c1.2859-6.1552,2.7996-12.254,4.4146-18.3315c0.9856-3.709,1.3982-7.5554,2.7075-11.2
		c0.3245-0.9033,0.6121-1.3264,1.5951-1.2785c3.708,0.1807,7.4292-0.2737,11.134,0.4051c2.6567,0.4868,4.4045,2.0665,4.6469,4.7636
		c0.5137,5.7166-2.5125,10.9333-8.4596,12.7563c-1.2924,0.3961-2.7899,0.113-4.1923,0.1627
		c-1.2168,0.0431-2.4326,0.1145-3.6487,0.1736c-0.4982,0.1415-0.5446,0.5018-0.4506,0.9302
		c-0.0402,0.2263-0.0803,0.4527-0.1205,0.679c-0.2454,0.1913-0.4484,0.4021-0.3452,0.7531
		c-0.8251,3.3421-1.6252,6.6907-2.4955,10.021c-0.1857,0.7105,0.297,1.8817-0.7162,2.0569
		c-1.2924,0.2234-2.6614,0.1174-3.9836-0.0003c-0.5509-0.049-0.2933-0.6856-0.2808-1.0854
		C1381.4657,318.5129,1381.4976,318.2362,1381.3441,317.9148z M1393.7516,300.7397c1.4517,0.2344,3.0242-0.329,4.5049-1.1689
		c1.5457-0.8768,2.603-3.854,1.9948-5.6399c-0.6324-1.8566-2.2399-2.0296-3.8646-2.0444c-3.65-0.0333-3.6459-0.0182-4.4994,3.6142
		c-0.2046,0.8706-0.4791,1.7256-0.6671,2.5994C1390.6381,300.8061,1390.6482,300.8083,1393.7516,300.7397z"/>
	<path class="st2" d="M1745.0726,305.5363c-0.6847,2.8062-1.3829,5.6093-2.0487,8.42c-0.3461,1.4605-0.7738,2.922-0.9078,4.4062
		c-0.118,1.3065-0.6819,1.589-1.8691,1.6064c-3.469,0.0507-3.4946,0.0922-2.9894-3.2113c0.6359-4.158,1.9913-8.1479,2.9261-12.2369
		c1.2252-5.359,2.504-10.7062,3.673-16.0773c0.1954-0.8979,0.5372-1.3166,1.3939-1.3181
		c5.3219-0.0092,10.6439,0.0003,15.9658-0.0137c0.8046-0.0021,1.0194,0.2369,0.8873,1.0936c-0.524,3.3994-0.4874,3.405-3.9567,3.405
		c-2.6915,0-5.3837,0.0314-8.0743-0.0163c-0.9751-0.0173-1.5033,0.2135-1.8691,1.2457c-0.7229,2.0391-0.7548,4.2284-1.5704,6.2503
		c-0.3373,0.8361,0.6393,0.6665,1.1019,0.6721c3.1805,0.0385,6.3669,0.1536,9.5403,0.0056c1.8932-0.0883,1.8242,0.607,1.5896,2.1186
		c-0.3248,2.0933-1.1755,2.8006-3.34,2.6605c-3.2263-0.2089-6.4784-0.0225-9.7195-0.0044
		C1745.131,304.5564,1744.871,304.8763,1745.0726,305.5363z"/>
	<path class="st2" d="M1290.8192,287.1176c2.5078,0,5.016,0.021,7.5233-0.0111c0.91-0.0116,1.2244,0.1014,1.0404,1.213
		c-0.1692,1.022-0.8712,1.8083-0.8954,2.8918c-0.0137,0.6075-0.9163,0.3848-1.4291,0.3882
		c-3.1804,0.021-6.3633,0.0769-9.5408-0.0226c-1.2249-0.0383-1.796,0.4403-2.0552,1.5179
		c-0.4182,1.7396-0.8169,3.4839-1.2482,5.2202c-0.2711,1.0917,0.1136,1.4917,1.2412,1.4789
		c3.1799-0.0363,6.3607,0.0086,9.5413,0.0163c1.0446,0.0026,1.7456-0.1016,1.0969,1.4912c-1.2721,3.124-1.1194,3.1861-4.4275,3.1862
		c-2.5078,0.0002-5.016,0.0265-7.5231-0.0136c-0.84-0.0134-1.2278,0.2004-1.5525,1.0836
		c-1.3542,3.6831-1.9152,7.5476-2.7235,11.3497c-0.5409,2.5436-2.8608,3.9187-5.3038,2.8666
		c-0.5271-0.227-0.6978-0.6207-0.5613-1.1757c2.4271-9.8692,4.8979-19.7282,7.2269-29.6205
		c0.3622-1.5384,0.9974-1.9398,2.4347-1.8855C1286.0458,287.1823,1288.4338,287.1168,1290.8192,287.1176z"/>
	<path class="st2" d="M1443.7493,300.4428c3.3519-3.8319,6.6667-7.5705,9.9209-11.3612c1.8062-2.1042,3.2012-2.5307,6.3214-1.6022
		c-2.6486,3.666-5.7319,6.9016-8.5898,10.3182c-1.8522,2.2143-3.863,4.2954-5.7255,6.5015
		c-0.4811,0.5698-0.7159,1.3451-0.895,2.1309c-0.9208,4.0397-1.9623,8.0523-2.8551,12.0978
		c-0.2271,1.0288-0.5806,1.414-1.6576,1.4352c-3.8748,0.0761-4.0388-0.0789-3.0271-4.015c0.8347-3.2477,1.8082-6.4576,2.4567-9.756
		c0.1669-0.8488,0.1794-1.5847-0.1108-2.3684c-1.7313-4.6744-3.4573-9.3508-5.1797-14.0286
		c-0.1669-0.4533-0.2944-0.9211-0.4442-1.3808c-0.2902-0.8904-0.1261-1.4374,0.9675-1.2982
		c0.1205,0.0154,0.2446,0.0031,0.3671,0.0009c3.5524-0.0653,3.3358,0.0329,4.8295,3.3246
		C1441.6016,293.6897,1442.3136,297.191,1443.7493,300.4428z"/>
	<path class="st2" d="M1558.7268,290.0787c0.0708-0.3513,0.1417-0.7026,0.2125-1.054c0.4169-0.1642,0.6337-0.3823,0.208-0.7732
		c-0.0635-0.8947,0.4064-1.1455,1.2343-1.1433c6.6724,0.0177,13.3447,0.0184,20.017-0.0005
		c0.9375-0.0027,1.2373,0.3296,0.8832,1.2077c-0.0228,0.0563-0.0311,0.1184-0.0492,0.1768c-0.9713,3.118-0.9722,3.0753-4.446,3.1367
		c-1.6354,0.0289-3.5999-0.6747-4.8191,0.354c-1.0906,0.9204-0.8401,2.8856-1.1992,4.386
		c-1.3945,5.8277-2.9871,11.6081-4.0817,17.5073c-0.172,0.9269-0.7108,1.7809-0.9353,2.7037
		c-0.894,3.6742-0.8917,3.6743-4.5414,3.3721c-0.7516-0.0622-1.017-0.2314-1.0425-1.0718
		c-0.0382-1.2585,0.5029-2.3355,0.7755-3.4903c1.6758-7.1007,3.3544-14.2012,5.1104-21.2823
		c0.625-2.5205,0.7249-2.496-1.8695-2.4974c-1.4691-0.0008-2.9392,0.0284-4.4069-0.0169c-0.5194-0.016-1.3525,0.3074-1.2778-0.7687
		C1558.9535,290.6916,1559.0991,290.4642,1558.7268,290.0787z"/>
	<path class="st2" d="M1676.444,292.6779c0.0991-1.1596-0.7223-0.9927-1.4512-1.0511c-2.2365-0.1793-4.4999,0.313-6.7183-0.2752
		c-0.0004,0.0003,0.0139-0.0153,0.0139-0.0153c0.0087-0.2888,0.0173-0.5775,0.026-0.8663c0.4355-0.1313,0.7981-0.2884,0.2684-0.7604
		c0.0109-0.3643,0.0217-0.7286,0.0325-1.0929c0.8593-0.169,0.6777-0.8556,0.7134-1.4341
		c6.9133-0.0218,13.8268-0.0393,20.7401-0.0705c0.8644-0.0039,1.2738-0.0035,0.9681,1.1959
		c-0.8352,3.2772-0.7368,3.3023-4.1483,3.3023c-0.3672,0-0.7343,0-1.1014,0c-4.0388,0-4.0814-0.0101-4.978,3.7792
		c-1.0746,4.541-1.8905,9.1511-3.1533,13.637c-0.9408,3.3419-1.5995,6.7346-2.4016,10.1c-0.1478,0.6205-0.4376,0.8062-0.991,0.8055
		c-0.9791-0.0012-1.9614-0.0464-2.9364,0.0177c-1.2656,0.0832-1.5107-0.4759-1.1049-1.544
		c0.4452-0.1419,0.6782-0.3502,0.2399-0.7681c0.0114-0.2407,0.0227-0.4814,0.0341-0.7221c0.48-0.1439,0.8203-0.3264,0.2129-0.7707
		c1.0685-4.6576,2.1088-9.3218,3.2175-13.9697c0.5249-2.2001,1.1808-4.369,1.7772-6.5521c0.6368-0.2373,0.7292-0.6135,0.2877-1.1261
		c0.0546-0.2321,0.1093-0.4642,0.1638-0.6963C1676.7162,293.5458,1676.7996,293.1683,1676.444,292.6779z"/>
	<path class="st2" d="M1266.269,319.8581c-0.8536,0.0267-1.7073,0.0735-2.561,0.0764c-2.6172,0.0086-2.656-0.0077-2.0137-2.6804
		c1.6741-6.9659,3.408-13.9174,5.0696-20.8862c0.6373-2.6732,1.0549-5.3919,1.9465-8.0132c0.326-0.9583,0.7358-1.2595,1.6638-1.1945
		c1.2135,0.0849,2.7803-0.3426,3.5411,0.2667c0.6307,0.5049-0.4985,1.9851-0.7086,3.076c-0.5885,3.0566-1.0579,6.155-1.9241,9.1353
		c-1.7809,6.1274-2.8788,12.4185-4.6305,18.5486c-0.0812,0.2839-0.0217,0.6079-0.0278,0.9132
		C1266.2793,319.2465,1266.2733,319.5519,1266.269,319.8581z"/>
	<path class="st2" d="M1305.2256,288.2476c-0.0054-0.6198,0.1582-1.0812,0.9114-1.0721c1.2819,0.0155,2.8691-0.4585,3.7725,0.1283
		c1.2623,0.8199-0.1375,2.1819-0.3442,3.305c-1.0083,5.475-2.7189,10.7941-3.8114,16.2386
		c-0.8043,4.0081-2.1442,7.8707-2.8303,11.894c-0.2946,0.2196-0.3357,0.51-0.2347,0.8401c-1.4281,0.733-2.9681,0.4162-4.4116,0.2516
		c-1.0836-0.1235-0.2108-1.1933-0.3591-1.8138c0.4286-0.1366,0.8098-0.2894,0.2615-0.7614
		c-0.0347-1.1064,0.4041-2.1035,0.6617-3.1513c2.0564-8.3606,4.0314-16.7411,6.0314-25.1156
		C1305.2781,288.8798,1305.6902,288.7718,1305.2256,288.2476z"/>
	<path class="st2" d="M1624.1501,287.2509c0.3033-0.0265,0.6063-0.072,0.91-0.0765c4.0813-0.0607,3.9855-0.0835,2.958,3.9666
		c-1.7932,7.0694-3.6106,14.1332-5.0756,21.2849c-0.4537,2.2146-1.1326,4.3975-1.5975,6.6224
		c-1.7333,0.6634-3.4751,0.6766-5.2251,0.0682c1.3304-5.6779,2.6538-11.3575,3.9938-17.0331
		c0.9734-4.1227,1.9686-8.2403,2.9541-12.3601c0.381-0.1111,0.8624-0.1685,0.392-0.7341c0.0587-0.2325,0.1176-0.4651,0.1761-0.6976
		C1624.1195,288.0988,1624.1265,287.6707,1624.1501,287.2509z"/>
	<path class="st2" d="M1616.12,319.1165c1.75,0.6083,3.4918,0.5952,5.2251-0.0682c0.0403,0.7699-0.4529,1.1167-1.0969,1.1476
		c-1.2118,0.058-2.433,0.07-3.6414-0.0195C1616.068,320.1365,1615.3077,319.9131,1616.12,319.1165z"/>
	<path class="st5" d="M1885.1389,87.1228c0-1.7267,0-3.4534,0-5.1801c0.1071,0.0019,0.2141,0.0039,0.3212,0.0058
		c0,1.7267,0,3.4534,0,5.1801C1885.353,87.1266,1885.246,87.1247,1885.1389,87.1228z"/>
	<path class="st2" d="M1711.6268,319.4469c1.6252-0.0687,3.2958,0.4089,4.8594-0.4027c-0.0577,1.25-0.9998,1.3181-1.8208,1.1391
		C1713.6516,319.9622,1712.2897,321.0657,1711.6268,319.4469z"/>
	<path class="st2" d="M1490.8024,312.8631c-0.5892-1.7464-0.7889-3.4844,0.1129-5.1985
		C1491.0852,309.402,1491.1686,311.1375,1490.8024,312.8631z"/>
	<path class="st2" d="M1486.0123,319.4484c1.3184,0.2741,2.7369-0.3999,3.9972,0.423c-1.2462,0.7167-2.563,0.2861-3.8529,0.2053
		C1486.0957,320.0729,1486.0599,319.667,1486.0123,319.4484z"/>
	<path class="st2" d="M1732.7172,318.4041c-0.8848-0.4873-1.0895-1.3699-1.3058-2.2457
		C1732.058,316.7841,1732.408,317.5823,1732.7172,318.4041z"/>
	<path class="st5" d="M1356.9723,287.5749c-0.6857,0.3614-1.3501,0.5743-1.8647-0.2655
		C1355.7614,287.1716,1356.3937,287.1845,1356.9723,287.5749z"/>
	<path class="st5" d="M1809.2551,291.2319c0.6603-0.6317,1.309-0.6432,1.9447,0.0365
		C1810.5479,291.4565,1809.8993,291.4583,1809.2551,291.2319z"/>
	<path class="st5" d="M1735.0909,297.0627c0.0195-0.5516-0.1938-1.1741,0.4666-1.5304
		C1735.7159,296.1381,1735.6106,296.6635,1735.0909,297.0627z"/>
	<path class="st2" d="M1208.2217,315.6393c-0.2704,0.5879-0.6481,0.6635-1.131,0.2367
		C1207.4232,315.5844,1207.8069,315.5374,1208.2217,315.6393z"/>
	<path class="st2" d="M1470.4541,316.1046c0.4896,0.2763,0.5879,0.6435,0.2577,1.11
		C1470.3772,316.9023,1470.2863,316.5335,1470.4541,316.1046z"/>
	<path class="st5" d="M1624.1501,287.2509c-0.0237,0.4199-0.0306,0.8479-0.5142,1.0407
		C1623.516,287.8008,1623.4476,287.3355,1624.1501,287.2509z"/>
	<path class="st5" d="M1669.3287,287.1825c-0.0356,0.5786,0.1459,1.2651-0.7134,1.4341
		C1668.6156,288.0205,1668.6938,287.4631,1669.3287,287.1825z"/>
	<path class="st5" d="M1676.444,292.6779c0.3556,0.4904,0.2722,0.868-0.2888,1.1227
		C1676.0328,293.3701,1676.1189,292.9933,1676.444,292.6779z"/>
	<path class="st5" d="M1675.9913,294.4968c0.4415,0.5126,0.3491,0.8889-0.2877,1.1261
		C1675.6135,295.2001,1675.6792,294.817,1675.9913,294.4968z"/>
	<path class="st2" d="M1827.5928,308.4264c-0.418-0.5156-0.3215-0.8916,0.3051-1.1238
		C1827.9993,307.7323,1827.86,308.0967,1827.5928,308.4264z"/>
	<path class="st2" d="M1826.6978,311.9038c-0.1713-0.5112-0.2236-0.9914,0.3423-1.3101
		C1827.203,311.1028,1827.0587,311.5316,1826.6978,311.9038z"/>
	<path class="st2" d="M1470.0411,314.2697c0.549,0.2787,0.6208,0.6556,0.2322,1.1273
		C1469.9336,315.0753,1469.8896,314.6926,1470.0411,314.2697z"/>
	<path class="st2" d="M1329.0055,316.1468c-0.3451-0.2476-0.3064-0.6287-0.3423-0.9838
		C1329.7137,315.1653,1329.3101,315.6732,1329.0055,316.1468z"/>
	<path class="st2" d="M1204.4781,315.8932c-0.4672,0.4107-0.8463,0.3412-1.1373-0.2086
		C1203.7531,315.5737,1204.1351,315.6269,1204.4781,315.8932z"/>
	<path class="st2" d="M1726.6956,318.3444c0.7046,0.1115,0.64,0.6548,0.6494,1.1564
		C1726.8376,319.2786,1726.7603,318.8151,1726.6956,318.3444z"/>
	<path class="st5" d="M1554.333,290.485c-0.0073-0.47-0.1155-0.982,0.498-1.1927
		C1554.9038,289.7896,1554.8279,290.2247,1554.333,290.485z"/>
	<path class="st5" d="M1342.3173,287.2188c-0.0184,0.4303,0.0088,0.8824-0.5122,1.0728
		C1341.7184,287.8111,1341.683,287.3552,1342.3173,287.2188z"/>
	<path class="st5" d="M1358.8894,288.1947c-0.3839,0.0316-0.7045-0.0537-0.8501-0.4612
		C1358.507,287.5479,1358.7487,287.7782,1358.8894,288.1947z"/>
	<path class="st5" d="M1812.6379,291.4237c0.4668-0.3726,0.6719-0.1563,0.7546,0.3352
		C1813.1411,291.6472,1812.8895,291.5354,1812.6379,291.4237z"/>
	<path class="st5" d="M1341.6405,288.9888c0.397,0.4741,0.141,0.6613-0.3312,0.7534
		C1341.4197,289.491,1341.53,289.2399,1341.6405,288.9888z"/>
	<path class="st2" d="M1827.2054,309.8911c-0.396-0.3831-0.176-0.5983,0.2095-0.7684
		C1827.5509,309.4349,1827.4578,309.6847,1827.2054,309.8911z"/>
	<path class="st5" d="M1559.1473,288.2516c0.4257,0.3909,0.2089,0.609-0.208,0.7732
		C1558.8206,288.7165,1558.8999,288.4615,1559.1473,288.2516z"/>
	<path class="st2" d="M1469.7188,312.7975c0.3772,0.1829,0.5531,0.4119,0.1759,0.7676
		C1469.6952,313.3414,1469.5977,313.0945,1469.7188,312.7975z"/>
	<path class="st5" d="M1550.3114,288.2478c0.4646,0.5251,0.0507,0.6321-0.354,0.7435
		C1549.8268,288.6252,1550.1299,288.4655,1550.3114,288.2478z"/>
	<path class="st5" d="M1558.7268,290.0787c0.3723,0.3854,0.2267,0.6128-0.2278,0.746
		C1558.3781,290.516,1558.474,290.2734,1558.7268,290.0787z"/>
	<path class="st5" d="M1668.5829,289.7096c0.5297,0.472,0.1671,0.629-0.2684,0.7604
		C1668.1593,290.1302,1668.1451,289.8401,1668.5829,289.7096z"/>
	<path class="st2" d="M1495.517,317.2622c0.5315,0.4639,0.215,0.64-0.2589,0.7628
		C1495.1172,317.6936,1495.0745,317.3956,1495.517,317.2622z"/>
	<path class="st2" d="M1670.7089,316.1447c0.6074,0.4443,0.2671,0.6268-0.2129,0.7707
		C1670.3789,316.6066,1670.3251,316.3152,1670.7089,316.1447z"/>
	<path class="st5" d="M1305.2256,288.2476c0.4646,0.5242,0.0525,0.6323-0.353,0.7435
		C1304.7432,288.6259,1305.0446,288.4653,1305.2256,288.2476z"/>
	<path class="st2" d="M1328.3545,317.6687c-0.0931-0.4407,0.1268-0.6845,0.5168-0.8212
		C1329.0797,317.3608,1328.6448,317.4693,1328.3545,317.6687z"/>
	<path class="st2" d="M1298.1794,317.258c0.5483,0.4719,0.1671,0.6248-0.2615,0.7614
		C1297.7776,317.6874,1297.751,317.3946,1298.1794,317.258z"/>
	<path class="st2" d="M1513.1174,318.3555c-0.4398-0.42-0.2081-0.6284,0.2421-0.7681
		C1513.4449,317.8958,1513.3427,318.145,1513.1174,318.3555z"/>
	<path class="st2" d="M1670.4619,317.6375c0.4384,0.4179,0.2053,0.6262-0.2399,0.7681
		C1670.1155,318.0914,1670.2078,317.8392,1670.4619,317.6375z"/>
	<path class="st5" d="M1623.4598,288.9892c0.4705,0.5656-0.011,0.623-0.392,0.7341
		C1622.9783,289.361,1623.2,289.1649,1623.4598,288.9892z"/>
	<path class="st2" d="M1711.9226,317.9936c0.4426,0.3934,0.2859,0.6282-0.2051,0.7746
		C1711.6147,318.4647,1711.7278,318.2183,1711.9226,317.9936z"/>
	<path class="st2" d="M1302.6887,319.5815c-0.101-0.3301-0.0598-0.6205,0.2347-0.8401
		C1303.156,319.1082,1303.1124,319.3979,1302.6887,319.5815z"/>
	<path class="st2" d="M1512.4139,319.8251c0.0061-0.3984,0.1731-0.6748,0.5823-0.7676
		C1513.0728,319.5187,1512.9786,319.8503,1512.4139,319.8251z"/>
	<path class="st5" d="M1203.762,288.9676c-0.0601-0.4144,0.1569-0.6449,0.5178-0.7797
		C1204.4717,288.6898,1203.9259,288.7019,1203.762,288.9676z"/>
	<path class="st5" d="M1554.985,288.5952c-0.3306-0.3425-0.2324-0.5807,0.1807-0.7423
		C1555.3215,288.153,1555.1836,288.3815,1554.985,288.5952z"/>
	<path class="st5" d="M1490.7079,286.3647c0.1875,0.0136,0.375,0.0272,0.5627,0.0407c-0.0483,0.2404-0.0968,0.4808-0.1454,0.7212
		c-0.2816-0.0181-0.5631-0.0362-0.8447-0.0544C1490.423,286.8364,1490.5654,286.6005,1490.7079,286.3647z"/>
	<path class="st2" d="M1398.7778,318.9695c0.0258,0.3002,0.0515,0.6004,0.0771,0.9006
		C1397.9486,319.6453,1398.4617,319.299,1398.7778,318.9695z"/>
	<path class="st5" d="M1460.0634,287.4787c-0.0417-0.0234-0.0834-0.0468-0.125-0.0702c0.0465-0.0606,0.093-0.1212,0.1395-0.1819
		c0.0405,0.0445,0.0811,0.089,0.1216,0.1335C1460.1541,287.3997,1460.1088,287.4392,1460.0634,287.4787z"/>
	<path class="st5" d="M1845.2889,287.5089c-0.1147-0.1136-0.2296-0.2271-0.3445-0.3406
		C1845.2301,287.1092,1845.3428,287.2249,1845.2889,287.5089z"/>
	<path class="st2" d="M1629.2496,317.6075c-0.0792,0.1337-0.1584,0.2674-0.2378,0.401
		C1628.8734,317.7458,1629.0347,317.6607,1629.2496,317.6075z"/>
	<path class="st5" d="M1695.3802,287.4684c-0.0876,0.1381-0.1753,0.2761-0.2629,0.4142
		C1695.0264,287.6312,1695.1254,287.5004,1695.3802,287.4684z"/>
	<path class="st5" d="M1668.2885,291.3362c0,0-0.0143,0.0156-0.0139,0.0154c-0.0482,0.0307-0.0984,0.0883-0.1445,0.0853
		c-0.0447-0.003-0.0853-0.0683-0.1278-0.1062C1668.0977,291.3325,1668.193,291.3344,1668.2885,291.3362z"/>
	<path class="st5" d="M1354.0703,292.1984c-0.7598,0.0633-1.547,0.405-2.2383-0.2218
		C1352.6381,291.4461,1353.4187,291.1705,1354.0703,292.1984z"/>
	<path class="st2" d="M1776.6538,303.2901c-0.2727-0.2008-0.3367-0.4598-0.2148-0.7705
		C1776.8545,302.6807,1777.1072,302.887,1776.6538,303.2901z"/>
	<path class="st2" d="M1776.3075,301.4495c-0.2295-0.1926-0.4775-0.3757-0.3835-0.7366
		C1776.3119,300.823,1776.7836,300.8896,1776.3075,301.4495z"/>
	<path class="st2" d="M1768.4486,306.5952c0.0331,0.1209,0.0662,0.2419,0.0991,0.3629
		C1768.1719,306.9307,1768.0948,306.8218,1768.4486,306.5952z"/>
</g>
</svg>
